<?xml version="1.0" standalone="no"?>
<!DOCTYPE svg PUBLIC "-//W3C//DTD SVG 1.1//EN" "http://www.w3.org/Graphics/SVG/1.1/DTD/svg11.dtd" >
<svg xmlns="http://www.w3.org/2000/svg">
<metadata></metadata>
<defs>
<font id="lato_latinbold_italic" horiz-adv-x="1187" >
<font-face units-per-em="2048" ascent="1649" descent="-399" />
<missing-glyph horiz-adv-x="448" />
<glyph unicode="ff" horiz-adv-x="1297" d="M76 -253l137 1119l-80 15q-27 5 -42.5 19t-11.5 42l12 99h143l8 60q11 90 46.5 161.5t89.5 122t125 77t154 26.5q67 0 122 -20l-23 -131q-5 -24 -28 -27.5t-53 -3.5q-40 0 -73 -9t-57.5 -31.5t-41 -60.5t-23.5 -96l-9 -68h370l11 94q11 90 47.5 161.5t92 121.5t128 77 t156.5 27q34 0 63.5 -5t58.5 -14l-24 -132q-5 -24 -28 -28t-53 -4q-42 0 -75.5 -11t-58.5 -36t-42 -66t-24 -100l-11 -85h248l-22 -174h-238l-100 -824l-52 -193q-16 -49 -45.5 -76t-85.5 -27h-101l134 1120h-360l-100 -824l-52 -193q-16 -49 -45.5 -76t-84.5 -27h-102z" />
<glyph unicode="fi" horiz-adv-x="1150" d="M75 -255l137 1115l-78 14q-28 6 -43 20t-12 41l11 106h144l5 34q11 96 50.5 177.5t107 141.5t163.5 94t222 34q40 0 84.5 -5t74.5 -15l-25 -126q-5 -24 -28.5 -27t-56.5 -3q-92 0 -156.5 -17t-106 -51.5t-64 -86t-30.5 -121.5l-3 -29h604l-127 -1041h-248l106 861h-348 l-100 -819l-52 -193q-15 -49 -45 -76.5t-85 -27.5h-101z" />
<glyph unicode="fl" horiz-adv-x="1170" d="M75 -255l136 1115l-77 14q-28 6 -43.5 20t-11.5 41l12 106h141l7 46q10 84 43.5 160.5t91 135t139 92.5t185.5 34q87 0 164 -6t156 -6h140l-184 -1497h-245l160 1317q-44 5 -88 9.5t-85 4.5q-102 0 -164.5 -61.5t-74.5 -182.5l-5 -46h222l-21 -180h-213l-102 -819 l-52 -193q-15 -49 -45 -76.5t-85 -27.5h-101z" />
<glyph unicode="ffi" horiz-adv-x="1761" d="M76 -253l137 1119l-80 15q-27 5 -42.5 19t-11.5 42l12 99h143l8 60q11 90 46.5 161.5t89.5 122t125 77t154 26.5q67 0 122 -20l-23 -131q-5 -24 -28 -27.5t-53 -3.5q-40 0 -73 -9t-57.5 -31.5t-41 -60.5t-23.5 -96l-9 -68h376l4 34q11 96 50.5 177.5t107 141.5t164.5 94 t223 34q19 0 40.5 -1t42.5 -4t40.5 -6.5t33.5 -8.5l-24 -126q-5 -24 -28.5 -27t-55.5 -3q-93 0 -157.5 -17t-106 -51.5t-64 -86t-31.5 -121.5l-3 -29h603l-127 -1041h-245l106 867h-349l-100 -825l-52 -193q-15 -49 -45 -76.5t-86 -27.5h-101l138 1122h-365l-100 -824 l-52 -193q-16 -49 -45.5 -76t-84.5 -27h-102z" />
<glyph unicode="ffl" horiz-adv-x="1779" d="M73 -253l136 1118l-76 14q-27 5 -42.5 19t-11.5 42l12 98h138l9 63q11 90 47 161.5t90 122t125 77t154 26.5q66 0 121 -20l-22 -131q-3 -11 -11 -17.5t-18.5 -9.5t-24.5 -3.5t-28 -0.5q-40 0 -73 -9t-57.5 -31.5t-41 -60.5t-23.5 -96l-9 -71h375l6 49q10 84 44 160.5 t91 135t138.5 92.5t186.5 34q87 0 163.5 -6t155.5 -6h140l-184 -1497h-245l160 1317q-44 5 -88 9.5t-85 4.5q-102 0 -164 -61.5t-75 -182.5l-5 -49h249l-22 -173h-239l-101 -823l-53 -193q-16 -49 -45 -76.5t-85 -27.5h-101l136 1120h-364l-100 -822l-52 -193 q-16 -49 -45.5 -76t-84.5 -27h-101z" />
<glyph unicode="fb" horiz-adv-x="1795" d="M75 -255l137 1115l-78 14q-28 6 -43.5 20t-11.5 41l12 106h143l11 81q10 84 45.5 160.5t94.5 135t142.5 93t190.5 34.5q66 0 129 -3.5t120 -8t106.5 -8t88.5 -3.5h2l-83 -679q74 103 164.5 163.5t193.5 60.5q66 0 119 -24t91 -72t58 -122t20 -173q0 -89 -18 -175 t-51.5 -163t-80.5 -141.5t-104 -111.5t-122 -73.5t-134 -26.5q-81 0 -144 32t-106 87l-9 -34q-11 -36 -29.5 -53t-59.5 -17h-137l165 1360q-42 8 -83 15.5t-79 7.5q-52 0 -96 -18t-76.5 -52t-53 -82.5t-26.5 -108.5l-10 -81h235l-21 -180h-227l-102 -819l-52 -193 q-15 -49 -45 -76.5t-85 -27.5h-101zM1008 246q35 -38 80 -53.5t89 -15.5q68 0 123 42t94.5 109.5t61 152t21.5 169.5q0 111 -36 164.5t-101 53.5q-42 0 -85 -28t-82.5 -77.5t-74 -116.5t-59.5 -145z" />
<glyph unicode="ffb" horiz-adv-x="2405" d="M76 -253l136 1117l-80 15q-27 5 -42.5 19t-11.5 42l12 98h143l9 63q11 90 46.5 161.5t89.5 122t125 77t154 26.5q67 0 122 -20l-23 -131q-5 -24 -29 -27.5t-52 -3.5q-40 0 -73 -9t-57.5 -31.5t-41 -60.5t-23.5 -96l-9 -71h375l10 84q10 84 45.5 160.5t95 135t143 93 t189.5 34.5q62 0 122 -3.5t115 -7.5t103.5 -7.5t87.5 -4.5h18l-83 -679q74 103 164.5 163.5t192.5 60.5q66 0 119 -24t91 -72t58.5 -122t20.5 -173q0 -89 -18.5 -175t-52 -163t-80.5 -141.5t-104 -111.5t-122 -73.5t-134 -26.5q-81 0 -144 32t-106 87l-8 -34 q-11 -36 -29.5 -53t-59.5 -17h-138l165 1360q-41 8 -82 15.5t-78 7.5q-52 0 -96.5 -18t-77 -52t-52.5 -82.5t-26 -108.5l-11 -84h245l-22 -173h-236l-101 -823l-52 -193q-15 -49 -45 -76.5t-86 -27.5h-101l138 1120h-365l-100 -822l-51 -193q-16 -49 -46 -76t-85 -27h-101z M1618 246q35 -38 80 -53.5t89 -15.5q68 0 123 42t94.5 109.5t61 152t21.5 169.5q0 111 -35.5 164.5t-100.5 53.5q-42 0 -85 -28t-83 -77.5t-74.5 -116.5t-58.5 -145z" />
<glyph unicode="fh" horiz-adv-x="1792" d="M75 -255l137 1115l-78 14q-28 6 -43.5 20t-11.5 41l12 106h143l11 81q10 84 45.5 160.5t94.5 135t142.5 93t190.5 34.5q62 0 122 -3.5t115 -7.5t103 -7.5t87 -4.5h17l-79 -651q77 99 166.5 147.5t183.5 48.5q67 0 119.5 -26.5t86 -77.5t47.5 -125t2 -169l-80 -669h-252 l79 669q13 102 -11 147t-88 45q-39 0 -81 -22t-80.5 -62.5t-72.5 -97.5t-58 -128l-66 -551h-253l165 1361q-40 8 -79.5 15t-75.5 7q-52 0 -96 -18t-77 -52t-53.5 -82.5t-26.5 -108.5l-9 -81h235l-21 -180h-227l-102 -819l-52 -193q-15 -49 -45 -76.5t-85 -27.5h-101z" />
<glyph unicode="ffh" horiz-adv-x="2404" d="M76 -253l136 1117l-80 15q-27 5 -42.5 19t-11.5 42l12 98h143l9 63q11 90 46.5 161.5t89.5 122t125 77t154 26.5q67 0 122 -20l-23 -131q-5 -24 -29 -27.5t-52 -3.5q-40 0 -73 -9t-57.5 -31.5t-41 -60.5t-23.5 -96l-9 -71h375l10 84q10 84 45.5 160.5t95 135t143 93 t189.5 34.5q66 0 129.5 -3.5t120 -8t106.5 -8t89 -3.5h1l-79 -651q77 99 166.5 147.5t182.5 48.5q67 0 119.5 -26.5t86.5 -77.5t47.5 -125t1.5 -169l-80 -669h-252l79 669q13 102 -11 147t-87 45q-39 0 -81 -22t-81 -62.5t-73 -97.5t-57 -128l-67 -551h-253l165 1361 q-40 8 -79.5 15t-75.5 7q-52 0 -96.5 -18t-77 -52t-52.5 -82.5t-26 -108.5l-11 -84h245l-22 -173h-236l-101 -823l-52 -193q-15 -49 -45 -76.5t-86 -27.5h-101l138 1120h-365l-100 -822l-51 -193q-16 -49 -46 -76t-85 -27h-101z" />
<glyph unicode="f&#xec;" horiz-adv-x="1150" d="M78 -253l136 1113l-80 14q-28 6 -43.5 20t-11.5 41l11 106h147l14 116q10 83 37 149t69.5 112t100.5 70t129 24q26 0 49 -2.5t43 -8.5l-16 -133q-2 -18 -18.5 -25t-38.5 -7q-53 0 -80.5 -42.5t-39.5 -136.5l-15 -116h604l-127 -1041h-248l106 861h-348l-101 -818 l-47 -193q-16 -49 -46 -76t-85 -27h-101zM690 1497h219q37 0 54.5 -14t28.5 -40l106 -249h-132q-27 0 -43 7.5t-30 28.5z" />
<glyph unicode="f&#xee;" horiz-adv-x="1150" d="M78 -253l136 1113l-80 14q-28 6 -43.5 20t-11.5 41l11 106h147l14 116q10 83 37 149t69.5 112t100.5 70t129 24q26 0 49 -2.5t43 -8.5l-16 -133q-2 -18 -18.5 -25t-38.5 -7q-53 0 -80.5 -42.5t-39.5 -136.5l-15 -116h604l-127 -1041h-248l106 861h-348l-101 -818 l-47 -193q-16 -49 -46 -76t-85 -27h-101zM662 1196l247 285h219l184 -285h-156q-13 0 -26 5.5t-25 20.5l-80 106q-5 5 -8.5 11.5t-8.5 13.5q-5 -7 -11.5 -13.5l-11.5 -11.5l-105 -106q-13 -13 -27.5 -19.5t-29.5 -6.5h-161z" />
<glyph unicode="f&#x129;" horiz-adv-x="1150" d="M75 0zM78 -253l136 1113l-80 14q-28 6 -43.5 20t-11.5 41l11 106h147l14 116q10 83 37 149t69.5 112t100.5 70t129 24q26 0 49 -2.5t43 -8.5l-16 -133q-2 -18 -18.5 -25t-38.5 -7q-53 0 -80.5 -42.5t-39.5 -136.5l-15 -116h604l-127 -1041h-248l106 861h-348l-101 -818 l-47 -193q-16 -49 -46 -76t-85 -27h-101zM678 1222q6 57 26.5 103.5t50.5 80t67 52t79 18.5q34 0 62 -13.5t52.5 -29t44.5 -28.5t38 -13q28 0 45.5 16.5t22.5 60.5h143q-7 -57 -27 -103.5t-49.5 -80t-66.5 -51t-79 -17.5q-34 0 -62 13t-52 28.5t-45 28.5t-39 13 q-28 0 -45 -17.5t-23 -60.5h-143z" />
<glyph unicode="f&#xef;" horiz-adv-x="1150" d="M78 -253l136 1113l-80 14q-28 6 -43.5 20t-11.5 41l11 106h147l14 116q10 83 37 149t69.5 112t100.5 70t129 24q26 0 49 -2.5t43 -8.5l-16 -133q-2 -18 -18.5 -25t-38.5 -7q-53 0 -80.5 -42.5t-39.5 -136.5l-15 -116h604l-127 -1041h-248l106 861h-348l-101 -818 l-47 -193q-16 -49 -46 -76t-85 -27h-101zM697 1324q0 27 10.5 50t27.5 40.5t40 27.5t47 10q27 0 50.5 -10t41 -27.5t27.5 -40.5t10 -50q0 -26 -10 -48t-27.5 -38.5t-41 -26.5t-50.5 -10q-25 0 -47.5 10t-39.5 26.5t-27.5 38.5t-10.5 48zM1011 1324q0 27 9.5 50t27 40.5 t40 27.5t49.5 10t49.5 -10t40 -27.5t28 -40.5t10.5 -50q0 -26 -10.5 -48t-28 -38.5t-40.5 -26.5t-49 -10q-27 0 -49.5 10t-40 26.5t-27 38.5t-9.5 48z" />
<glyph unicode="f&#x12b;" horiz-adv-x="1150" d="M75 0zM78 -253l136 1113l-80 14q-28 6 -43.5 20t-11.5 41l11 106h147l14 116q10 83 37 149t69.5 112t100.5 70t129 24q26 0 49 -2.5t43 -8.5l-16 -133q-2 -18 -18.5 -25t-38.5 -7q-53 0 -80.5 -42.5t-39.5 -136.5l-15 -116h604l-127 -1041h-248l106 861h-348l-101 -818 l-47 -193q-16 -49 -46 -76t-85 -27h-101zM699 1243l17 162h564l-18 -162h-563z" />
<glyph unicode="f&#x12f;" horiz-adv-x="1150" d="M75 -255l137 1115l-78 14q-28 6 -43 20t-12 41l11 106h144l5 34q11 96 50.5 177.5t107 141.5t163.5 94t222 34q40 0 84.5 -5t74.5 -15l-25 -126q-5 -24 -28.5 -27t-56.5 -3q-92 0 -156.5 -17t-106 -51.5t-64 -86t-30.5 -121.5l-3 -29h604l-127 -1041h-32q-22 -11 -42 -27 t-36 -35t-25.5 -41t-9.5 -47q0 -26 13.5 -41t40.5 -15q16 0 27 2t18 5t12 5.5t10 2.5q18 0 21 -17l27 -93q-35 -23 -84 -37.5t-103 -14.5q-88 0 -133.5 37.5t-45.5 97.5t40 116t119 102h-65l106 861h-348l-100 -819l-52 -193q-15 -49 -45 -76.5t-85 -27.5h-101z" />
<glyph unicode="f&#x131;" horiz-adv-x="1150" d="M78 -253l136 1113l-80 14q-28 6 -43.5 20t-11.5 41l11 106h147l14 116q10 83 37 149t69.5 112t100.5 70t129 24q26 0 49 -2.5t43 -8.5l-16 -133q-2 -18 -18.5 -25t-38.5 -7q-53 0 -80.5 -42.5t-39.5 -136.5l-15 -116h604l-127 -1041h-248l106 861h-348l-101 -818 l-47 -193q-16 -49 -46 -76t-85 -27h-101z" />
<glyph unicode="ff&#xec;" horiz-adv-x="1761" d="M76 -253l137 1119l-80 15q-27 5 -42.5 19t-11.5 42l12 99h143l8 60q11 90 46.5 161.5t89.5 122t125 77t154 26.5q67 0 122 -20l-23 -131q-5 -24 -28 -27.5t-53 -3.5q-40 0 -73 -9t-57.5 -31.5t-41 -60.5t-23.5 -96l-9 -68h377l14 116q10 83 37.5 149t70.5 112t100.5 70 t128.5 24q25 0 48.5 -2.5t42.5 -8.5l-15 -133q-2 -18 -18.5 -25t-37.5 -7q-54 0 -82 -42.5t-38 -136.5l-16 -116h603l-127 -1041h-245l106 867h-350l-100 -824l-48 -193q-16 -49 -45.5 -76t-84.5 -27h-102l136 1120h-366l-100 -824l-52 -193q-16 -49 -45.5 -76t-84.5 -27 h-102zM1303 1497h219q37 0 54 -14t29 -40l105 -249h-132q-27 0 -42.5 7.5t-30.5 28.5z" />
<glyph unicode="ff&#xee;" horiz-adv-x="1761" d="M75 0zM76 -253l137 1119l-80 15q-27 5 -42.5 19t-11.5 42l12 99h143l8 60q11 90 46.5 161.5t89.5 122t125 77t154 26.5q67 0 122 -20l-23 -131q-5 -24 -28 -27.5t-53 -3.5q-40 0 -73 -9t-57.5 -31.5t-41 -60.5t-23.5 -96l-9 -68h377l14 116q10 83 37.5 149t70.5 112 t100.5 70t128.5 24q25 0 48.5 -2.5t42.5 -8.5l-15 -133q-2 -18 -18.5 -25t-37.5 -7q-54 0 -82 -42.5t-38 -136.5l-16 -116h603l-127 -1041h-245l106 867h-350l-100 -824l-48 -193q-16 -49 -45.5 -76t-84.5 -27h-102l136 1120h-366l-100 -824l-52 -193q-16 -49 -45.5 -76 t-84.5 -27h-102zM1268 1196l248 285h219l184 -285h-156q-13 0 -26 5.5t-25 20.5l-80 106q-5 5 -8.5 11.5t-9.5 13.5q-5 -7 -11 -13.5t-11 -11.5l-106 -106q-13 -13 -27.5 -19.5t-28.5 -6.5h-162z" />
<glyph unicode="ff&#x129;" horiz-adv-x="1762" d="M75 0zM76 -253l137 1119l-80 15q-27 5 -42.5 19t-11.5 42l12 99h143l8 60q11 90 46.5 161.5t89.5 122t125 77t154 26.5q67 0 122 -20l-23 -131q-5 -24 -28 -27.5t-53 -3.5q-40 0 -73 -9t-57.5 -31.5t-41 -60.5t-23.5 -96l-9 -68h377l14 116q10 83 37.5 149t70.5 112 t100.5 70t128.5 24q25 0 48.5 -2.5t42.5 -8.5l-15 -133q-2 -18 -18.5 -25t-37.5 -7q-54 0 -82 -42.5t-38 -136.5l-16 -116h603l-127 -1041h-245l106 867h-350l-100 -824l-48 -193q-16 -49 -45.5 -76t-84.5 -27h-102l136 1120h-366l-100 -824l-52 -193q-16 -49 -45.5 -76 t-84.5 -27h-102zM1297 1222q6 57 26.5 103.5t50.5 80t67 52t79 18.5q34 0 62 -13.5t52.5 -29t44.5 -28.5t38 -13q28 0 45.5 16.5t22.5 60.5h143q-7 -57 -27 -103.5t-49.5 -80t-66.5 -51t-79 -17.5q-34 0 -62 13t-52 28.5t-45 28.5t-39 13q-28 0 -45 -17.5t-23 -60.5h-143z " />
<glyph unicode="ff&#xef;" horiz-adv-x="1761" d="M76 -253l137 1119l-80 15q-27 5 -42.5 19t-11.5 42l12 99h143l8 60q11 90 46.5 161.5t89.5 122t125 77t154 26.5q67 0 122 -20l-23 -131q-5 -24 -28 -27.5t-53 -3.5q-40 0 -73 -9t-57.5 -31.5t-41 -60.5t-23.5 -96l-9 -68h377l14 116q10 83 37.5 149t70.5 112t100.5 70 t128.5 24q25 0 48.5 -2.5t42.5 -8.5l-15 -133q-2 -18 -18.5 -25t-37.5 -7q-54 0 -82 -42.5t-38 -136.5l-16 -116h603l-127 -1041h-245l106 867h-350l-100 -824l-48 -193q-16 -49 -45.5 -76t-84.5 -27h-102l136 1120h-366l-100 -824l-52 -193q-16 -49 -45.5 -76t-84.5 -27 h-102zM1361 1324q0 27 10 50t27 40.5t40 27.5t48 10q27 0 50 -10t40 -27.5t27.5 -40.5t10.5 -50q0 -26 -10.5 -48t-27.5 -38.5t-40.5 -26.5t-49.5 -10q-25 0 -48 10t-40 26.5t-27 38.5t-10 48zM1673 1324q0 27 10 50t27 40.5t40 27.5t49 10q27 0 50 -10t40.5 -27.5 t27.5 -40.5t10 -50q0 -26 -10 -48t-27.5 -38.5t-40.5 -26.5t-50 -10t-49.5 10t-39.5 26.5t-27 38.5t-10 48z" />
<glyph unicode="ff&#x12b;" horiz-adv-x="1761" d="M75 0zM76 -253l137 1119l-80 15q-27 5 -42.5 19t-11.5 42l12 99h143l8 60q11 90 46.5 161.5t89.5 122t125 77t154 26.5q67 0 122 -20l-23 -131q-5 -24 -28 -27.5t-53 -3.5q-40 0 -73 -9t-57.5 -31.5t-41 -60.5t-23.5 -96l-9 -68h377l14 116q10 83 37.5 149t70.5 112 t100.5 70t128.5 24q25 0 48.5 -2.5t42.5 -8.5l-15 -133q-2 -18 -18.5 -25t-37.5 -7q-54 0 -82 -42.5t-38 -136.5l-16 -116h603l-127 -1041h-245l106 867h-350l-100 -824l-48 -193q-16 -49 -45.5 -76t-84.5 -27h-102l136 1120h-366l-100 -824l-52 -193q-16 -49 -45.5 -76 t-84.5 -27h-102zM1307 1243l17 162h564l-18 -162h-563z" />
<glyph unicode="ff&#x12f;" horiz-adv-x="1761" d="M76 -253l137 1119l-80 15q-27 5 -42.5 19t-11.5 42l12 99h143l8 60q11 90 46.5 161.5t89.5 122t125 77t154 26.5q67 0 122 -20l-23 -131q-5 -24 -28 -27.5t-53 -3.5q-40 0 -73 -9t-57.5 -31.5t-41 -60.5t-23.5 -96l-9 -68h376l4 34q11 96 50.5 177.5t107 141.5t164.5 94 t223 34q19 0 40.5 -1t42.5 -4t40.5 -6.5t33.5 -8.5l-24 -126q-5 -24 -28.5 -27t-55.5 -3q-93 0 -157.5 -17t-106 -51.5t-64 -86t-31.5 -121.5l-3 -29h603l-127 -1041h-36q-22 -11 -42.5 -27t-36.5 -35t-25.5 -41t-9.5 -47q0 -26 14 -41t40 -15q16 0 27 2t18.5 5t12 5.5 t9.5 2.5q18 0 21 -17l27 -93q-35 -23 -84 -37.5t-102 -14.5q-88 0 -134 37.5t-46 97.5t40 116t119 102h-57l106 867h-349l-100 -825l-52 -193q-15 -49 -45 -76.5t-86 -27.5h-101l138 1122h-365l-100 -824l-52 -193q-16 -49 -45.5 -76t-84.5 -27h-102z" />
<glyph unicode="ff&#x131;" horiz-adv-x="1762" d="M76 -253l137 1119l-80 15q-27 5 -42.5 19t-11.5 42l12 99h143l8 60q11 90 46.5 161.5t89.5 122t125 77t154 26.5q67 0 122 -20l-23 -131q-5 -24 -28 -27.5t-53 -3.5q-40 0 -73 -9t-57.5 -31.5t-41 -60.5t-23.5 -96l-9 -68h377l14 116q10 83 37.5 149t70.5 112t100.5 70 t128.5 24q25 0 48.5 -2.5t42.5 -8.5l-15 -133q-2 -18 -18.5 -25t-37.5 -7q-54 0 -82 -42.5t-38 -136.5l-16 -116h603l-127 -1041h-245l106 867h-350l-100 -824l-48 -193q-16 -49 -45.5 -76t-84.5 -27h-102l136 1120h-366l-100 -824l-52 -193q-16 -49 -45.5 -76t-84.5 -27 h-102z" />
<glyph unicode="fj" horiz-adv-x="1149" d="M76 -255l138 1121l-81 15q-27 5 -42.5 19t-11.5 42l12 99h145l4 34q11 96 50.5 177.5t107 141.5t163.5 94t222 34q40 0 84.5 -5t74.5 -15l-24 -126q-5 -24 -29 -27t-56 -3q-92 0 -157 -17t-106.5 -51.5t-64 -86t-30.5 -121.5l-3 -29h601l-130 -1077q-8 -69 -34 -129 t-69.5 -105.5t-105.5 -72t-143 -26.5q-41 0 -69.5 5t-57.5 15l24 136q5 20 19 26t49 6q34 0 58 7.5t40.5 24.5t26 44.5t14.5 68.5l109 903h-344l-101 -825l-52 -193q-15 -49 -45 -76.5t-85 -27.5h-101z" />
<glyph unicode="ffj" horiz-adv-x="1763" d="M76 -253l137 1119l-80 15q-27 5 -42.5 19t-11.5 42l12 99h143l8 60q11 90 46.5 161.5t89.5 122t125 77t154 26.5q67 0 122 -20l-23 -131q-5 -24 -28 -27.5t-53 -3.5q-40 0 -73 -9t-57.5 -31.5t-41 -60.5t-23.5 -96l-9 -68h376l4 34q11 96 50.5 177.5t107 141.5t164.5 94 t223 34q19 0 40.5 -1t42.5 -4t40.5 -6.5t33.5 -8.5l-24 -126q-5 -24 -28.5 -27t-55.5 -3q-93 0 -157.5 -17t-106 -51.5t-64 -86t-31.5 -121.5l-3 -29h604l-131 -1078q-8 -69 -33.5 -129t-69.5 -105.5t-106 -72t-143 -26.5q-40 0 -69 5.5t-58 14.5l25 136q6 20 19.5 26.5 t47.5 6.5q35 0 59 7t40 24t26 44.5t15 68.5l108 904h-346l-100 -825l-52 -193q-15 -49 -45 -76.5t-86 -27.5h-101l138 1122h-365l-100 -824l-52 -193q-16 -49 -45.5 -76t-84.5 -27h-102z" />
<glyph unicode="fk" horiz-adv-x="1709" d="M75 -255l137 1115l-78 14q-28 6 -43.5 20t-11.5 41l12 106h143l11 81q10 84 45.5 160.5t94.5 135t142.5 93t190.5 34.5q62 0 122 -3.5t115 -7.5t103 -7.5t87 -4.5h18l-106 -872h25q24 0 39 7.5t31 26.5l280 323q17 22 36.5 33t49.5 11h225l-346 -391q-37 -45 -80 -70 q19 -14 33 -34.5t25 -45.5l259 -510h-219q-28 0 -46 9.5t-30 35.5l-203 398q-11 24 -24 31t-42 7h-35l-58 -481h-250l167 1360q-41 8 -81 15.5t-78 7.5q-52 0 -96 -18t-77 -52t-53.5 -82.5t-26.5 -108.5l-9 -81h235l-21 -180h-227l-102 -819l-52 -193q-15 -49 -45 -76.5 t-85 -27.5h-101z" />
<glyph unicode="ffk" horiz-adv-x="2322" d="M76 -253l136 1117l-80 15q-27 5 -42 19t-12 42l12 98h143l9 63q11 90 46.5 161.5t89.5 122t125 77t154 26.5q67 0 122 -20l-23 -131q-5 -24 -28 -27.5t-53 -3.5q-40 0 -73 -9t-57.5 -31.5t-41 -60.5t-23.5 -96l-9 -71h375l10 84q10 84 45.5 160.5t95 135t143 93 t189.5 34.5q62 0 122 -3.5t115 -7.5t103.5 -7.5t87.5 -4.5h18l-107 -872h26q24 0 38.5 7.5t30.5 26.5l280 323q17 22 36.5 33t49.5 11h225l-346 -391q-37 -45 -80 -70q19 -14 33 -34.5t26 -45.5l259 -510h-220q-28 0 -46 9.5t-29 35.5l-204 398q-11 24 -24 31t-42 7h-34 l-59 -481h-250l167 1360q-40 8 -80.5 15.5t-77.5 7.5q-52 0 -96.5 -18t-76.5 -52t-52.5 -82.5t-26.5 -108.5l-11 -84h245l-22 -173h-236l-101 -823l-51 -193q-16 -49 -46 -76.5t-86 -27.5h-101l138 1120h-365l-100 -822l-51 -193q-16 -49 -46 -76t-85 -27h-101z" />
<glyph unicode="ft" horiz-adv-x="1377" d="M77 -253l135 1119l-79 15q-27 5 -42.5 19t-11.5 42l12 99h142l10 78q11 90 47.5 162t92 122t128 76.5t156.5 26.5q67 0 121 -19l-23 -131q-2 -11 -9 -18t-18.5 -10t-25.5 -4t-28 -1q-42 0 -76 -11.5t-60 -36.5t-43 -65.5t-24 -98.5l-8 -70h396l85 288q7 20 21.5 31.5 t35.5 11.5h136l-41 -331h254l-21 -174h-255l-57 -464q-5 -42 -8 -66.5t-4.5 -38t-2 -19.5t-0.5 -8q0 -39 19 -61.5t54 -22.5q22 0 37 6t26.5 12t20.5 11.5t17 5.5q11 0 17 -5.5t11 -16.5l56 -123q-57 -46 -125.5 -69.5t-137.5 -23.5q-112 0 -177 60t-69 170q0 7 0.5 17t2 29 t4.5 50t9 80l60 477h-376l-101 -824l-52 -193q-15 -49 -45 -76t-85 -27h-101z" />
<glyph unicode="fft" horiz-adv-x="1990" d="M76 -253l136 1117l-79 15q-27 5 -42.5 19t-11.5 42l12 98h141l9 63q11 90 47 161.5t90 122t125 77t154 26.5q66 0 121 -20l-22 -131q-3 -11 -11 -17.5t-18.5 -9.5t-24.5 -3.5t-28 -0.5q-40 0 -73 -9t-57.5 -31.5t-41 -60.5t-23.5 -96l-9 -71h369l12 97q11 90 47.5 161.5 t92.5 121.5t128.5 77t156.5 27q63 0 121 -19l-23 -132q-3 -11 -10.5 -17.5t-18.5 -10t-24.5 -4t-28.5 -0.5q-41 0 -74.5 -11t-59 -36t-42.5 -66t-24 -100l-11 -88h401l86 291q7 20 21.5 31.5t35.5 11.5h135l-41 -334h255l-22 -173h-254l-58 -462q-5 -42 -8 -66.5t-4.5 -38 t-2 -19.5t-0.5 -8q0 -39 19 -61.5t55 -22.5q22 0 37 6t26.5 12t20 11.5t16.5 5.5q11 0 18 -5.5t12 -16.5l54 -123q-57 -46 -125 -69.5t-138 -23.5q-112 0 -177 60t-69 170q0 7 0.5 17t2 29t4.5 50t10 80l59 475h-382l-99 -822l-53 -193q-15 -49 -44.5 -76t-85.5 -27h-101 l133 1118h-359l-100 -822l-52 -193q-15 -49 -45 -76t-85 -27h-101z" />
<glyph unicode="tf" horiz-adv-x="1337" d="M70 916l12 98l157 26l85 289q7 20 21 31.5t36 11.5h135l-41 -334h405l10 79q11 90 47 162.5t91.5 122.5t128.5 76.5t157 26.5q33 0 63 -5t59 -14l-24 -132q-5 -24 -28.5 -28t-52.5 -4q-42 0 -75.5 -11.5t-60 -36.5t-43.5 -66t-25 -99l-8 -71h249l-21 -173h-240l-100 -823 l-52 -193q-16 -49 -45.5 -76.5t-85.5 -27.5h-101l136 1120h-405l-58 -462q-5 -42 -8 -66.5t-4.5 -38t-1.5 -19.5v-8q0 -39 19 -61.5t54 -22.5q22 0 37 6t26 12t20 11.5t17 5.5q11 0 18 -5.5t12 -16.5l54 -123q-56 -46 -125 -69.5t-138 -23.5q-112 0 -177 60t-68 170v17 t1.5 29t5 50t9.5 80l59 475h-94q-20 0 -32 13t-10 38z" />
<glyph unicode="t&#x12f;" horiz-adv-x="1231" d="M70 916l12 98l157 26l85 289q7 20 21 31.5t36 11.5h135l-41 -334h681l-20 -173h-1l-106 -865h-21q-22 -11 -43 -27t-37 -35.5t-26 -42t-10 -47.5q0 -27 15 -43t41 -16q17 0 28.5 2.5t19.5 5.5t12.5 5.5t9.5 2.5q17 0 20 -16l26 -90q-34 -23 -82.5 -37.5t-100.5 -14.5 q-87 0 -132.5 37.5t-45.5 96.5q0 61 41 117t118 102h-77l107 865h-438l-58 -462q-5 -42 -8 -66.5t-4.5 -38t-1.5 -19.5v-8q0 -39 19 -61.5t54 -22.5q22 0 37 6t26 12t20 11.5t17 5.5q11 0 18 -5.5t12 -16.5l54 -123q-56 -46 -125 -69.5t-138 -23.5q-112 0 -177 60t-68 170 v17t1.5 29t5 50t9.5 80l59 475h-94q-20 0 -32 13t-10 38zM916 1357q0 33 13.5 62.5t35 51.5t49 35t57.5 13q31 0 59.5 -13t50.5 -34.5t35.5 -51t13.5 -63.5q0 -33 -14 -61.5t-36 -50t-50.5 -34.5t-59.5 -13q-30 0 -57.5 13t-49 34.5t-34.5 50t-13 61.5z" />
<glyph unicode="t&#x131;" horiz-adv-x="1230" d="M69 916l12 98l156 26l86 289q6 20 20 31.5t36 11.5h136l-41 -334h681l-21 -173l-107 -865h-244l107 865h-437l-58 -462q-5 -42 -8 -66.5t-4.5 -38t-2 -19.5t-0.5 -8q0 -39 19 -61.5t54 -22.5q22 0 37 6t26 12t20.5 11.5t17.5 5.5q11 0 17.5 -5.5t11.5 -16.5l55 -123 q-57 -46 -125.5 -69.5t-137.5 -23.5q-112 0 -177 60t-69 170v17t1.5 29t5 50t9.5 80l59 475h-94q-20 0 -32 13t-9 38z" />
<glyph unicode="tt" horiz-adv-x="1372" d="M69 916l12 98l156 26l86 289q6 20 20 31.5t36 11.5h136l-41 -334h389l86 291q7 20 21.5 31.5t36.5 11.5h135l-41 -334h251l-22 -173h-251l-57 -462q-5 -42 -8 -66.5t-4.5 -38t-2 -19.5t-0.5 -8q0 -39 18.5 -61.5t54.5 -22.5q22 0 37 6t26.5 12t20 11.5t17.5 5.5 q11 0 17.5 -5.5t11.5 -16.5l55 -123q-57 -46 -125.5 -69.5t-138.5 -23.5q-112 0 -176.5 60t-68.5 170q0 7 0.5 17t2 29t4.5 50t9 80l59 475h-378l-58 -462q-5 -42 -8 -66.5t-4.5 -38t-2 -19.5t-0.5 -8q0 -39 19 -61.5t54 -22.5q22 0 37 6t26 12t20.5 11.5t17.5 5.5 q11 0 17.5 -5.5t11.5 -16.5l55 -123q-57 -46 -125.5 -69.5t-137.5 -23.5q-112 0 -177 60t-69 170v17t1.5 29t5 50t9.5 80l59 475h-94q-20 0 -32 13t-9 38z" />
<glyph unicode="ttf" horiz-adv-x="1964" d="M70 916l12 98l157 26l85 289q7 20 21 31.5t36 11.5h135l-41 -334h389l86 291q7 20 21.5 31.5t36.5 11.5h135l-41 -334h404l11 79q11 90 46.5 162.5t91.5 122.5t129 76.5t156 26.5q33 0 63.5 -5t58.5 -14l-23 -132q-5 -24 -28.5 -28t-52.5 -4q-42 0 -76.5 -11.5 t-60.5 -36.5t-43 -66t-24 -99l-8 -71h248l-22 -173h-238l-101 -823l-51 -193q-16 -49 -46 -76.5t-85 -27.5h-101l136 1120h-406l-57 -462q-5 -42 -8 -66.5t-4.5 -38t-1.5 -19.5v-8q0 -39 19 -61.5t53 -22.5q22 0 37.5 6t26.5 12t20.5 11.5t17.5 5.5q11 0 17 -5.5t11 -16.5 l55 -123q-56 -46 -124.5 -69.5t-139.5 -23.5q-112 0 -176.5 60t-67.5 170v17t1.5 29t5 50t9.5 80l59 475h-379l-58 -462q-5 -42 -8 -66.5t-4.5 -38t-1.5 -19.5v-8q0 -39 19 -61.5t54 -22.5q22 0 37 6t26 12t20 11.5t17 5.5q11 0 18 -5.5t12 -16.5l54 -123 q-56 -46 -125 -69.5t-138 -23.5q-112 0 -177 60t-68 170v17t1.5 29t5 50t9.5 80l59 475h-94q-20 0 -32 13t-10 38z" />
<glyph unicode="tt&#x12f;" horiz-adv-x="1840" d="M70 916l12 98l157 26l85 289q7 20 21 31.5t36 11.5h135l-41 -334h389l86 291q7 20 21.5 31.5t36.5 11.5h135l-41 -334h662l-21 -173l-107 -864l10 -1q-22 -11 -42.5 -27t-36.5 -35t-25.5 -41t-9.5 -47q0 -26 14 -41t40 -15q16 0 27 2t18 5t12 5.5t10 2.5q18 0 21 -17 l27 -93q-35 -23 -84 -37.5t-103 -14.5q-88 0 -133.5 37.5t-45.5 97.5t40 116t119 102h-101l106 865h-419l-57 -462q-5 -42 -8 -66.5t-4.5 -38t-1.5 -19.5v-8q0 -39 19 -61.5t53 -22.5q22 0 37.5 6t26.5 12t20.5 11.5t17.5 5.5q11 0 17 -5.5t11 -16.5l55 -123 q-56 -46 -124.5 -69.5t-139.5 -23.5q-112 0 -176.5 60t-67.5 170v17t1.5 29t5 50t9.5 80l59 475h-379l-58 -462q-5 -42 -8 -66.5t-4.5 -38t-1.5 -19.5v-8q0 -39 19 -61.5t54 -22.5q22 0 37 6t26 12t20 11.5t17 5.5q11 0 18 -5.5t12 -16.5l54 -123q-56 -46 -125 -69.5 t-138 -23.5q-112 0 -177 60t-68 170v17t1.5 29t5 50t9.5 80l59 475h-94q-20 0 -32 13t-10 38zM1526 1357q0 33 12.5 62.5t34 51.5t50 35t57.5 13q31 0 59.5 -13t50.5 -34.5t35.5 -51t13.5 -63.5q0 -33 -14 -61.5t-36 -50t-50.5 -34.5t-59.5 -13q-30 0 -57.5 13t-49 34.5 t-34 50t-12.5 61.5z" />
<glyph unicode="tt&#x131;" horiz-adv-x="1838" d="M69 916l12 98l156 26l86 289q6 20 20 31.5t36 11.5h136l-41 -334h389l86 291q6 20 21 31.5t36 11.5h136l-41 -334h661l-127 -1038h-243l105 865h-418l-57 -462q-5 -42 -8 -66.5t-4.5 -38t-2 -19.5t-0.5 -8q0 -39 18.5 -61.5t54.5 -22.5q22 0 37 6t26.5 12t20 11.5 t17.5 5.5q11 0 17 -5.5t11 -16.5l56 -123q-57 -46 -125.5 -69.5t-138.5 -23.5q-112 0 -176.5 60t-68.5 170q0 7 0.5 17t2 29t4.5 50t9 80l58 475h-377l-58 -462q-5 -42 -8 -66.5t-4.5 -38t-2 -19.5t-0.5 -8q0 -39 19 -61.5t54 -22.5q22 0 37 6t26 12t20.5 11.5t17.5 5.5 q11 0 17.5 -5.5t11.5 -16.5l55 -123q-57 -46 -125.5 -69.5t-137.5 -23.5q-112 0 -177 60t-69 170v17t1.5 29t5 50t9.5 80l59 475h-94q-20 0 -32 13t-9 38z" />
<glyph unicode="f&#x237;" horiz-adv-x="1149" d="M77 -253l137 1119l-81 15q-27 5 -42.5 19t-11.5 42l12 99h145l14 116q10 83 37 149t69.5 112t100.5 70t130 24q25 0 48 -2.5t43 -8.5l-16 -133q-2 -18 -18 -25t-39 -7q-53 0 -80.5 -42.5t-39.5 -136.5l-14 -116h602l-130 -1077q-8 -69 -34 -129t-69.5 -105.5t-105.5 -72 t-143 -26.5q-41 0 -69.5 5t-57.5 15l24 136q5 20 19 26t49 6q34 0 58 7.5t40.5 24.5t26 44.5t14.5 68.5l109 903h-346l-101 -824l-48 -193q-16 -49 -45.5 -76t-84.5 -27h-102z" />
<glyph unicode="ff&#x237;" horiz-adv-x="1763" d="M76 -253l137 1119l-80 15q-27 5 -42.5 19t-11.5 42l12 99h143l8 60q11 90 46.5 161.5t89.5 122t125 77t154 26.5q67 0 122 -20l-23 -131q-5 -24 -28 -27.5t-53 -3.5q-40 0 -73 -9t-57.5 -31.5t-41 -60.5t-23.5 -96l-9 -68h376l14 116q10 83 37.5 149t70.5 112t100.5 70 t128.5 24q26 0 49.5 -2.5t42.5 -8.5l-16 -133q-2 -18 -18.5 -25t-37.5 -7q-53 0 -81.5 -42.5t-38.5 -136.5l-16 -116h605l-131 -1078q-8 -69 -33.5 -129t-69.5 -105.5t-106 -72t-143 -26.5q-40 0 -69 5.5t-58 14.5l25 136q6 20 19.5 26.5t47.5 6.5q35 0 59 7t40 24t26 44.5 t15 68.5l108 904h-347l-101 -824l-48 -193q-15 -49 -45 -76t-85 -27h-102l136 1120h-365l-100 -824l-52 -193q-16 -49 -45.5 -76t-84.5 -27h-102z" />
<glyph unicode="f&#x135;" horiz-adv-x="1149" d="M75 0zM77 -253l137 1119l-81 15q-27 5 -42.5 19t-11.5 42l12 99h145l14 116q10 83 37 149t69.5 112t100.5 70t130 24q25 0 48 -2.5t43 -8.5l-16 -133q-2 -18 -18 -25t-39 -7q-53 0 -80.5 -42.5t-39.5 -136.5l-14 -116h602l-130 -1077q-8 -69 -34 -129t-69.5 -105.5 t-105.5 -72t-143 -26.5q-41 0 -69.5 5t-57.5 15l24 136q5 20 19 26t49 6q34 0 58 7.5t40.5 24.5t26 44.5t14.5 68.5l109 903h-346l-101 -824l-48 -193q-16 -49 -45.5 -76t-84.5 -27h-102zM656 1196l248 285h219l184 -285h-156q-13 0 -26 5.5t-25 20.5l-80 106 q-5 5 -8.5 11.5t-9.5 13.5q-5 -7 -11 -13.5t-11 -11.5l-106 -106q-13 -13 -27.5 -19.5t-28.5 -6.5h-162z" />
<glyph unicode="f&#x13e;" horiz-adv-x="1170" d="M75 -255l136 1115l-77 14q-28 6 -43.5 20t-11.5 41l12 106h141l7 46q10 84 43.5 160.5t91 135t139 92.5t185.5 34q87 0 164 -6t156 -6h140l-184 -1497h-245l160 1317q-44 5 -88 9.5t-85 4.5q-102 0 -164.5 -61.5t-74.5 -182.5l-5 -46h222l-21 -180h-213l-102 -819 l-52 -193q-15 -49 -45 -76.5t-85 -27.5h-101zM1177 1170l102 353h139q24 0 30 -10.5t6 -20.5q0 -9 -3.5 -23t-16.5 -43t-38 -79.5t-68 -131.5q-16 -30 -36.5 -37.5t-53.5 -7.5h-61z" />
<glyph unicode="f&#x13c;" horiz-adv-x="1170" d="M75 0zM75 -255l136 1115l-77 14q-28 6 -43.5 20t-11.5 41l12 106h141l7 46q10 84 43.5 160.5t91 135t139 92.5t185.5 34q87 0 164 -6t156 -6h140l-184 -1497h-245l160 1317q-44 5 -88 9.5t-85 4.5q-102 0 -164.5 -61.5t-74.5 -182.5l-5 -46h222l-21 -180h-213l-102 -819 l-52 -193q-15 -49 -45 -76.5t-85 -27.5h-101zM669 -397l85 305h155q24 0 30 -10.5t6 -20.5q0 -11 -4 -28.5t-14 -44t-29 -65t-48 -91.5q-16 -29 -37.5 -37t-54.5 -8h-89z" />
<glyph unicode="f&#x21b;" horiz-adv-x="1377" d="M75 0zM77 -253l135 1119l-79 15q-27 5 -42.5 19t-11.5 42l12 99h142l10 78q11 90 47.5 162t92 122t128 76.5t156.5 26.5q67 0 121 -19l-23 -131q-2 -11 -9 -18t-18.5 -10t-25.5 -4t-28 -1q-42 0 -76 -11.5t-60 -36.5t-43 -65.5t-24 -98.5l-8 -70h396l85 288 q7 20 21.5 31.5t35.5 11.5h136l-41 -331h254l-21 -174h-255l-57 -464q-5 -42 -8 -66.5t-4.5 -38t-2 -19.5t-0.5 -8q0 -39 19 -61.5t54 -22.5q22 0 37 6t26.5 12t20.5 11.5t17 5.5q11 0 17 -5.5t11 -16.5l56 -123q-57 -46 -125.5 -69.5t-137.5 -23.5q-112 0 -177 60t-69 170 q0 7 0.5 17t2 29t4.5 50t9 80l60 477h-376l-101 -824l-52 -193q-15 -49 -45 -76t-85 -27h-101zM795 -397l85 305h155q24 0 30 -10.5t6 -20.5q0 -11 -4 -28.5t-14 -44t-29 -65t-48 -91.5q-16 -29 -37.5 -37t-54.5 -8h-89z" />
<glyph unicode="f&#x165;" horiz-adv-x="1377" d="M77 -253l135 1119l-79 15q-27 5 -42.5 19t-11.5 42l12 99h142l10 78q11 90 47.5 162t92 122t128 76.5t156.5 26.5q67 0 121 -19l-23 -131q-2 -11 -9 -18t-18.5 -10t-25.5 -4t-28 -1q-42 0 -76 -11.5t-60 -36.5t-43 -65.5t-24 -98.5l-8 -70h396l85 288q7 20 21.5 31.5 t35.5 11.5h136l-41 -331h254l-21 -174h-255l-57 -464q-5 -42 -8 -66.5t-4.5 -38t-2 -19.5t-0.5 -8q0 -39 19 -61.5t54 -22.5q22 0 37 6t26.5 12t20.5 11.5t17 5.5q11 0 17 -5.5t11 -16.5l56 -123q-57 -46 -125.5 -69.5t-137.5 -23.5q-112 0 -177 60t-69 170q0 7 0.5 17t2 29 t4.5 50t9 80l60 477h-376l-101 -824l-52 -193q-15 -49 -45 -76t-85 -27h-101zM1192 1170l102 353h141q23 0 29 -10.5t6 -20.5q0 -9 -3.5 -23t-16 -43t-37.5 -79.5t-68 -131.5q-16 -30 -37.5 -37.5t-53.5 -7.5h-62z" />
<glyph unicode="f&#xed;" horiz-adv-x="1150" d="M75 0zM78 -253l136 1113l-80 14q-28 6 -43.5 20t-11.5 41l11 106h147l14 116q10 83 37 149t69.5 112t100.5 70t129 24q26 0 49 -2.5t43 -8.5l-16 -133q-2 -18 -18.5 -25t-38.5 -7q-53 0 -80.5 -42.5t-39.5 -136.5l-15 -116h604l-127 -1041h-248l106 861h-348l-101 -818 l-47 -193q-16 -49 -46 -76t-85 -27h-101zM833 1194l162 249q17 27 37.5 40.5t58.5 13.5h225l-263 -267q-19 -20 -36.5 -28t-44.5 -8h-139z" />
<glyph unicode="ff&#xed;" horiz-adv-x="1761" d="M75 0zM76 -253l137 1119l-80 15q-27 5 -42.5 19t-11.5 42l12 99h143l8 60q11 90 46.5 161.5t89.5 122t125 77t154 26.5q67 0 122 -20l-23 -131q-5 -24 -28 -27.5t-53 -3.5q-40 0 -73 -9t-57.5 -31.5t-41 -60.5t-23.5 -96l-9 -68h377l14 116q10 83 37.5 149t70.5 112 t100.5 70t128.5 24q25 0 48.5 -2.5t42.5 -8.5l-15 -133q-2 -18 -18.5 -25t-37.5 -7q-54 0 -82 -42.5t-38 -136.5l-16 -116h603l-127 -1041h-245l106 867h-350l-100 -824l-48 -193q-16 -49 -45.5 -76t-84.5 -27h-102l136 1120h-366l-100 -824l-52 -193q-16 -49 -45.5 -76 t-84.5 -27h-102zM1453 1194l162 249q17 27 37.5 40.5t58.5 13.5h225l-263 -267q-19 -20 -36.5 -28t-44.5 -8h-139z" />
<glyph unicode="f&#x13a;" horiz-adv-x="1170" d="M75 0zM75 -255l136 1115l-77 14q-28 6 -43.5 20t-11.5 41l12 106h141l7 46q10 84 43.5 160.5t91 135t139 92.5t185.5 34q87 0 164 -6t156 -6h140l-184 -1497h-245l160 1317q-44 5 -88 9.5t-85 4.5q-102 0 -164.5 -61.5t-74.5 -182.5l-5 -46h222l-21 -180h-213l-102 -819 l-52 -193q-15 -49 -45 -76.5t-85 -27.5h-101zM935 1586l228 278q11 14 21.5 22.5t22 13t25.5 5.5t32 1h258l-337 -293q-22 -18 -39 -22.5t-43 -4.5h-168z" />
<glyph unicode="ti" horiz-adv-x="1230" d="M66 0zM69 916l12 98l156 26l86 289q6 20 20 31.5t36 11.5h136l-41 -334h681l-21 -173l-107 -865h-244l107 865h-437l-58 -462q-5 -42 -8 -66.5t-4.5 -38t-2 -19.5t-0.5 -8q0 -39 19 -61.5t54 -22.5q22 0 37 6t26 12t20.5 11.5t17.5 5.5q11 0 17.5 -5.5t11.5 -16.5 l55 -123q-57 -46 -125.5 -69.5t-137.5 -23.5q-112 0 -177 60t-69 170v17t1.5 29t5 50t9.5 80l59 475h-94q-20 0 -32 13t-9 38zM928 1357q0 33 13 62.5t34.5 51.5t50 35t57.5 13q31 0 60 -13t51 -34.5t35 -51t13 -63.5q0 -33 -13.5 -61.5t-36 -50t-51 -34.5t-59.5 -13 q-30 0 -58 13t-49.5 34.5t-34 50t-12.5 61.5z" />
<glyph unicode="t&#xec;" horiz-adv-x="1230" d="M66 0zM69 916l12 98l156 26l86 289q6 20 20 31.5t36 11.5h136l-41 -334h681l-21 -173l-107 -865h-244l107 865h-437l-58 -462q-5 -42 -8 -66.5t-4.5 -38t-2 -19.5t-0.5 -8q0 -39 19 -61.5t54 -22.5q22 0 37 6t26 12t20.5 11.5t17.5 5.5q11 0 17.5 -5.5t11.5 -16.5 l55 -123q-57 -46 -125.5 -69.5t-137.5 -23.5q-112 0 -177 60t-69 170v17t1.5 29t5 50t9.5 80l59 475h-94q-20 0 -32 13t-9 38zM770 1497h219q37 0 54.5 -14t28.5 -40l105 -249h-132q-27 0 -42.5 7.5t-30.5 28.5z" />
<glyph unicode="t&#xed;" horiz-adv-x="1230" d="M66 0zM69 916l12 98l156 26l86 289q6 20 20 31.5t36 11.5h136l-41 -334h681l-21 -173l-107 -865h-244l107 865h-437l-58 -462q-5 -42 -8 -66.5t-4.5 -38t-2 -19.5t-0.5 -8q0 -39 19 -61.5t54 -22.5q22 0 37 6t26 12t20.5 11.5t17.5 5.5q11 0 17.5 -5.5t11.5 -16.5 l55 -123q-57 -46 -125.5 -69.5t-137.5 -23.5q-112 0 -177 60t-69 170v17t1.5 29t5 50t9.5 80l59 475h-94q-20 0 -32 13t-9 38zM932 1194l162 249q17 27 37.5 40.5t58.5 13.5h225l-263 -267q-19 -20 -36.5 -28t-44.5 -8h-139z" />
<glyph unicode="t&#xee;" horiz-adv-x="1229" d="M66 0zM69 916l12 98l156 26l86 289q6 20 20 31.5t36 11.5h136l-41 -334h681l-21 -173l-107 -865h-244l107 865h-437l-58 -462q-5 -42 -8 -66.5t-4.5 -38t-2 -19.5t-0.5 -8q0 -39 19 -61.5t54 -22.5q22 0 37 6t26 12t20.5 11.5t17.5 5.5q11 0 17.5 -5.5t11.5 -16.5 l55 -123q-57 -46 -125.5 -69.5t-137.5 -23.5q-112 0 -177 60t-69 170v17t1.5 29t5 50t9.5 80l59 475h-94q-20 0 -32 13t-9 38zM740 1196l248 285h219l184 -285h-156q-13 0 -26 5.5t-25 20.5l-80 106q-5 5 -8.5 11.5t-9.5 13.5q-5 -7 -11 -13.5t-11 -11.5l-106 -106 q-13 -13 -27.5 -19.5t-28.5 -6.5h-162z" />
<glyph unicode="t&#xef;" horiz-adv-x="1229" d="M66 0zM69 916l12 98l156 26l86 289q6 20 20 31.5t36 11.5h136l-41 -334h681l-21 -173l-107 -865h-244l107 865h-437l-58 -462q-5 -42 -8 -66.5t-4.5 -38t-2 -19.5t-0.5 -8q0 -39 19 -61.5t54 -22.5q22 0 37 6t26 12t20.5 11.5t17.5 5.5q11 0 17.5 -5.5t11.5 -16.5 l55 -123q-57 -46 -125.5 -69.5t-137.5 -23.5q-112 0 -177 60t-69 170v17t1.5 29t5 50t9.5 80l59 475h-94q-20 0 -32 13t-9 38zM794 1323q0 30 11.5 56t30.5 45.5t44 30.5t53 11q30 0 55.5 -11t45.5 -30.5t31.5 -45.5t11.5 -56q0 -29 -11.5 -54t-31.5 -43.5t-46 -29 t-55 -10.5q-28 0 -53 10.5t-44 29t-30.5 43.5t-11.5 54zM1122 1323q0 30 11 56t30 45.5t45 30.5t54 11q29 0 55 -11t45.5 -30.5t31 -45.5t11.5 -56q0 -29 -11.5 -54t-31 -43.5t-45.5 -29t-55 -10.5t-54.5 10.5t-44.5 29t-30 43.5t-11 54z" />
<glyph unicode="t&#x12b;" horiz-adv-x="1230" d="M66 0zM69 916l12 98l156 26l86 289q6 20 20 31.5t36 11.5h136l-41 -334h681l-21 -173l-107 -865h-244l107 865h-437l-58 -462q-5 -42 -8 -66.5t-4.5 -38t-2 -19.5t-0.5 -8q0 -39 19 -61.5t54 -22.5q22 0 37 6t26 12t20.5 11.5t17.5 5.5q11 0 17.5 -5.5t11.5 -16.5 l55 -123q-57 -46 -125.5 -69.5t-137.5 -23.5q-112 0 -177 60t-69 170v17t1.5 29t5 50t9.5 80l59 475h-94q-20 0 -32 13t-9 38zM785 1243l17 162h564l-18 -162h-563z" />
<glyph unicode="t&#x129;" horiz-adv-x="1230" d="M66 0zM69 916l12 98l156 26l86 289q6 20 20 31.5t36 11.5h136l-41 -334h681l-21 -173l-107 -865h-244l107 865h-437l-58 -462q-5 -42 -8 -66.5t-4.5 -38t-2 -19.5t-0.5 -8q0 -39 19 -61.5t54 -22.5q22 0 37 6t26 12t20.5 11.5t17.5 5.5q11 0 17.5 -5.5t11.5 -16.5 l55 -123q-57 -46 -125.5 -69.5t-137.5 -23.5q-112 0 -177 60t-69 170v17t1.5 29t5 50t9.5 80l59 475h-94q-20 0 -32 13t-9 38zM767 1222q6 57 26.5 103.5t50.5 80t67 52t79 18.5q34 0 62 -13.5t52.5 -29t44.5 -28.5t38 -13q28 0 45.5 16.5t22.5 60.5h143q-7 -57 -27 -103.5 t-49.5 -80t-66.5 -51t-79 -17.5q-34 0 -62 13t-52 28.5t-45 28.5t-39 13q-28 0 -45 -17.5t-23 -60.5h-143z" />
<glyph unicode="tti" horiz-adv-x="1838" d="M66 0zM69 916l12 98l156 26l86 289q6 20 20 31.5t36 11.5h136l-41 -334h389l86 291q6 20 21 31.5t36 11.5h136l-41 -334h661l-127 -1038h-243l105 865h-418l-57 -462q-5 -42 -8 -66.5t-4.5 -38t-2 -19.5t-0.5 -8q0 -39 18.5 -61.5t54.5 -22.5q22 0 37 6t26.5 12t20 11.5 t17.5 5.5q11 0 17 -5.5t11 -16.5l56 -123q-57 -46 -125.5 -69.5t-138.5 -23.5q-112 0 -176.5 60t-68.5 170q0 7 0.5 17t2 29t4.5 50t9 80l58 475h-377l-58 -462q-5 -42 -8 -66.5t-4.5 -38t-2 -19.5t-0.5 -8q0 -39 19 -61.5t54 -22.5q22 0 37 6t26 12t20.5 11.5t17.5 5.5 q11 0 17.5 -5.5t11.5 -16.5l55 -123q-57 -46 -125.5 -69.5t-137.5 -23.5q-112 0 -177 60t-69 170v17t1.5 29t5 50t9.5 80l59 475h-94q-20 0 -32 13t-9 38zM1527 1357q0 33 13 62.5t34.5 51.5t50 35t57.5 13q31 0 60 -13t51 -34.5t35 -51t13 -63.5q0 -33 -13.5 -61.5t-36 -50 t-51 -34.5t-59.5 -13q-30 0 -58 13t-49.5 34.5t-34 50t-12.5 61.5z" />
<glyph unicode="tt&#xec;" horiz-adv-x="1838" d="M66 0zM69 916l12 98l156 26l86 289q6 20 20 31.5t36 11.5h136l-41 -334h389l86 291q6 20 21 31.5t36 11.5h136l-41 -334h661l-127 -1038h-243l105 865h-418l-57 -462q-5 -42 -8 -66.5t-4.5 -38t-2 -19.5t-0.5 -8q0 -39 18.5 -61.5t54.5 -22.5q22 0 37 6t26.5 12t20 11.5 t17.5 5.5q11 0 17 -5.5t11 -16.5l56 -123q-57 -46 -125.5 -69.5t-138.5 -23.5q-112 0 -176.5 60t-68.5 170q0 7 0.5 17t2 29t4.5 50t9 80l58 475h-377l-58 -462q-5 -42 -8 -66.5t-4.5 -38t-2 -19.5t-0.5 -8q0 -39 19 -61.5t54 -22.5q22 0 37 6t26 12t20.5 11.5t17.5 5.5 q11 0 17.5 -5.5t11.5 -16.5l55 -123q-57 -46 -125.5 -69.5t-137.5 -23.5q-112 0 -177 60t-69 170v17t1.5 29t5 50t9.5 80l59 475h-94q-20 0 -32 13t-9 38zM1371 1497h219q37 0 54.5 -14t28.5 -40l105 -249h-132q-27 0 -42.5 7.5t-30.5 28.5z" />
<glyph unicode="tt&#xed;" horiz-adv-x="1838" d="M66 0zM69 916l12 98l156 26l86 289q6 20 20 31.5t36 11.5h136l-41 -334h389l86 291q6 20 21 31.5t36 11.5h136l-41 -334h661l-127 -1038h-243l105 865h-418l-57 -462q-5 -42 -8 -66.5t-4.5 -38t-2 -19.5t-0.5 -8q0 -39 18.5 -61.5t54.5 -22.5q22 0 37 6t26.5 12t20 11.5 t17.5 5.5q11 0 17 -5.5t11 -16.5l56 -123q-57 -46 -125.5 -69.5t-138.5 -23.5q-112 0 -176.5 60t-68.5 170q0 7 0.5 17t2 29t4.5 50t9 80l58 475h-377l-58 -462q-5 -42 -8 -66.5t-4.5 -38t-2 -19.5t-0.5 -8q0 -39 19 -61.5t54 -22.5q22 0 37 6t26 12t20.5 11.5t17.5 5.5 q11 0 17.5 -5.5t11.5 -16.5l55 -123q-57 -46 -125.5 -69.5t-137.5 -23.5q-112 0 -177 60t-69 170v17t1.5 29t5 50t9.5 80l59 475h-94q-20 0 -32 13t-9 38zM1537 1194l162 249q17 27 37.5 40.5t58.5 13.5h225l-263 -267q-19 -20 -36.5 -28t-44.5 -8h-139z" />
<glyph unicode="tt&#xee;" horiz-adv-x="1838" d="M66 0zM69 916l12 98l156 26l86 289q6 20 20 31.5t36 11.5h136l-41 -334h389l86 291q6 20 21 31.5t36 11.5h136l-41 -334h661l-127 -1038h-243l105 865h-418l-57 -462q-5 -42 -8 -66.5t-4.5 -38t-2 -19.5t-0.5 -8q0 -39 18.5 -61.5t54.5 -22.5q22 0 37 6t26.5 12t20 11.5 t17.5 5.5q11 0 17 -5.5t11 -16.5l56 -123q-57 -46 -125.5 -69.5t-138.5 -23.5q-112 0 -176.5 60t-68.5 170q0 7 0.5 17t2 29t4.5 50t9 80l58 475h-377l-58 -462q-5 -42 -8 -66.5t-4.5 -38t-2 -19.5t-0.5 -8q0 -39 19 -61.5t54 -22.5q22 0 37 6t26 12t20.5 11.5t17.5 5.5 q11 0 17.5 -5.5t11.5 -16.5l55 -123q-57 -46 -125.5 -69.5t-137.5 -23.5q-112 0 -177 60t-69 170v17t1.5 29t5 50t9.5 80l59 475h-94q-20 0 -32 13t-9 38zM1337 1196l248 285h219l184 -285h-156q-13 0 -26 5.5t-25 20.5l-80 106q-5 5 -8.5 11.5t-9.5 13.5q-5 -7 -11 -13.5 t-11 -11.5l-106 -106q-13 -13 -27.5 -19.5t-28.5 -6.5h-162z" />
<glyph unicode="tt&#xef;" horiz-adv-x="1838" d="M66 0zM69 916l12 98l156 26l86 289q6 20 20 31.5t36 11.5h136l-41 -334h389l86 291q6 20 21 31.5t36 11.5h136l-41 -334h661l-127 -1038h-243l105 865h-418l-57 -462q-5 -42 -8 -66.5t-4.5 -38t-2 -19.5t-0.5 -8q0 -39 18.5 -61.5t54.5 -22.5q22 0 37 6t26.5 12t20 11.5 t17.5 5.5q11 0 17 -5.5t11 -16.5l56 -123q-57 -46 -125.5 -69.5t-138.5 -23.5q-112 0 -176.5 60t-68.5 170q0 7 0.5 17t2 29t4.5 50t9 80l58 475h-377l-58 -462q-5 -42 -8 -66.5t-4.5 -38t-2 -19.5t-0.5 -8q0 -39 19 -61.5t54 -22.5q22 0 37 6t26 12t20.5 11.5t17.5 5.5 q11 0 17.5 -5.5t11.5 -16.5l55 -123q-57 -46 -125.5 -69.5t-137.5 -23.5q-112 0 -177 60t-69 170v17t1.5 29t5 50t9.5 80l59 475h-94q-20 0 -32 13t-9 38zM1393 1323q0 30 11.5 56t30.5 45.5t44 30.5t53 11q30 0 55.5 -11t45.5 -30.5t31.5 -45.5t11.5 -56q0 -29 -11.5 -54 t-31.5 -43.5t-46 -29t-55 -10.5q-28 0 -53 10.5t-44 29t-30.5 43.5t-11.5 54zM1721 1323q0 30 11 56t30 45.5t45 30.5t54 11q29 0 55 -11t45.5 -30.5t31 -45.5t11.5 -56q0 -29 -11.5 -54t-31 -43.5t-45.5 -29t-55 -10.5t-54.5 10.5t-44.5 29t-30 43.5t-11 54z" />
<glyph unicode="tt&#x12b;" horiz-adv-x="1838" d="M66 0zM69 916l12 98l156 26l86 289q6 20 20 31.5t36 11.5h136l-41 -334h389l86 291q6 20 21 31.5t36 11.5h136l-41 -334h661l-127 -1038h-243l105 865h-418l-57 -462q-5 -42 -8 -66.5t-4.5 -38t-2 -19.5t-0.5 -8q0 -39 18.5 -61.5t54.5 -22.5q22 0 37 6t26.5 12t20 11.5 t17.5 5.5q11 0 17 -5.5t11 -16.5l56 -123q-57 -46 -125.5 -69.5t-138.5 -23.5q-112 0 -176.5 60t-68.5 170q0 7 0.5 17t2 29t4.5 50t9 80l58 475h-377l-58 -462q-5 -42 -8 -66.5t-4.5 -38t-2 -19.5t-0.5 -8q0 -39 19 -61.5t54 -22.5q22 0 37 6t26 12t20.5 11.5t17.5 5.5 q11 0 17.5 -5.5t11.5 -16.5l55 -123q-57 -46 -125.5 -69.5t-137.5 -23.5q-112 0 -177 60t-69 170v17t1.5 29t5 50t9.5 80l59 475h-94q-20 0 -32 13t-9 38zM1389 1243l17 162h564l-18 -162h-563z" />
<glyph unicode="tt&#x129;" horiz-adv-x="1838" d="M66 0zM69 916l12 98l156 26l86 289q6 20 20 31.5t36 11.5h136l-41 -334h389l86 291q6 20 21 31.5t36 11.5h136l-41 -334h661l-127 -1038h-243l105 865h-418l-57 -462q-5 -42 -8 -66.5t-4.5 -38t-2 -19.5t-0.5 -8q0 -39 18.5 -61.5t54.5 -22.5q22 0 37 6t26.5 12t20 11.5 t17.5 5.5q11 0 17 -5.5t11 -16.5l56 -123q-57 -46 -125.5 -69.5t-138.5 -23.5q-112 0 -176.5 60t-68.5 170q0 7 0.5 17t2 29t4.5 50t9 80l58 475h-377l-58 -462q-5 -42 -8 -66.5t-4.5 -38t-2 -19.5t-0.5 -8q0 -39 19 -61.5t54 -22.5q22 0 37 6t26 12t20.5 11.5t17.5 5.5 q11 0 17.5 -5.5t11.5 -16.5l55 -123q-57 -46 -125.5 -69.5t-137.5 -23.5q-112 0 -177 60t-69 170v17t1.5 29t5 50t9.5 80l59 475h-94q-20 0 -32 13t-9 38zM1366 1222q6 57 26.5 103.5t50.5 80t67 52t79 18.5q34 0 62 -13.5t52.5 -29t44.5 -28.5t38 -13q28 0 45.5 16.5 t22.5 60.5h143q-7 -57 -27 -103.5t-49.5 -80t-66.5 -51t-79 -17.5q-34 0 -62 13t-52 28.5t-45 28.5t-39 13q-28 0 -45 -17.5t-23 -60.5h-143z" />
<glyph horiz-adv-x="0" />
<glyph horiz-adv-x="0" />
<glyph unicode="&#xd;" horiz-adv-x="0" />
<glyph unicode=" "  horiz-adv-x="448" />
<glyph unicode="&#x09;" horiz-adv-x="448" />
<glyph unicode="&#xa0;" horiz-adv-x="448" />
<glyph unicode="!" horiz-adv-x="542" d="M65 139q0 32 11.5 60.5t32 49t49 33t61.5 12.5q32 0 60.5 -12.5t49.5 -33t33.5 -49t12.5 -60.5q0 -33 -12.5 -61t-33.5 -48.5t-49.5 -32t-60.5 -11.5q-33 0 -61.5 11.5t-49 32t-32 48.5t-11.5 61zM169 520q-2 101 0.5 191t14.5 183l72 587h228l-71 -587 q-11 -93 -32 -182.5t-47 -191.5h-165z" />
<glyph unicode="&#x22;" horiz-adv-x="760" d="M167 934zM167 1185l38 295h211l-37 -295l-41 -161q-11 -43 -32 -66.5t-64 -23.5q-36 0 -52 23.5t-20 66.5zM514 1185l38 295h211l-37 -295l-41 -161q-11 -43 -32 -66.5t-64 -23.5q-36 0 -52 23.5t-20 66.5z" />
<glyph unicode="#" d="M28 441.5q-14 22.5 1 76.5l22 77h197l90 291h-221l29 100q12 39 39 57t80 18h120l104 336q13 39 44.5 61t70.5 22h113l-132 -419h214l132 419h109q37 0 57 -24.5t8 -61.5l-105 -333h210l-32 -102q-11 -39 -38 -56t-79 -17h-108l-90 -291h151q37 0 51 -21.5t0 -76.5 l-24 -78h-224l-130 -419h-114q-17 0 -30.5 8t-21.5 22t-9.5 32.5t5.5 38.5l100 318h-216l-101 -330q-14 -49 -48 -69t-73 -20h-109l132 419h-122q-38 0 -52 22.5zM447 595h217l90 291h-215z" />
<glyph unicode="$" d="M16 178l89 112q11 14 29 23.5t37 9.5q22 0 45 -16.5t53 -38t70.5 -43.5t97.5 -32l97 470q-65 19 -127.5 44t-111.5 65t-80 100t-31 148q0 89 36 172t103.5 148t164 106.5t217.5 46.5l26 130q4 25 25 44t49 19h90l-41 -201q106 -17 179.5 -61t124.5 -100l-69 -89 q-16 -20 -31.5 -30t-35.5 -10q-15 0 -35 10t-45.5 24.5t-57.5 29t-72 23.5l-89 -433q66 -22 131 -47t116.5 -64t83 -95t31.5 -139q0 -100 -37 -191t-107 -160.5t-169.5 -114t-224.5 -52.5l-32 -155q-4 -24 -25 -42.5t-49 -18.5h-90l45 221q-118 15 -216.5 64t-163.5 123z M420 1074q0 -35 12 -61.5t33.5 -47.5t51.5 -38t65 -30l80 389q-65 -7 -111 -26.5t-75.5 -47.5t-42.5 -63.5t-13 -74.5zM589 189q126 14 192 82.5t66 172.5q0 35 -13 61.5t-36 47t-54 36t-68 28.5z" />
<glyph unicode="%" horiz-adv-x="1559" d="M68 0l1192 1441q14 14 33 26.5t50 12.5h178l-1194 -1443q-14 -15 -33.5 -26t-45.5 -11h-180zM133 1068q0 97 28.5 176t78.5 134.5t117 85.5t143 30q61 0 112.5 -22t87.5 -63.5t56 -99.5t20 -131q0 -98 -31.5 -176.5t-83.5 -133.5t-118.5 -84t-134.5 -29q-61 0 -112 22 t-87 63t-56 98.5t-20 129.5zM322 1068q0 -42 7.5 -71.5t22 -48t33.5 -27t43 -8.5q33 0 62 14t50.5 45.5t34 81.5t12.5 123q0 86 -30.5 122.5t-77.5 36.5q-34 0 -62.5 -14.5t-50 -47t-33 -83t-11.5 -123.5zM811 294q0 98 28.5 177.5t78.5 135t117 85.5t143 30q61 0 112 -22.5 t87.5 -64t56.5 -100t20 -131.5q0 -98 -31.5 -176t-83 -133t-118 -84t-135.5 -29q-61 0 -112 22.5t-87 63t-56 98t-20 128.5zM999 294q0 -83 30 -119t77 -36q34 0 62.5 14t50 45t34 81.5t12.5 123.5q0 86 -30.5 122.5t-76.5 36.5q-34 0 -63 -15t-50.5 -47t-33.5 -82.5 t-12 -123.5z" />
<glyph unicode="&#x26;" horiz-adv-x="1369" d="M43 357q0 79 25 149.5t69.5 129t105.5 105.5t132 80q-33 65 -48.5 128.5t-15.5 121.5q0 87 31 164.5t87 135t136.5 91.5t180.5 34q84 0 149.5 -26.5t109 -72t65.5 -105t21 -125.5l-147 -28q-31 -6 -47 2t-25 36q-6 28 -18 51.5t-30.5 42t-43 29t-56.5 10.5 q-43 0 -77.5 -17.5t-58.5 -48t-36.5 -70.5t-12.5 -87q0 -49 19 -101t60 -110l304 -394q34 61 58 128t37 138q5 24 17.5 38t36.5 14h171q-17 -136 -67 -259t-124 -226l243 -315h-211q-30 0 -51 3.5t-37.5 12.5t-30.5 22t-29 33l-53 69q-95 -74 -205 -115t-231 -41 q-94 0 -168.5 26t-127 74.5t-80 117.5t-27.5 155zM295 390q0 -99 52.5 -155.5t151.5 -56.5q74 0 141.5 30t127.5 82l-304 399q-91 -59 -130 -135.5t-39 -163.5z" />
<glyph unicode="'" horiz-adv-x="413" d="M167 1185l38 295h211l-37 -295l-41 -161q-11 -43 -32 -66.5t-64 -23.5q-36 0 -52 23.5t-20 66.5z" />
<glyph unicode="(" horiz-adv-x="545" d="M70 425q0 153 19 296.5t64 287t120.5 290.5t189.5 306l101 -65q9 -6 16.5 -14.5t10 -20t-1 -27t-17.5 -34.5q-67 -113 -120.5 -228.5t-91 -238.5t-57.5 -256t-20 -278q0 -71 6 -149.5t17.5 -157.5t29 -154.5t41.5 -140.5q15 -40 2 -61.5t-36 -34.5l-116 -64 q-42 87 -71.5 181t-48.5 189.5t-28 190.5t-9 183z" />
<glyph unicode=")" horiz-adv-x="544" d="M-41.5 -220q-2.5 11 1 26t16.5 35q68 113 121.5 230t91 241t57.5 256t20 273q0 71 -6 149.5t-18.5 158t-29.5 155t-40 140.5q-15 40 -2 61.5t36 34.5l116 65q41 -87 71 -181t49 -190t28 -191t9 -183q0 -153 -19 -296.5t-64 -287t-121 -290.5t-190 -305l-99 64 q-9 6 -17 15t-10.5 20z" />
<glyph unicode="*" horiz-adv-x="811" d="M151 1081l158 96q19 11 38.5 18.5t38.5 9.5q-39 6 -70 29l-136 96l71 100l136 -98q15 -10 28 -21t22 -25q-5 17 -5 35t2 39l25 190h115l-23 -188q-5 -43 -21 -75q25 26 63 45l159 96l45 -99l-159 -95q-41 -23 -75 -29q17 -3 34 -10t34 -18l135 -97l-69 -98l-136 96 q-15 10 -28.5 21t-22.5 23q8 -33 3 -71l-24 -191h-116l23 189q2 20 7 38t13 35q-13 -13 -28.5 -23t-33.5 -21l-158 -96z" />
<glyph unicode="+" d="M92 597l23 181h397l52 422h199l-52 -422h401l-23 -181h-400l-52 -424h-200l52 424h-397z" />
<glyph unicode="," horiz-adv-x="481" d="M32 156q0 29 10.5 53.5t30 43.5t46.5 30t60 11q39 0 68 -14t48 -38t29 -55t10 -66q0 -49 -15 -103.5t-43.5 -108.5t-70.5 -105.5t-97 -94.5l-45 40q-18 15 -18 37q0 15 17.5 35t39.5 46.5t43.5 60t30.5 75.5q-33 0 -59 12t-45.5 32.5t-29.5 48t-10 60.5z" />
<glyph unicode="-" horiz-adv-x="710" d="M95 516l25 204h492l-26 -204h-491z" />
<glyph unicode="&#xad;" horiz-adv-x="710" d="M95 516l25 204h492l-26 -204h-491z" />
<glyph unicode="." horiz-adv-x="487" d="M32 139q0 32 11.5 60.5t32.5 49t50 33t61 12.5t60.5 -12.5t49.5 -33t33.5 -49t12.5 -60.5q0 -33 -12.5 -61t-33.5 -48.5t-49.5 -32t-60.5 -11.5q-33 0 -61.5 11.5t-49.5 32t-32.5 48.5t-11.5 61z" />
<glyph unicode="/" horiz-adv-x="879" d="M-31 -99l719 1503q20 41 56 63.5t79 22.5h104l-715 -1497q-23 -45 -62 -68.5t-77 -23.5h-104z" />
<glyph unicode="0" d="M93 578q0 232 48 404.5t130 286.5t192 170.5t235 56.5q93 0 170.5 -37t134 -111t87.5 -186t31 -260q0 -232 -48.5 -404.5t-131.5 -287t-193.5 -170.5t-234.5 -56q-93 0 -170.5 36.5t-132.5 111t-86 186t-31 260.5zM343 563q0 -105 16 -177.5t42.5 -116.5t62 -63.5 t74.5 -19.5q61 0 120.5 36t106.5 121t76 224t29 347q0 106 -15.5 178.5t-43 117t-62.5 64t-75 19.5q-41 0 -81.5 -15.5t-77.5 -50.5t-68.5 -91.5t-54.5 -138t-36 -189t-13 -245.5z" />
<glyph unicode="1" d="M194 0l22 182h273l109 883q2 24 5.5 49t8.5 50l-210 -180q-18 -14 -36 -17.5t-33 -0.5t-25.5 10.5t-15.5 16.5l-64 106l464 383h201l-159 -1300h242l-24 -182h-758z" />
<glyph unicode="2" d="M41 0l10 81q3 25 16 52t39 49l465 454q69 66 119.5 123.5t84.5 113.5t51 113t17 123q0 89 -44 135t-123 46q-40 0 -75.5 -13t-64.5 -36.5t-51 -56t-35 -70.5q-23 -46 -51.5 -61t-77.5 -6l-126 22q28 105 78.5 185.5t118.5 134t150.5 80.5t173.5 27q87 0 157 -26t119 -74 t76 -116t27 -150q0 -93 -27.5 -170t-74 -146.5t-108.5 -134.5t-131 -132l-360 -352q52 14 103 23t94 9h333q39 0 59.5 -22.5t15.5 -59.5l-18 -145h-940z" />
<glyph unicode="3" d="M76 374l112 45q45 17 81 9.5t48 -40.5q13 -35 30 -70.5t40.5 -64.5t57.5 -47t83 -18q62 0 111 25.5t83 67t51.5 94.5t17.5 110q0 40 -12.5 74t-44.5 58.5t-86.5 39t-140.5 14.5l21 174q88 1 149 19t99 52t55 83.5t17 112.5q0 87 -44 132.5t-123 45.5q-40 0 -75.5 -13 t-64.5 -36.5t-51.5 -56t-35.5 -70.5q-23 -46 -51.5 -61t-77.5 -6l-125 22q28 105 78.5 185.5t118.5 134t150.5 80.5t173.5 27q88 0 156.5 -25.5t116 -71t72.5 -107t25 -133.5q0 -82 -18 -144t-52 -108t-83.5 -77t-113.5 -51q105 -38 157.5 -111.5t52.5 -181.5 q0 -120 -44 -213.5t-117.5 -158t-169 -97.5t-197.5 -33q-101 0 -174.5 26t-124 75.5t-82.5 122.5t-49 166z" />
<glyph unicode="4" d="M43 542l759 939h231l-114 -927h166l-17 -140q-2 -20 -17 -34.5t-38 -14.5h-117l-45 -365h-212l44 365h-570q-24 0 -41 14.5t-19 38.5zM298 554h409l61 502q3 28 8 59.5t14 65.5z" />
<glyph unicode="5" d="M66 156l88 103q29 33 66 33q25 0 47.5 -16.5t51.5 -35.5t69 -35.5t100 -16.5q74 0 129 28.5t91 76.5t54.5 112t18.5 136q0 102 -55 160.5t-164 58.5q-48 0 -98 -9.5t-103 -28.5l-146 43l203 715h678l-14 -104q-6 -52 -43 -85t-114 -33h-363l-90 -317q46 10 87 14t80 4 q97 0 170 -30t121.5 -82t73 -123.5t24.5 -153.5q0 -131 -45.5 -238.5t-124 -185t-184 -120t-225.5 -42.5q-65 0 -121.5 13.5t-104.5 37.5t-87.5 55.5t-69.5 65.5z" />
<glyph unicode="6" horiz-adv-x="1092" d="M103 425q0 68 14 132t41 127.5t68 127.5t97 132l380 478q20 24 57.5 41t80.5 17h217l-470 -540l-51 -58q40 19 85 29.5t95 10.5q71 0 134.5 -25t112.5 -72.5t77.5 -118t28.5 -163.5q0 -78 -19 -149.5t-53.5 -133.5t-84.5 -113t-111 -87t-132.5 -56t-150.5 -20 q-98 0 -175.5 32t-130.5 90.5t-81.5 139.5t-28.5 179zM335 416q0 -51 12.5 -94t38.5 -74t64 -48t90 -17q59 0 110 24t89.5 67t60.5 102t22 129q0 54 -14.5 97.5t-42.5 74t-67.5 46.5t-88.5 16q-58 0 -108 -24.5t-87 -67.5t-58 -102t-21 -129z" />
<glyph unicode="7" d="M153 0l659 1143q22 34 44 62.5t47 52.5h-642q-22 0 -36.5 17.5t-12.5 39.5l20 165h947l-13 -106q-6 -47 -20 -76t-26 -50l-651 -1165q-22 -35 -54.5 -59t-84.5 -24h-177z" />
<glyph unicode="8" d="M87 361q0 154 71 260t225 153q-83 40 -124.5 110.5t-41.5 167.5q0 95 37 176t102 140.5t153.5 93.5t190.5 34q87 0 158.5 -27t122 -74.5t77.5 -112t27 -138.5q0 -134 -61.5 -229.5t-183.5 -144.5q106 -39 157 -116t51 -186q0 -111 -40 -200.5t-111.5 -152.5t-169 -97 t-212.5 -34q-98 0 -177 27t-135 76t-86 118.5t-30 155.5zM340 380q0 -44 12.5 -82t37 -65.5t62 -43t86.5 -15.5q63 0 111 22t81 61.5t50 94t17 118.5q0 99 -53 149.5t-146 50.5q-55 0 -102 -16.5t-82 -52t-54.5 -90t-19.5 -131.5zM455 1050q0 -36 8.5 -70t28 -60t51.5 -42 t79 -16q57 0 99.5 21t70 57.5t41.5 85t14 103.5q0 37 -10 70t-31 58t-52.5 40t-75.5 15q-57 0 -99 -21t-70 -57t-41 -83.5t-13 -100.5z" />
<glyph unicode="9" d="M158 0l496 577q17 20 34.5 40t31.5 39q-50 -31 -107 -47t-118 -16q-63 0 -123 23.5t-106 70t-73.5 114.5t-27.5 157q0 111 40.5 209.5t111.5 171t169 115t211 42.5q95 0 170 -31t127 -86.5t78.5 -132.5t26.5 -168q0 -79 -15 -148t-42.5 -132.5t-67.5 -125.5t-90 -127 l-369 -489q-19 -24 -54 -40t-78 -16h-225zM413 988q0 -100 49 -155.5t142 -55.5q60 0 109 23t82.5 63.5t52 95t18.5 116.5q0 104 -53 162.5t-143 58.5q-57 0 -104.5 -22.5t-81 -63.5t-52.5 -97.5t-19 -124.5z" />
<glyph unicode=":" horiz-adv-x="530" d="M53 0zM54 139q0 32 11.5 60.5t32.5 49t50 33t61 12.5t60.5 -12.5t49.5 -33t33.5 -49t12.5 -60.5q0 -33 -12.5 -61t-33.5 -48.5t-49.5 -32t-60.5 -11.5q-33 0 -61.5 11.5t-49.5 32t-32.5 48.5t-11.5 61zM135 869q0 32 11.5 60.5t32.5 49t50 33t61 12.5t60.5 -12.5 t49.5 -33t33.5 -49t12.5 -60.5q0 -33 -12.5 -61t-33.5 -48.5t-49.5 -32t-60.5 -11.5q-33 0 -61.5 11.5t-49.5 32t-32.5 48.5t-11.5 61z" />
<glyph unicode=";" horiz-adv-x="553" d="M71 0zM71 156q0 29 10.5 53.5t30 43.5t46.5 30t60 11q39 0 68 -14t48 -38t29 -55t10 -66q0 -49 -15 -103.5t-43.5 -108.5t-70.5 -105.5t-97 -94.5l-45 40q-18 15 -18 37q0 15 17.5 35t39.5 46.5t43.5 60t30.5 75.5q-33 0 -59 12t-45.5 32.5t-29.5 48t-10 60.5zM147 869 q0 32 11.5 60.5t32.5 49t50 33t61 12.5t60.5 -12.5t49.5 -33t33.5 -49t12.5 -60.5q0 -33 -12.5 -61t-33.5 -48.5t-49.5 -32t-60.5 -11.5q-33 0 -61.5 11.5t-49.5 32t-32.5 48.5t-11.5 61z" />
<glyph unicode="&#x3c;" d="M160 639l8 77h1l3 25l863 423l-22 -180q-2 -20 -14.5 -37t-37.5 -29l-396 -191q-26 -12 -53.5 -21t-56.5 -16q56 -14 101 -37l349 -191q22 -11 30 -28.5t6 -38.5l-23 -180z" />
<glyph unicode="=" d="M114 419l23 181h903l-22 -181h-904zM159 776l22 182h903l-21 -182h-904z" />
<glyph unicode="&#x3e;" d="M167 215l23 180q2 20 14 38t39 29l394 191q49 23 109 37q-29 7 -53.5 16t-46.5 21l-348 191q-23 12 -30.5 29t-5.5 37l22 180l759 -423l-12 -102z" />
<glyph unicode="?" horiz-adv-x="881" d="M153 1346q37 31 78.5 58t89.5 48t101.5 32.5t114.5 11.5q80 0 141.5 -23t103.5 -63t63.5 -93.5t21.5 -115.5q0 -86 -23 -146.5t-58 -104t-77.5 -75t-82.5 -62t-72 -63t-45 -78.5l-41 -152h-169l5 168q1 51 26.5 91t63 74t81 65t80.5 66t61.5 76t24.5 95q0 67 -37.5 105 t-111.5 38q-53 0 -91.5 -13t-66 -29t-47.5 -29.5t-35 -13.5q-18 0 -28 7t-19 24zM205 139q0 32 11.5 60.5t32 49t49.5 33t61 12.5q33 0 61.5 -12.5t49 -33t33 -49t12.5 -60.5q0 -33 -12.5 -61t-33 -48.5t-49 -32t-61.5 -11.5t-61.5 11.5t-49 32t-32 48.5t-11.5 61z" />
<glyph unicode="@" horiz-adv-x="1581" d="M79 474q0 128 30.5 247.5t86 224t133.5 190t171.5 146.5t201 95t222.5 34q123 0 232 -42.5t189.5 -122t128 -193t47.5 -254.5q0 -129 -36.5 -240.5t-98.5 -193.5t-146 -129.5t-179 -47.5q-65 0 -110.5 32.5t-57.5 104.5q-65 -73 -131 -104.5t-138 -31.5q-52 0 -90.5 18.5 t-64.5 51.5t-38 77.5t-12 95.5q0 62 16.5 127.5t48.5 127t79.5 115t110 94t140 64t168.5 23.5q38 0 69 -3t58 -8.5t50.5 -14t46.5 -19.5l-138 -379q-23 -67 -28 -109t3.5 -67t27.5 -34t44 -9q46 0 88 35t74.5 96t52 145t19.5 183q0 111 -31.5 196t-89.5 143t-140 87.5 t-184 29.5q-136 0 -254.5 -58t-206 -161.5t-137.5 -245t-50 -307.5q0 -139 38.5 -245.5t107.5 -178.5t166.5 -109.5t214.5 -37.5q74 0 137 8t114.5 22t92.5 31.5t70 34.5q23 12 39.5 14.5t28.5 -3.5t19 -16t11 -22l18 -70q-106 -70 -242 -114t-305 -44q-156 0 -283 51 t-216.5 144.5t-138.5 226.5t-49 299zM609 459q0 -52 21 -82t62 -30q24 0 49 9t49 30.5t47 57t42 91.5l105 290q-30 6 -59 6q-61 0 -118 -31.5t-101 -83.5t-70.5 -119.5t-26.5 -137.5z" />
<glyph unicode="A" horiz-adv-x="1331" d="M-82 0l716 1481h271l353 -1481h-205q-35 0 -54 17t-27 43l-62 310h-552l-137 -310q-11 -24 -36 -42t-58 -18h-209zM441 557h431l-100 507q-7 35 -14.5 81t-16.5 100q-20 -54 -40 -100.5t-34 -81.5z" />
<glyph unicode="B" horiz-adv-x="1257" d="M79 0l182 1481h475q123 0 210.5 -24t143.5 -68t82.5 -106.5t26.5 -139.5q0 -63 -17 -121t-52.5 -107.5t-91 -88.5t-132.5 -64q126 -32 187.5 -103t61.5 -181q0 -102 -38 -189.5t-109.5 -151.5t-174.5 -100.5t-233 -36.5h-521zM370 207h252q71 0 122.5 19.5t84 54.5 t48.5 85t16 109q0 81 -51 129t-168 48h-250zM446 836h197q137 0 211.5 64.5t74.5 197.5q0 93 -53 135.5t-164 42.5h-211z" />
<glyph unicode="C" horiz-adv-x="1270" d="M83 628q0 128 27.5 242t79 211t122.5 173.5t158.5 131t188.5 83t210 28.5q81 0 147.5 -15t120.5 -41.5t97.5 -64t78.5 -83.5l-92 -110q-10 -12 -24 -21.5t-35 -9.5q-23 0 -43 18.5t-51.5 40.5t-81 40.5t-130.5 18.5q-106 0 -198 -43.5t-159.5 -124.5t-106 -195 t-38.5 -257q0 -103 26.5 -185t73 -139t109.5 -87t138 -30q62 0 108.5 9.5t81.5 25t59 32.5t42.5 32.5t32.5 25t29 9.5q13 0 21 -5t14 -10l93 -116q-96 -111 -226.5 -169.5t-299.5 -58.5q-137 0 -243.5 48.5t-179.5 134.5t-111.5 203.5t-38.5 257.5z" />
<glyph unicode="D" horiz-adv-x="1449" d="M79 0l182 1481h522q141 0 254.5 -48.5t192.5 -133.5t121.5 -202.5t42.5 -256.5q0 -184 -59.5 -339t-165.5 -266t-251.5 -173t-317.5 -62h-521zM372 212h255q112 0 203 43t156 123.5t100 196t35 259.5q0 99 -24.5 180t-71 137.5t-114 87.5t-154.5 31h-254z" />
<glyph unicode="E" horiz-adv-x="1098" d="M79 0l182 1481h863l-26 -212h-596l-51 -421h468l-26 -204h-468l-53 -432h598l-27 -212h-864z" />
<glyph unicode="F" horiz-adv-x="1087" d="M79 0l182 1481h863l-26 -212h-596l-56 -451h504l-28 -212h-501l-75 -606h-267z" />
<glyph unicode="G" horiz-adv-x="1387" d="M83 640q0 125 27.5 237t78.5 207.5t122.5 171.5t159.5 130t191 82.5t216 28.5q90 0 163 -16t132.5 -43.5t106.5 -64.5t84 -78l-86 -110q-20 -29 -50 -35q-7 -2 -15 -2q-23 0 -46 15q-30 19 -59.5 38.5t-64.5 34.5t-80 24.5t-106 9.5q-111 0 -203 -44.5t-158.5 -126 t-103.5 -195.5t-37 -255q0 -106 27.5 -190t76.5 -142.5t118 -89.5t154 -31q83 0 146.5 15.5t121.5 44.5l35 283h-164q-26 0 -38.5 13.5t-10.5 34.5l18 151h460l-73 -595q-113 -82 -243 -120.5t-297 -38.5q-136 0 -247 49t-190.5 136.5t-122.5 208t-43 262.5z" />
<glyph unicode="H" horiz-adv-x="1469" d="M79 0l182 1481h267l-79 -642h623l80 642h267l-182 -1481h-268l80 650h-623l-80 -650h-267z" />
<glyph unicode="I" horiz-adv-x="577" d="M79 0l180 1481h267l-180 -1481h-267z" />
<glyph unicode="J" horiz-adv-x="837" d="M-37 11l20 156q3 22 15 36t39 14q24 0 55 -7t78 -7t87.5 16.5t72 52.5t54 94t31.5 141l119 974h265l-118 -968q-15 -123 -55 -221t-104 -166.5t-152 -105t-200 -36.5q-55 0 -105 6.5t-102 20.5z" />
<glyph unicode="K" horiz-adv-x="1313" d="M79 0l180 1482h266l-78 -627h58q36 0 61 11t45 35l428 522q26 34 56 46t70 12h229l-525 -620q-23 -29 -45 -47.5t-47 -30.5q30 -12 53 -33t40 -57l377 -693h-234q-24 0 -40.5 3.5t-28 10t-19 16.5t-14.5 22l-305 552q-13 28 -36 39t-67 11h-80l-80 -654h-264z" />
<glyph unicode="L" horiz-adv-x="989" d="M79 0l182 1481h265l-155 -1261h538l-25 -220h-805z" />
<glyph unicode="M" horiz-adv-x="1800" d="M79 0l182 1481h200q17 0 29 -1.5t21 -6.5t17.5 -13.5t17.5 -21.5l306 -846q9 -27 16.5 -54.5t14.5 -56.5q12 29 26.5 56.5t30.5 54.5l514 846q12 13 22 21.5t20 13.5t22.5 6.5t29.5 1.5h202l-182 -1481h-234l119 965q3 26 8.5 57t14.5 63l-509 -843q-17 -29 -43.5 -43.5 t-57.5 -14.5h-37q-31 0 -53.5 14.5t-33.5 43.5l-305 842q-1 -32 -3 -61.5t-4 -53.5l-117 -969h-234z" />
<glyph unicode="N" horiz-adv-x="1469" d="M79 0l182 1481h139q17 0 29 -1.5t21.5 -6.5t16.5 -13t15 -22l577 -1011q2 30 4.5 58t5.5 53l116 943h234l-182 -1481h-137q-31 0 -51 11t-37 35l-574 1011q-2 -25 -4 -48t-4 -43l-117 -966h-234z" />
<glyph unicode="O" horiz-adv-x="1542" d="M83 640q0 123 27 234t78 206.5t122 172t159.5 131.5t192 84t218.5 29q141 0 253.5 -50t191.5 -138t121 -208.5t42 -260.5q0 -123 -27 -234t-77.5 -206.5t-122 -172t-160 -131t-192 -83.5t-217.5 -29q-141 0 -253.5 50t-192 138t-121.5 208t-42 260zM355 646 q0 -100 24.5 -182t72 -140t115.5 -89t155 -31q112 0 203 45t155.5 127t99.5 198.5t35 259.5q0 100 -25 182t-72.5 140t-116 90t-154.5 32q-111 0 -201.5 -45t-155 -128t-100 -200t-35.5 -259z" />
<glyph unicode="P" horiz-adv-x="1189" d="M79 0l180 1481h451q126 0 216.5 -30.5t149 -84.5t86.5 -128.5t28 -163.5q0 -119 -37.5 -219.5t-112 -174t-187 -115t-261.5 -41.5h-184l-65 -524h-264zM433 731h185q79 0 136.5 23.5t95 66t55.5 101t18 129.5q0 50 -14.5 92t-44 71t-74.5 45.5t-106 16.5h-184z" />
<glyph unicode="Q" horiz-adv-x="1542" d="M83 640q0 123 27 234t78 206.5t122 172t159.5 131.5t192 84t218.5 29q141 0 253.5 -50t191.5 -138t121 -208.5t42 -260.5q0 -118 -25 -225.5t-72.5 -200t-113.5 -169t-149 -131.5l296 -405h-217q-47 0 -83.5 13t-62.5 48l-170 238q-47 -11 -97 -17.5t-102 -6.5 q-141 0 -253.5 50t-192 138t-121.5 208t-42 260zM355 646q0 -100 24.5 -182t72 -140t115.5 -89t155 -31q112 0 203 45t155.5 127t99.5 198.5t35 259.5q0 100 -25 182t-72.5 140t-116 90t-154.5 32q-111 0 -201.5 -45t-155 -128t-100 -200t-35.5 -259z" />
<glyph unicode="R" horiz-adv-x="1227" d="M79 0l180 1481h421q128 0 219.5 -27.5t150 -76t86 -116t27.5 -148.5q0 -86 -24 -161t-69.5 -136.5t-110.5 -107.5t-148 -72q47 -30 76 -84l264 -552h-239q-69 0 -91 53l-217 481q-12 27 -30 38.5t-56 11.5h-103l-72 -584h-264zM438 773h153q80 0 137.5 23t95.5 63.5 t56.5 95t18.5 116.5q0 96 -60 150.5t-184 54.5h-155z" />
<glyph unicode="S" horiz-adv-x="1055" d="M-3 178l94 127q11 14 28.5 23.5t35.5 9.5q16 0 32 -10.5t35 -25t41 -32.5t50 -33t64.5 -25t82.5 -10q117 0 182.5 65.5t65.5 181.5q0 51 -24 83.5t-62.5 55t-88.5 39.5t-101 36t-100.5 44t-88.5 64.5t-62.5 97t-23.5 141.5q0 95 35 183t101 155t160 107.5t212 40.5 q60 0 116 -12.5t104 -35t88.5 -53.5t69.5 -69l-79 -112q-14 -20 -28 -29.5t-35 -9.5q-20 0 -41.5 16t-51.5 36t-71 36.5t-98 16.5q-55 0 -98 -16.5t-72.5 -45t-44 -67.5t-14.5 -84q0 -47 24 -78.5t63 -55t89 -42t101.5 -38.5t102 -47t89.5 -66t63 -93.5t24 -132.5 q0 -109 -38 -205t-107.5 -168t-170 -114.5t-224.5 -42.5q-65 0 -127 13.5t-117.5 39t-102.5 61.5t-82 80z" />
<glyph unicode="T" horiz-adv-x="1140" d="M109 1263l26 218h1078l-27 -218h-405l-155 -1263h-265l154 1263h-406z" />
<glyph unicode="U" horiz-adv-x="1416" d="M135 591l107 890h266l-109 -889q-5 -39 -4 -74q0 -43 6 -81q12 -70 45 -120t85.5 -77t125.5 -27q72 0 132 27t105 77t74 119.5t40 154.5l108 890h266l-109 -890q-16 -131 -69.5 -242.5t-137 -192.5t-194.5 -126.5t-243 -45.5t-232 45.5t-163 126.5q-64 80 -90 192 q-16 69 -15 145q0 47 6 98z" />
<glyph unicode="V" horiz-adv-x="1329" d="M98 1481h214q35 0 55 -17t25 -44l199 -922q11 -43 20.5 -94t16.5 -106q17 55 37.5 106t42.5 94l421 922q10 23 36.5 42t59.5 19h215l-732 -1481h-241z" />
<glyph unicode="W" horiz-adv-x="1983" d="M115 1481h208q35 0 55.5 -17t24.5 -44l131 -908q3 -33 5.5 -71t4.5 -80q27 84 54 151l369 908q11 23 36 42t58 19h62q35 0 54.5 -17t27.5 -44l148 -908q5 -32 9.5 -68.5t7.5 -76.5q11 40 22.5 76t22.5 69l351 908q4 12 13.5 23t22.5 19t28.5 13.5t32.5 5.5h210 l-606 -1481h-240l-167 1026q-3 19 -6.5 42.5t-5.5 48.5q-8 -26 -17 -48.5l-17 -42.5l-419 -1026h-239z" />
<glyph unicode="X" horiz-adv-x="1291" d="M-86 0l571 791l-333 690h240q27 0 39 -8t21 -26l226 -510q5 10 11 20.5t13 21.5l316 465q25 37 60 37h278l-504 -678l372 -803h-239q-27 0 -41.5 14.5t-22.5 31.5l-256 592q-5 -8 -10 -16.5t-10 -15.5l-383 -560q-17 -26 -38 -36t-45 -10h-265z" />
<glyph unicode="Y" horiz-adv-x="1244" d="M97 1481h237q35 0 54.5 -16.5t28.5 -44.5l190 -512q13 -38 22.5 -73t16.5 -69q16 34 34.5 68.5t42.5 73.5l318 512q14 24 38 42.5t57 18.5h220l-607 -904l-72 -577h-265l71 575z" />
<glyph unicode="Z" horiz-adv-x="1148" d="M-38 0l10 81q2 17 10.5 32.5t18.5 30.5l820 1125h-657l25 212h1013l-11 -83q-3 -17 -11 -32.5t-19 -31.5l-818 -1122h686l-27 -212h-1040z" />
<glyph unicode="[" horiz-adv-x="611" d="M50 -312l233 1894h392l-11 -96q-3 -25 -23.5 -43.5t-48.5 -18.5h-125l-195 -1580h126q29 0 44.5 -17.5t12.5 -44.5l-13 -94h-392z" />
<glyph unicode="\" horiz-adv-x="872" d="M161 1490h103q44 0 73.5 -22.5t40.5 -63.5l350 -1503h-102q-39 0 -73 23.5t-45 68.5z" />
<glyph unicode="]" horiz-adv-x="611" d="M-63 -312l12 94q3 27 23 44.5t47 17.5h126l195 1580h-126q-29 0 -44 18.5t-13 43.5l13 96h392l-233 -1894h-392z" />
<glyph unicode="^" d="M180 796l382 685h164l382 -685h-185q-24 0 -39 12t-25 30l-162 296q-16 28 -28.5 54t-21.5 52q-8 -27 -19.5 -53t-26.5 -53l-159 -296q-9 -17 -25 -29.5t-42 -12.5h-195z" />
<glyph unicode="_" horiz-adv-x="910" d="M-29 -300l20 159h743l-20 -159h-743z" />
<glyph unicode="`" horiz-adv-x="753" d="M244 1497h219q37 0 54.5 -14t28.5 -40l105 -249h-132q-27 0 -42.5 7.5t-30.5 28.5z" />
<glyph unicode="a" horiz-adv-x="1067" d="M36 359q0 94 23.5 183.5t67 167.5t105 144t137.5 113t165 73t187 26q71 0 142 -10t138 -37l-125 -1019h-135q-48 0 -65 24t-17 60l9 135q-70 -109 -157 -171.5t-192 -62.5q-59 0 -110.5 23.5t-90 70t-60.5 116.5t-22 164zM289 404q0 -111 35 -162t95 -51q42 0 82.5 29.5 t76 80t66.5 119t53 147.5l40 317q-28 3 -52 3q-85 0 -157.5 -39t-125.5 -105t-83 -153.5t-30 -185.5z" />
<glyph unicode="b" horiz-adv-x="1103" d="M41 0l184 1522h248l-83 -679q74 103 164.5 163.5t193.5 60.5q66 0 119 -24t90.5 -72t58 -122t20.5 -173q0 -89 -18.5 -175t-51.5 -163t-80 -141.5t-104 -111.5t-122 -73.5t-135 -26.5q-81 0 -144 32t-106 87l-8 -34q-11 -36 -29.5 -53t-59.5 -17h-137zM316 246 q35 -38 80 -53.5t89 -15.5q68 0 123.5 42t94.5 109.5t60.5 152t21.5 169.5q0 111 -35.5 164.5t-100.5 53.5q-42 0 -85 -28t-83 -77.5t-74 -116.5t-59 -145z" />
<glyph unicode="c" horiz-adv-x="928" d="M44 423q0 85 18.5 166t53.5 152.5t84 131t110.5 102.5t133.5 67t153 24q104 0 177.5 -37t129.5 -110l-81 -97q-8 -9 -20 -16.5t-27 -7.5q-17 0 -31 10.5t-33 23t-47 23t-73 10.5q-58 0 -111.5 -31.5t-94.5 -90t-65 -140.5t-24 -181q0 -116 51 -179t139 -63q39 0 69 8.5 t53 20t40.5 25.5t32.5 25.5t29 20t30 8.5q13 0 25 -7t21 -17l64 -78q-52 -57 -100 -96t-97 -62.5t-102.5 -33t-118.5 -9.5q-91 0 -163 31t-122.5 88.5t-77 138.5t-26.5 180z" />
<glyph unicode="d" horiz-adv-x="1104" d="M42 377q0 89 18.5 174.5t52 162.5t80.5 141.5t104 111.5t122 73.5t135 26.5q71 0 128 -25.5t100 -70.5l69 551h248l-189 -1522h-134q-48 0 -65 24t-17 60l8 146q-38 -56 -80.5 -101.5t-89.5 -77.5t-97.5 -49t-103.5 -17q-66 0 -119 24t-91 72t-58.5 121.5t-20.5 174.5z M293 401q0 -111 36 -164.5t101 -53.5q41 0 83.5 28.5t82.5 78t75 117t59 145.5l32 254q-35 38 -80 53t-89 15q-68 0 -123 -41.5t-94.5 -109.5t-61 -152.5t-21.5 -169.5z" />
<glyph unicode="e" horiz-adv-x="997" d="M44 421q0 83 18 163t51.5 151.5t83 132t111.5 104.5t136 68.5t159 24.5q82 0 144 -23.5t103.5 -61t62 -83.5t20.5 -90q0 -71 -28 -129t-101 -104.5t-197.5 -79.5t-316.5 -53v-13q0 -248 210 -248q45 0 79.5 9t61 21t47.5 27.5t38.5 28t35 21t38.5 8.5q12 0 24 -6t21 -17 l64 -77q-54 -54 -106 -94.5t-106.5 -66t-115 -37.5t-130.5 -12q-92 0 -167 31t-128.5 88t-82.5 137.5t-29 179.5zM310 603q127 17 204.5 38t120 45.5t56.5 52t14 59.5q0 15 -7 31.5t-20.5 29t-35.5 21.5t-53 9q-51 0 -95 -21t-79.5 -59t-62 -90.5t-42.5 -115.5z" />
<glyph unicode="f" horiz-adv-x="677" d="M76 -253l134 1114l-81 15q-24 5 -39 19.5t-11 43.5l12 102h141l10 78q11 90 47.5 162t92 122t128.5 76.5t157 26.5q66 0 120 -19l-22 -131q-5 -24 -28.5 -28.5t-53.5 -4.5q-41 0 -75.5 -11.5t-60.5 -36.5t-43 -65.5t-24 -98.5l-8 -70h236l-24 -180h-225l-100 -818 l-52 -193q-15 -49 -45 -76t-85 -27h-101z" />
<glyph unicode="g" horiz-adv-x="1029" d="M-65 -100q0 72 31 125t82 89.5t117.5 58t138.5 29.5q58 7 116 7h28q71 -2 133 -12q-9 32 -10 67q0 59 33 131q-40 -27 -89.5 -41t-118.5 -14q-59 0 -113 19.5t-95 59.5t-65 100t-24 139q0 77 29 150.5t85 131t139 92.5t193 35q58 0 111 -14t97 -40h294l-12 -82 q-7 -49 -50 -66l-107 -28q5 -20 7.5 -43t2.5 -48q0 -47 -10.5 -84t-25 -69t-32 -60t-32.5 -57.5t-25 -61.5t-10 -71q0 -42 17 -77.5t37.5 -72t38 -78.5t17.5 -98q-1 -78 -35.5 -148t-99.5 -122.5t-159.5 -83.5t-213.5 -31q-96 0 -174 20t-132 56t-84 84.5t-30 107.5z M175 -69q0 -61 49.5 -93t152.5 -32q57 0 104 14.5t81 40t52.5 60.5t18.5 75q0 14 -1.5 28t-3.5 26q-108 18 -187 18h-20q-86 -3 -140.5 -21.5t-80 -49.5t-25.5 -66zM330 657q0 -79 35.5 -121.5t102.5 -42.5q46 0 81 21.5t59 56t36 78t13 88.5q0 77 -36 118t-105 41 q-46 0 -81 -20t-58.5 -53t-35 -76.5t-11.5 -89.5z" />
<glyph unicode="h" horiz-adv-x="1107" d="M41 0l184 1522h253l-79 -651q77 99 166.5 147.5t183.5 48.5q67 0 119.5 -26.5t86 -77.5t47.5 -125q8 -40 8 -86q0 -39 -6 -83l-80 -669h-252l79 669q5 36 5 65q0 53 -16 82q-24 45 -88 45q-39 0 -81 -22t-80.5 -62.5t-72.5 -97.5t-58 -128l-66 -551h-253z" />
<glyph unicode="i" horiz-adv-x="501" d="M51 0l126 1051h249l-126 -1051h-249zM176 1357q0 33 13.5 62.5t35 51.5t49.5 35t58 13q31 0 59.5 -13t50.5 -34.5t35 -51t13 -63.5q0 -33 -13.5 -61.5t-36 -50t-51.5 -34.5t-59 -13t-57.5 13t-49 34.5t-34.5 50t-13 61.5z" />
<glyph unicode="j" horiz-adv-x="499" d="M-186 -349l24 136q5 20 19 26t49 6q34 0 58 7.5t40 24.5t26 44.5t15 68.5l132 1087h248l-132 -1087q-8 -69 -34.5 -129t-70.5 -105.5t-106 -72t-141 -26.5q-41 0 -70 5t-57 15zM167 1357q0 33 13.5 62.5t35 51.5t49.5 35t58 13q31 0 59.5 -13t50.5 -34.5t35 -51t13 -63.5 q0 -33 -13.5 -61.5t-36 -50t-51.5 -34.5t-59 -13t-57.5 13t-49 34.5t-34.5 50t-13 61.5z" />
<glyph unicode="k" horiz-adv-x="1025" d="M39 0l187 1522h249l-106 -872h25q24 0 38.5 7.5t31.5 26.5l279 323q17 22 37 33t49 11h226l-346 -391q-37 -45 -80 -70q19 -14 33 -34.5t25 -45.5l259 -510h-219q-28 0 -46 9.5t-30 35.5l-204 398q-11 24 -23.5 31t-41.5 7h-35l-58 -481h-250z" />
<glyph unicode="l" horiz-adv-x="488" d="M44 0l184 1522h250l-185 -1522h-249z" />
<glyph unicode="m" horiz-adv-x="1624" d="M41 0l127 1052h129q40 0 62 -19.5t22 -62.5l-5 -116q71 108 153.5 160.5t172.5 52.5q96 0 152.5 -64.5t66.5 -186.5q74 129 163.5 190t194.5 61q67 0 117 -26.5t82 -77.5q30 -51 42 -125q6 -36 6 -77q0 -43 -6 -92l-79 -669h-250l79 669q5 41 5 73q0 48 -11 74 q-19 44 -76 44q-39 0 -76 -20.5t-70 -59.5t-61.5 -95t-49.5 -127l-66 -558h-250l80 669q5 42 5 75q0 46 -10 72q-17 44 -76 44q-41 0 -78 -21.5t-70.5 -62t-61.5 -98t-50 -129.5l-65 -549h-248z" />
<glyph unicode="n" horiz-adv-x="1107" d="M42 0l126 1052h128q40 0 62 -19.5t22 -62.5l-6 -136q80 118 177 175.5t201 57.5q66 0 118 -26.5t85.5 -77.5t47.5 -125q8 -40 8 -86q0 -39 -6 -83l-79 -669h-253l79 669q5 36 5 65q1 52 -15 82q-24 44 -87 44q-42 0 -86.5 -24t-85.5 -68.5t-75 -106.5t-56 -139l-57 -522 h-253z" />
<glyph unicode="o" horiz-adv-x="1072" d="M45 425q0 136 44 254t119.5 204t175.5 135t214 49q87 0 161.5 -29t128 -85.5t84 -138.5t30.5 -187q0 -135 -44 -252.5t-119 -204t-175 -136t-214 -49.5q-87 0 -161 29t-128.5 85.5t-85 138t-30.5 187.5zM298 427q0 -128 43 -188t132 -60q63 0 114.5 36.5t87.5 97.5 t55.5 142t19.5 170q0 128 -43 187.5t-132 59.5q-63 0 -114.5 -35.5t-87.5 -96.5t-55.5 -142t-19.5 -171z" />
<glyph unicode="p" horiz-adv-x="1103" d="M-1 -343l170 1395h128q40 0 62 -19.5t22 -62.5l-7 -151q76 114 171.5 181t203.5 67q66 0 119 -24t90.5 -72t58 -122t20.5 -173q0 -89 -18.5 -175t-52 -163t-80 -141.5t-104 -111.5t-122.5 -73.5t-135 -26.5q-72 0 -128.5 25.5t-99.5 69.5l-52 -423h-246zM317 245 q35 -37 79.5 -52.5t88.5 -15.5q68 0 123.5 42t95 109.5t61 152t21.5 169.5q0 111 -36 164.5t-101 53.5q-42 0 -85 -28t-83 -77.5t-74 -117t-59 -145.5z" />
<glyph unicode="q" horiz-adv-x="1068" d="M36 359q0 94 23.5 183.5t67 167.5t105 144t137.5 113t165 73t187 26q72 0 142.5 -10t138.5 -37l-169 -1362h-164q-24 0 -40 8.5t-24.5 22.5t-11 30.5t-0.5 32.5l56 439q-68 -96 -149.5 -150.5t-178.5 -54.5q-59 0 -111.5 23.5t-91 70t-60.5 116.5t-22 164zM290 404 q0 -111 35 -162t95 -51q42 0 82 29t76 79.5t66.5 118.5t52.5 147l41 319q-28 3 -52 3q-85 0 -157.5 -39t-125.5 -105t-83 -153.5t-30 -185.5z" />
<glyph unicode="r" horiz-adv-x="723" d="M41 0l127 1052h129q40 0 62 -19.5t22 -62.5l-7 -171q40 78 85.5 133.5t94.5 87.5q49 30 101 36l20 2q42 0 85 -19l-46 -241q-50 21 -95 21q-68 1 -125 -47q-94 -78 -150 -308l-55 -464h-248z" />
<glyph unicode="s" horiz-adv-x="830" d="M-18 113l62 96q11 17 26.5 26.5t38.5 9.5q22 0 39 -13.5t40 -29.5t56.5 -29t85.5 -13q42 0 74 11t54.5 30.5t34 45t11.5 54.5q0 35 -17.5 58t-46.5 40t-66 29.5t-75.5 27t-75 33t-65.5 46.5t-46.5 68.5t-17.5 98.5q0 70 26.5 136t78 117t126.5 81.5t173 30.5 q100 0 178 -34.5t130 -87.5l-65 -92q-11 -16 -21 -23t-27 -7q-18 0 -36.5 10.5t-42.5 23t-55.5 23t-74.5 10.5q-81 0 -124 -36.5t-43 -90.5q0 -42 30.5 -67.5t76.5 -45t98.5 -39.5t99 -50.5t76.5 -78t30 -122.5q0 -76 -30 -144.5t-86.5 -120t-136 -81.5t-178.5 -30 q-49 0 -96 9.5t-87.5 27t-74.5 41t-57 51.5z" />
<glyph unicode="t" horiz-adv-x="749" d="M68 914l11 101l160 27l84 287q7 20 21 31.5t36 11.5h135l-41 -331h254l-21 -180h-255l-57 -458q-5 -42 -8 -66.5t-4.5 -38t-1.5 -19.5v-8q0 -39 19 -61.5t54 -22.5q22 0 37 6t26 12t20.5 11.5t17.5 5.5q11 0 17.5 -5.5t11.5 -16.5l54 -123q-56 -46 -124.5 -69.5 t-138.5 -23.5q-112 0 -177 60t-68 170v17t1.5 29t5 50t9.5 80l59 471h-100q-18 -1 -30 13q-8 10 -8 26q0 6 1 14z" />
<glyph unicode="u" horiz-adv-x="1107" d="M79 384l79 667h253l-79 -667q-5 -37 -5 -66q-1 -53 15 -82q24 -45 86 -45q41 0 83.5 23t82.5 64t73.5 100.5t56.5 132.5l64 540h253l-127 -1051h-128q-90 0 -90 87l6 121q-80 -113 -174.5 -168t-195.5 -55q-66 0 -118 26.5t-86 77t-48 125.5q-7 40 -7 85q0 40 6 85z" />
<glyph unicode="v" horiz-adv-x="1006" d="M59 1051h208q27 0 43 -13.5t20 -33.5l109 -562q8 -51 13.5 -99.5t8.5 -97.5q15 48 33 96.5t38 100.5l251 562q9 20 28 33.5t43 13.5h199l-518 -1051h-212z" />
<glyph unicode="w" horiz-adv-x="1511" d="M66 1051h192q26 0 42 -13.5t21 -33.5l61 -562q3 -46 5 -88t4 -85q15 43 31.5 85t35.5 88l228 564q8 20 26.5 33.5t42.5 13.5h107q27 0 43.5 -13.5t18.5 -33.5l87 -564q6 -46 11 -89l10 -86q11 43 25 86t29 89l204 562q7 20 25.5 33.5t42.5 13.5h185l-434 -1051h-196 q-32 0 -39 45l-100 607q-6 41 -9 79q-7 -20 -14.5 -40t-15.5 -41l-249 -605q-18 -45 -55 -45h-187z" />
<glyph unicode="x" horiz-adv-x="998" d="M-82 0l417 567l-243 484h230q26 0 37 -7.5t19 -24.5l143 -312q6 12 13.5 24t16.5 26l185 258q23 36 56 36h229l-369 -484l270 -567h-230q-26 0 -40.5 14t-22.5 32l-162 369q-5 -11 -11 -22.5t-13 -20.5l-233 -326q-13 -17 -29 -31.5t-41 -14.5h-222z" />
<glyph unicode="y" horiz-adv-x="1006" d="M61 1051h212q28 0 42 -14t19 -33l129 -545q10 -52 15 -105q11 27 23 53t24 53l259 545q10 20 30 33t40 13h203l-695 -1342q-14 -27 -33.5 -39.5t-47.5 -12.5h-188l234 423z" />
<glyph unicode="z" horiz-adv-x="886" d="M-26 0l14 105q1 17 12 42t29 46l529 664h-452l24 194h749l-14 -105q-2 -27 -14 -52t-27 -42l-525 -657h463l-24 -195h-764z" />
<glyph unicode="{" horiz-adv-x="593" d="M54 564l18 142q76 0 105.5 62.5t29.5 193.5q0 16 -1 37.5t-1.5 44.5t-1.5 45t-1 39q0 109 24.5 193.5t74 142.5t125.5 88t178 30h49l-13 -109q-1 -12 -7.5 -21.5t-15.5 -15.5t-18.5 -9t-15.5 -3h-8q-68 0 -107 -48.5t-46 -138.5q-5 -52 -6.5 -100t-1.5 -94t-0.5 -89.5 t-4.5 -87.5q-8 -86 -55.5 -148.5t-121.5 -84.5q59 -20 91 -70.5t32 -115.5q0 -59 -13 -116t-29.5 -113.5t-30 -114.5t-13.5 -120q0 -61 28.5 -100t83.5 -39h8q7 0 16 -2.5t16 -8.5t11 -15t2 -23l-13 -107h-50q-81 0 -140.5 21.5t-98 59.5t-57.5 91.5t-19 117.5 q0 67 15 127.5t32.5 118t32.5 114t15 114.5q0 49 -24 80.5t-73 31.5z" />
<glyph unicode="|" horiz-adv-x="551" d="M177 -343v1927h196v-1927h-196z" />
<glyph unicode="}" horiz-adv-x="593" d="M-58 -312l15 107q1 13 7 22.5t15 15.5t18 8.5t16 2.5h9q68 0 106.5 49.5t45.5 139.5q5 52 6.5 99.5t1.5 93t1 89t5 86.5q7 86 54 148.5t120 84.5q-60 20 -91 71.5t-31 116.5q0 58 13.5 115t30 114t30.5 115.5t14 120.5q0 61 -28.5 99t-84.5 38h-7q-7 0 -16 3t-16 9 t-11 15t-2 22l12 109h50q81 0 140 -21.5t97.5 -60t57.5 -92.5t19 -119q0 -67 -14.5 -126.5t-32 -117t-32 -113.5t-14.5 -114q0 -49 22 -80.5t74 -31.5l-18 -142q-75 0 -105 -63.5t-30 -194.5q0 -15 0.5 -36.5t1.5 -44t1.5 -45t0.5 -39.5q0 -217 -98.5 -335t-302.5 -118h-50z " />
<glyph unicode="~" d="M98 408q0 79 21 142.5t61 109.5t97.5 70.5t131.5 24.5q53 0 102.5 -14.5t94 -31.5t83.5 -31t72 -14q58 0 89.5 36.5t32.5 103.5h203q0 -79 -21 -143t-60 -109.5t-96.5 -70t-131.5 -24.5q-54 0 -103.5 14t-94 31t-84 31.5t-71.5 14.5q-57 0 -89 -37t-32 -103h-205z" />
<glyph unicode="&#xa1;" horiz-adv-x="514" d="M29 -345l68 548q11 93 30.5 182t45.5 190h160q1 -101 -2 -190t-16 -182l-66 -548h-220zM136 912q0 32 12 60.5t32.5 49t49 33t61.5 12.5q32 0 60.5 -12.5t49.5 -33t33 -49t12 -60.5q0 -33 -12 -61t-33 -48.5t-49.5 -32t-60.5 -11.5q-33 0 -61.5 11.5t-49 32t-32.5 48.5 t-12 61z" />
<glyph unicode="&#xa2;" d="M105 450q0 127 40 237t115.5 192t184.5 130.5t247 53.5l34 164q5 24 25.5 43t48.5 19h90l-49 -235q80 -14 141.5 -48t111.5 -85l-73 -85q-11 -14 -23 -21.5t-30 -7.5q-14 0 -29 7t-34 17.5t-43.5 21t-57.5 17.5l-145 -700q56 5 96 20t68 30.5t49 27.5t40 12q31 0 43 -20 l58 -86q-40 -41 -86.5 -71t-96.5 -50t-102.5 -30.5t-105.5 -14.5l-32 -155q-5 -24 -25 -42.5t-48 -18.5h-90l45 219q-81 12 -148.5 49t-115.5 96t-75.5 137.5t-27.5 176.5zM345 462q0 -110 43 -181.5t123 -98.5l143 696q-78 -8 -136 -41.5t-96.5 -87.5t-57.5 -126.5 t-19 -160.5z" />
<glyph unicode="&#xa3;" d="M-15 0l19 154q72 16 111.5 58.5t50.5 127.5l34 276h-158l12 99q3 23 24 41.5t51 18.5h90l31 247q12 96 54 182.5t111.5 151t164.5 102.5t213 38q87 0 152.5 -20t113 -55.5t79 -84t52.5 -105.5l-106 -64q-36 -17 -66.5 -15t-53.5 32q-17 26 -34.5 45t-39.5 33t-51 21 t-71 7q-54 0 -100 -18.5t-81 -52.5t-57.5 -83.5t-29.5 -111.5l-31 -249h459l-12 -97q-3 -24 -24 -43t-51 -19h-390l-26 -210q-8 -71 -32.5 -123t-67.5 -96q40 9 80 14.5t80 5.5h613l-13 -102q-2 -18 -11.5 -37t-25 -34t-36 -24.5t-43.5 -9.5h-984z" />
<glyph unicode="&#xa4;" d="M118 1039l128 125l153 -153q43 27 94 41.5t106 14.5q53 0 102 -14t92 -39l156 155l126 -126l-154 -154q27 -43 41.5 -94t14.5 -106q0 -54 -14 -102t-39 -91l155 -156l-127 -126l-154 154q-44 -27 -94 -41.5t-105 -14.5q-54 0 -102 13.5t-91 39.5l-157 -156l-126 127 l155 153q-27 44 -42 94.5t-15 105.5q0 54 13.5 103t38.5 92zM408 689q0 -39 14.5 -74t40.5 -61.5t61 -41.5t75 -15t75.5 15t61.5 41.5t41 61.5t15 74q0 41 -15 76.5t-41 61.5t-61.5 41.5t-75.5 15.5t-75 -15.5t-61 -41.5t-40.5 -61.5t-14.5 -76.5z" />
<glyph unicode="&#xa5;" d="M93 276l19 137h329l12 98h-330l16 135h287l-307 834h205q33 0 52.5 -17t27.5 -44l170 -511q12 -44 20.5 -82t12.5 -74q12 37 29 74.5t41 81.5l292 511q13 24 37 42.5t58 18.5h206l-514 -834h287l-16 -135h-330l-12 -98h329l-17 -137h-328l-34 -276h-244l34 276h-332z" />
<glyph unicode="&#xa6;" horiz-adv-x="549" d="M176 -343v827h196v-827h-196zM176 756v828h196v-828h-196z" />
<glyph unicode="&#xa7;" horiz-adv-x="963" d="M22 4l68 92q11 17 27 26t40 9q23 0 40.5 -13.5t41 -28.5t57.5 -28.5t89 -13.5q83 0 129 41.5t46 109.5q0 50 -34 82t-86.5 59t-112.5 52.5t-112 60.5t-86.5 87t-34.5 130q0 93 47.5 165t145.5 114q-34 35 -55 80.5t-21 109.5q0 72 27 136t79.5 113.5t129 78t175.5 28.5 q101 0 179.5 -35.5t125.5 -92.5l-65 -88q-11 -16 -23.5 -23t-28.5 -7q-18 0 -36.5 11t-42 23t-54.5 23t-74 11q-42 0 -73.5 -11.5t-54 -30.5t-34 -44.5t-11.5 -52.5q0 -30 20 -53.5t52.5 -44.5t73 -40.5t84 -41t84.5 -47.5t73.5 -59t52.5 -75.5t20 -96.5q0 -91 -44 -167 t-141 -121q34 -33 54 -76t20 -100q0 -80 -29 -149t-84.5 -120.5t-137 -80.5t-185.5 -29q-49 0 -96.5 10t-89 26.5t-76.5 40t-59 51.5zM316 730q0 -40 25 -69t63.5 -53t87 -46.5t96.5 -48.5q43 25 62 59t19 76q0 41 -23.5 71t-61.5 53.5t-85 45t-95 46.5q-49 -28 -68.5 -60 t-19.5 -74z" />
<glyph unicode="&#xa8;" horiz-adv-x="753" d="M186 1323q0 30 11.5 56t31 45.5t44.5 30.5t53 11q29 0 55 -11t45.5 -30.5t31 -45.5t11.5 -56q0 -29 -11.5 -54t-31 -43.5t-46 -29t-54.5 -10.5t-53 10.5t-44.5 29t-31 43.5t-11.5 54zM581 1323q0 30 10.5 56t30 45.5t44.5 30.5t55 11q29 0 55 -11t45 -30.5t30 -45.5 t11 -56q0 -29 -11 -54t-30 -43.5t-45 -29t-55 -10.5q-30 0 -55 10.5t-44.5 29t-30 43.5t-10.5 54z" />
<glyph unicode="&#xa9;" horiz-adv-x="1688" d="M102 740q0 104 27.5 201t76.5 181t118 153.5t153 118.5t180.5 76t200.5 27t201 -27t181 -76t153 -118.5t118.5 -153.5t76.5 -180.5t27 -201.5q0 -103 -27 -200t-76.5 -180.5t-118.5 -152.5t-153 -118t-180.5 -76t-201.5 -27q-104 0 -200.5 27t-180.5 76t-153 118 t-118 152.5t-76.5 180t-27.5 200.5zM241 740q0 -133 47.5 -248.5t131 -201t196 -135t242.5 -49.5t243.5 49.5t197.5 135t132.5 201t48.5 248.5q0 89 -22 171t-62 153.5t-96.5 129t-125.5 99t-149 64t-167 22.5t-166.5 -22.5t-148 -64t-124 -99t-95.5 -129t-61.5 -153.5 t-21.5 -171zM411 743q0 104 35.5 191.5t99 150.5t149 98t186.5 35q115 0 196 -38t136 -99l-66 -91q-6 -8 -16.5 -16t-26.5 -8q-17 0 -32.5 10t-37.5 22.5t-55 22.5t-85 10q-61 0 -109.5 -20t-81.5 -57.5t-50.5 -90.5t-17.5 -120q0 -70 18 -123t49.5 -89t75 -55t94.5 -19 q50 0 82.5 8t55 19.5t40.5 22.5t41 17q10 0 19 -4.5t15 -12.5l84 -89q-56 -73 -143.5 -111.5t-205.5 -38.5q-102 0 -185 36.5t-142 100.5t-90.5 150.5t-31.5 187.5z" />
<glyph unicode="&#xaa;" horiz-adv-x="702" d="M125 999q0 39 16.5 78t59 71.5t114 54t182.5 24.5l3 27q1 22 -1 41.5t-10 33t-22 22t-37 8.5q-32 0 -53 -8t-37.5 -16.5t-32 -16t-35.5 -7.5q-19 0 -30 9.5t-17 21.5l-24 58q60 52 127 75.5t141 23.5q51 0 91 -19.5t66.5 -53t38.5 -78t6 -94.5l-48 -393h-82 q-24 0 -35 7.5t-20 28.5l-7 37q-25 -20 -47 -35.5t-45 -25.5t-49 -15t-56 -5q-73 0 -115 38t-42 108zM294 1021q0 -27 15.5 -37.5t43.5 -10.5q35 0 62 13.5t58 42.5l10 90q-54 -2 -90.5 -9.5t-58.5 -20.5t-31 -30.5t-9 -37.5z" />
<glyph unicode="&#xab;" horiz-adv-x="855" d="M71 129zM71 535l4 30l293 405l74 -38q30 -13 31.5 -39.5t-18.5 -55.5l-157 -245q-19 -29 -37 -42q14 -16 27 -42l96 -245q13 -31 5 -57t-41 -40l-85 -37zM380 535l4 30l293 405l74 -38q30 -13 31.5 -39.5t-18.5 -55.5l-157 -245q-19 -29 -37 -42q14 -16 27 -42l96 -245 q13 -31 5 -57t-41 -40l-85 -37z" />
<glyph unicode="&#xac;" d="M135 597l22 181h904l-23 -181l-36 -290h-205l36 290h-698z" />
<glyph unicode="&#xae;" horiz-adv-x="1689" d="M102 740q0 104 27.5 201t76.5 181t118 153.5t153 118.5t180.5 76t200.5 27t201 -27t181 -76t153 -118.5t118.5 -153.5t76.5 -180.5t27 -201.5q0 -103 -27 -200t-76.5 -180.5t-118.5 -152.5t-153 -118t-180.5 -76t-201.5 -27q-104 0 -200.5 27t-180.5 76t-153 118 t-118 152.5t-76.5 180t-27.5 200.5zM241 740q0 -133 47.5 -248.5t131 -201t196 -135t242.5 -49.5t243.5 49.5t197.5 135t132.5 201t48.5 248.5q0 89 -22 171t-62 153.5t-96.5 129t-125.5 99t-149 64t-167 22.5t-166.5 -22.5t-148 -64t-124 -99t-95.5 -129t-61.5 -153.5 t-21.5 -171zM524 284v918h329q191 0 280.5 -68.5t89.5 -196.5q0 -91 -47.5 -159t-146.5 -100q24 -13 39.5 -33t30.5 -47l185 -314h-211q-45 0 -64 33l-148 270q-8 16 -22 22.5t-39 6.5h-57v-332h-219zM743 773h92q53 0 86 9t52 26t26.5 43t7.5 58t-6.5 56t-23 40t-47 23.5 t-77.5 7.5h-110v-263z" />
<glyph unicode="&#xaf;" horiz-adv-x="753" d="M236 1243l17 162h564l-18 -162h-563z" />
<glyph unicode="&#xb0;" horiz-adv-x="844" d="M130 1150q0 73 27 137t75 111t112.5 74t138.5 27q75 0 140 -27t112.5 -74t75.5 -111t28 -137q0 -71 -28 -134.5t-75.5 -111t-112.5 -75t-140 -27.5t-139 27.5t-112 75t-75 111t-27 134.5zM305 1148q0 -38 13.5 -71t37.5 -57t56 -37.5t71 -13.5q38 0 71 13.5t56.5 37.5 t36.5 57t13 71q0 39 -13 72t-36.5 58t-56.5 39t-71 14q-39 0 -71 -14t-56 -39t-37.5 -58t-13.5 -72z" />
<glyph unicode="&#xb1;" d="M32 82l21 181h998l-24 -181h-995zM111 719l21 181h398l45 366h198l-45 -366h400l-22 -181h-400l-43 -352h-198l43 352h-397z" />
<glyph unicode="&#xb2;" horiz-adv-x="684" d="M99 922zM100 922l8 57q2 16 10.5 35.5t26.5 33.5l241 213q29 25 53.5 51.5t43 53.5t29.5 54t11 53q0 33 -18.5 53.5t-51.5 20.5q-36 0 -59.5 -18t-40.5 -51q-16 -23 -34 -31.5t-53 -3.5l-95 16q15 58 44.5 100.5t69.5 71t89.5 42.5t105.5 14q54 0 95.5 -15t69.5 -41 t42.5 -62t14.5 -78q0 -47 -15.5 -86t-41.5 -73t-60 -66t-71 -64l-154 -141q30 8 58.5 13.5t51.5 5.5h142q28 0 41.5 -14.5t9.5 -40.5l-11 -103h-552z" />
<glyph unicode="&#xb3;" horiz-adv-x="684" d="M119 913zM119 1118l80 32q31 11 56 5.5t33 -25.5q4 -11 10 -24t17 -23.5t27.5 -17.5t39.5 -7q52 0 83 32t31 78q0 44 -32 62t-109 18l14 121q87 1 122.5 25.5t35.5 78.5q0 33 -18.5 52t-55.5 19q-39 0 -62.5 -17t-37.5 -47q-16 -27 -33.5 -34.5t-49.5 -2.5l-89 16 q15 58 44 100.5t68.5 71t87 42.5t99.5 14q53 0 94 -15t69 -39.5t42.5 -57t14.5 -68.5q0 -70 -30.5 -115.5t-98.5 -70.5q51 -18 76 -51.5t25 -86.5q0 -69 -26.5 -119.5t-69 -83.5t-96 -49.5t-106.5 -16.5q-55 0 -97.5 10.5t-74 34.5t-52 63t-31.5 96z" />
<glyph unicode="&#xb4;" horiz-adv-x="753" d="M388 1194l162 249q17 27 37.5 40.5t58.5 13.5h225l-263 -267q-19 -20 -36.5 -28t-44.5 -8h-139z" />
<glyph unicode="&#xb5;" horiz-adv-x="1264" d="M60 -238l158 1289h253l-80 -645q-5 -86 27.5 -136t102.5 -50q72 0 126 42.5t93 119.5l83 669h253l-91 -741q-8 -70 16 -102.5t73 -32.5h73l-12 -100q-5 -33 -49.5 -59t-117.5 -26q-40 0 -75.5 11.5t-63.5 36t-47 62t-26 88.5q-59 -83 -127.5 -128t-148.5 -45 q-101 0 -161 55q4 -43 2 -86t-7 -81l-30 -246h-125q-53 0 -79 27t-20 78z" />
<glyph unicode="&#xb6;" horiz-adv-x="1501" d="M111 1014q0 95 37.5 180t107 149t165.5 101t213 37h902l-27 -212h-220l-181 -1483h-221l181 1483h-240l-182 -1483h-221l105 859q-96 0 -173 27t-132 76.5t-84.5 117t-29.5 148.5z" />
<glyph unicode="&#xb7;" horiz-adv-x="562" d="M84 609q0 40 15 75.5t41 61.5t61 41t74 15q41 0 76.5 -15t61.5 -41t41.5 -61.5t15.5 -75.5t-15.5 -74t-41.5 -60t-61.5 -41t-76.5 -15q-40 0 -74.5 15t-60.5 41t-41 60t-15 74z" />
<glyph unicode="&#xb8;" horiz-adv-x="753" d="M170 -342l33 79q8 23 31 23q14 0 27.5 -7.5t40.5 -7.5q32 0 47.5 14.5t15.5 34.5q0 27 -31 39t-95 23l79 180h142l-39 -98q78 -20 109.5 -55t31.5 -81q0 -39 -19 -70t-52.5 -52.5t-81 -33t-103.5 -11.5q-39 0 -71.5 6t-64.5 17z" />
<glyph unicode="&#xb9;" horiz-adv-x="684" d="M191 922zM192 922l16 127h143l44 366l11 50l-90 -66q-12 -9 -24.5 -11t-23 0t-18 7t-11.5 11l-44 76l261 198h148l-78 -631h104l-14 -127h-424z" />
<glyph unicode="&#xba;" horiz-adv-x="766" d="M135 1128q0 85 26.5 153.5t74.5 116.5t112.5 74t141.5 26q62 0 113 -19.5t86.5 -56t54.5 -87.5t19 -113q0 -86 -26.5 -155t-73.5 -117.5t-111.5 -74.5t-139.5 -26q-63 0 -114.5 19.5t-87.5 56t-55.5 88t-19.5 115.5zM325 1125q0 -66 25.5 -100t78.5 -34q77 0 110.5 61 t33.5 170q0 65 -25 99.5t-74 34.5q-44 0 -73 -17t-46 -47t-23.5 -72.5t-6.5 -94.5z" />
<glyph unicode="&#xbb;" horiz-adv-x="854" d="M50 129zM52 206q-2 26 18 57l158 245q8 12 17.5 23t18.5 18q-17 16 -25 43l-100 245q-11 30 -2.5 56t41.5 39l84 38l192 -405l-3 -30l-292 -406l-75 37q-30 14 -32 40zM362 206q-2 26 18 57l158 245q8 12 17.5 23t18.5 18q-17 16 -25 43l-100 245q-11 30 -2.5 56t41.5 39 l84 38l192 -405l-3 -30l-292 -406l-75 37q-30 14 -32 40z" />
<glyph unicode="&#xbc;" horiz-adv-x="1448" d="M133 0zM134 0l960 1396q30 40 63 62t78 22h101l-970 -1407q-31 -43 -62 -58t-71 -15h-99zM148 723l16 127h143l44 366l11 50l-90 -66q-12 -9 -24.5 -11t-23 0t-18 7t-11.5 11l-44 76l261 198h148l-78 -631h104l-14 -127h-424zM725 291l403 466h169l-56 -455h97l-11 -102 q-2 -12 -12 -22.5t-26 -10.5h-65l-20 -167h-148l21 167h-297q-24 0 -36 10.5t-13 26.5zM900 302h194l21 167q3 25 8 53.5t13 60.5z" />
<glyph unicode="&#xbd;" horiz-adv-x="1429" d="M97 0zM98 0l960 1396q30 40 63 62t78 22h101l-970 -1407q-31 -43 -62 -58t-71 -15h-99zM150 723l16 127h143l44 366l11 50l-90 -66q-12 -9 -24.5 -11t-23 0t-18 7t-11.5 11l-44 76l261 198h148l-78 -631h104l-14 -127h-424zM725 0l8 57q2 16 10.5 35.5t26.5 33.5l241 213 q29 25 53.5 51.5t43 53.5t29.5 54t11 53q0 33 -18.5 53.5t-51.5 20.5q-36 0 -59.5 -18t-40.5 -51q-16 -23 -34 -31.5t-53 -3.5l-95 16q15 58 44.5 100.5t69.5 71t89.5 42.5t105.5 14q54 0 95.5 -15t69.5 -41t42.5 -62t14.5 -78q0 -47 -15.5 -86t-41.5 -73t-60 -66t-71 -64 l-154 -141q30 8 58.5 13.5t51.5 5.5h142q28 0 41.5 -14.5t9.5 -40.5l-11 -103h-552z" />
<glyph unicode="&#xbe;" horiz-adv-x="1465" d="M110 919l80 32q31 11 56 5.5t33 -25.5q4 -11 10 -24t17 -23.5t27.5 -17.5t39.5 -7q52 0 83 32t31 78q0 44 -32 62t-109 18l14 121q87 1 122.5 25.5t35.5 78.5q0 33 -18.5 52t-55.5 19q-39 0 -62.5 -17t-37.5 -47q-16 -27 -33.5 -34.5t-49.5 -2.5l-89 16q15 58 44 100.5 t68.5 71t87 42.5t99.5 14q53 0 94 -15t69 -39.5t42.5 -57t14.5 -68.5q0 -70 -30.5 -115.5t-98.5 -70.5q51 -18 76 -51.5t25 -86.5q0 -69 -26.5 -119.5t-69 -83.5t-96 -49.5t-106.5 -16.5q-55 0 -97.5 10.5t-74 34.5t-52 63t-31.5 96zM111 0zM156 0l960 1396q30 40 63 62 t78 22h101l-970 -1407q-31 -43 -62 -58t-71 -15h-99zM744 291l403 466h169l-56 -455h97l-11 -102q-2 -12 -12 -22.5t-26 -10.5h-65l-20 -167h-148l21 167h-297q-24 0 -36 10.5t-13 26.5zM919 302h194l21 167q3 25 8 53.5t13 60.5z" />
<glyph unicode="&#xbf;" horiz-adv-x="862" d="M-13 -62q0 82 23.5 140t58.5 100t78 73t82.5 57.5t69.5 53.5t40 63l42 150h166l-4 -167q-1 -47 -24.5 -83t-58.5 -66.5t-75.5 -58t-75 -58.5t-57 -69.5t-22.5 -89.5q0 -36 10.5 -63.5t28.5 -45.5t42 -27.5t51 -9.5q52 0 91 13.5t66.5 29.5t47 29t34.5 13q34 0 46 -28 l53 -104q-37 -30 -78 -57t-89 -47.5t-101.5 -32.5t-114.5 -12q-76 0 -137 20.5t-104 58.5t-66 93.5t-23 124.5zM366 913q0 32 11.5 60.5t32.5 49t49.5 33t61.5 12.5q32 0 60.5 -12.5t49.5 -33t33.5 -49t12.5 -60.5q0 -33 -12.5 -61t-33.5 -48.5t-49.5 -32t-60.5 -11.5 q-33 0 -61.5 11.5t-49.5 32t-32.5 48.5t-11.5 61z" />
<glyph unicode="&#xc0;" horiz-adv-x="1331" d="M-82 0l716 1481h271l353 -1481h-205q-35 0 -54 17t-27 43l-62 310h-552l-137 -310q-11 -24 -36 -42t-58 -18h-209zM0 0zM392 1906h244q18 0 32 -1t24 -6t18.5 -13t17.5 -22l173 -278h-168q-28 0 -42.5 3.5t-31.5 21.5zM441 557h431l-100 507q-7 35 -14.5 81t-16.5 100 q-20 -54 -40 -100.5t-34 -81.5z" />
<glyph unicode="&#xc1;" horiz-adv-x="1331" d="M-82 0l716 1481h271l353 -1481h-205q-35 0 -54 17t-27 43l-62 310h-552l-137 -310q-11 -24 -36 -42t-58 -18h-209zM0 0zM441 557h431l-100 507q-7 35 -14.5 81t-16.5 100q-20 -54 -40 -100.5t-34 -81.5zM636 1586l228 278q11 14 21.5 22.5t22 13t25.5 5.5t32 1h258 l-337 -293q-22 -18 -39 -22.5t-43 -4.5h-168z" />
<glyph unicode="&#xc2;" horiz-adv-x="1331" d="M-82 0l716 1481h271l353 -1481h-205q-35 0 -54 17t-27 43l-62 310h-552l-137 -310q-11 -24 -36 -42t-58 -18h-209zM0 0zM441 557h431l-100 507q-7 35 -14.5 81t-16.5 100q-20 -54 -40 -100.5t-34 -81.5zM459 1586l259 282h211l196 -282h-169q-14 0 -34 5.5t-38 33.5 l-64 109q-4 6 -6.5 11.5t-6.5 10.5l-16 -22l-89 -109q-26 -28 -46.5 -33.5t-34.5 -5.5h-162z" />
<glyph unicode="&#xc3;" horiz-adv-x="1331" d="M-82 0l716 1481h271l353 -1481h-205q-35 0 -54 17t-27 43l-62 310h-552l-137 -310q-11 -24 -36 -42t-58 -18h-209zM0 0zM441 557h431l-100 507q-7 35 -14.5 81t-16.5 100q-20 -54 -40 -100.5t-34 -81.5zM459 1581q6 50 24.5 97.5t48 84t67.5 58.5t86 22t82 -16.5 t60.5 -35t48.5 -35t48 -16.5q20 0 36.5 9t28 23t18.5 31t9 33h142q-6 -51 -24 -97.5t-47 -83t-67.5 -58t-86.5 -21.5t-81 16.5t-60 35.5t-49.5 35t-47.5 16q-22 0 -37.5 -9t-27 -23.5t-18 -32t-8.5 -33.5h-145z" />
<glyph unicode="&#xc4;" horiz-adv-x="1331" d="M-82 0l716 1481h271l353 -1481h-205q-35 0 -54 17t-27 43l-62 310h-552l-137 -310q-11 -24 -36 -42t-58 -18h-209zM0 0zM441 557h431l-100 507q-7 35 -14.5 81t-16.5 100q-20 -54 -40 -100.5t-34 -81.5zM442 1705q0 29 11.5 55t31 45.5t44.5 30.5t52 11q29 0 55 -11 t46 -30.5t31.5 -45.5t11.5 -55t-11.5 -54t-31.5 -44t-46 -29.5t-55 -10.5q-28 0 -52.5 10.5t-44 29.5t-31 44t-11.5 54zM851 1705q0 29 11 55t30 45.5t44.5 30.5t54.5 11q30 0 56 -11t45 -30.5t30 -45.5t11 -55t-11 -54t-30 -44t-45 -29.5t-56 -10.5q-29 0 -54.5 10.5 t-44.5 29.5t-30 44t-11 54z" />
<glyph unicode="&#xc5;" horiz-adv-x="1331" d="M-82 0l716 1481h271l353 -1481h-205q-35 0 -54 17t-27 43l-62 310h-552l-137 -310q-11 -24 -36 -42t-58 -18h-209zM0 0zM441 557h431l-100 507q-7 35 -14.5 81t-16.5 100q-20 -54 -40 -100.5t-34 -81.5zM608 1747q5 44 25 80.5t49.5 62t66 40t74.5 14.5q40 0 74.5 -14.5 t59 -40t36 -62t6.5 -80.5q-5 -43 -24.5 -78t-49 -60.5t-67.5 -39.5t-78 -14q-38 0 -72 14t-57.5 39.5t-35.5 60.5t-7 78zM719 1747q-4 -40 15 -65.5t61 -25.5q37 0 62.5 25.5t30.5 65.5q4 43 -15.5 68t-57.5 25q-41 0 -66 -25t-30 -68z" />
<glyph unicode="&#xc6;" horiz-adv-x="1784" d="M-80 0l858 1481h1031l-25 -212h-659v-422h479l-25 -204h-454v-431h529l-27 -212h-753v370h-477l-169 -310q-14 -24 -40.5 -42t-60.5 -18h-207zM500 557h374v707q-18 -46 -36.5 -85.5t-38.5 -74.5z" />
<glyph unicode="&#xc7;" horiz-adv-x="1270" d="M83 628q0 128 27.5 242t79 211t122.5 173.5t158.5 131t188.5 83t210 28.5q81 0 147.5 -15t120.5 -41.5t97.5 -64t78.5 -83.5l-92 -110q-10 -12 -24 -21.5t-35 -9.5q-23 0 -43 18.5t-51.5 40.5t-81 40.5t-130.5 18.5q-106 0 -198 -43.5t-159.5 -124.5t-106 -195 t-38.5 -257q0 -103 26.5 -185t73 -139t110 -87t137.5 -30q62 0 108.5 9.5t81.5 25t59 32.5t42.5 32.5t32.5 25t29 9.5q13 0 21 -5t14 -10l93 -116q-85 -97 -196.5 -154.5t-251.5 -69.5l-19 -50q78 -20 109.5 -55t31.5 -81q0 -39 -19 -70t-52.5 -52.5t-81 -33t-103.5 -11.5 q-39 0 -71.5 6t-64.5 17l33 79q8 23 31 23q14 0 27.5 -7.5t40.5 -7.5q32 0 47 14.5t15 34.5q0 27 -30.5 39t-95.5 23l59 131q-122 11 -216.5 63.5t-159 137t-98.5 197t-34 243.5z" />
<glyph unicode="&#xc8;" horiz-adv-x="1098" d="M79 0l182 1481h863l-26 -212h-596l-51 -421h468l-26 -204h-468l-53 -432h598l-27 -212h-864zM79 0zM366 1906h244q18 0 32 -1t24 -6t18.5 -13t17.5 -22l173 -278h-168q-28 0 -42.5 3.5t-31.5 21.5z" />
<glyph unicode="&#xc9;" horiz-adv-x="1098" d="M79 0l182 1481h863l-26 -212h-596l-51 -421h468l-26 -204h-468l-53 -432h598l-27 -212h-864zM79 0zM580 1586l228 278q11 14 21.5 22.5t22 13t25.5 5.5t32 1h258l-337 -293q-22 -18 -39 -22.5t-43 -4.5h-168z" />
<glyph unicode="&#xca;" horiz-adv-x="1098" d="M79 0l182 1481h863l-26 -212h-596l-51 -421h468l-26 -204h-468l-53 -432h598l-27 -212h-864zM79 0zM381 1586l259 282h211l196 -282h-169q-14 0 -34 5.5t-38 33.5l-64 109q-4 6 -6.5 11.5t-6.5 10.5l-16 -22l-89 -109q-26 -28 -46.5 -33.5t-34.5 -5.5h-162z" />
<glyph unicode="&#xcb;" horiz-adv-x="1098" d="M79 0l182 1481h863l-26 -212h-596l-51 -421h468l-26 -204h-468l-53 -432h598l-27 -212h-864zM79 0zM377 1705q0 29 11.5 55t31 45.5t44.5 30.5t52 11q29 0 55 -11t46 -30.5t31.5 -45.5t11.5 -55t-11.5 -54t-31.5 -44t-46 -29.5t-55 -10.5q-28 0 -52.5 10.5t-44 29.5 t-31 44t-11.5 54zM786 1705q0 29 11 55t30 45.5t44.5 30.5t54.5 11q30 0 56 -11t45 -30.5t30 -45.5t11 -55t-11 -54t-30 -44t-45 -29.5t-56 -10.5q-29 0 -54.5 10.5t-44.5 29.5t-30 44t-11 54z" />
<glyph unicode="&#xcc;" horiz-adv-x="577" d="M27 0zM27 1906h244q18 0 32 -1t24 -6t18.5 -13t17.5 -22l173 -278h-168q-28 0 -42.5 3.5t-31.5 21.5zM79 0l180 1481h267l-180 -1481h-267z" />
<glyph unicode="&#xcd;" horiz-adv-x="577" d="M79 0l180 1481h267l-180 -1481h-267zM79 0zM267 1586l228 278q11 14 21.5 22.5t22 13t25.5 5.5t32 1h258l-337 -293q-22 -18 -39 -22.5t-43 -4.5h-168z" />
<glyph unicode="&#xce;" horiz-adv-x="577" d="M75 1586l259 282h211l196 -282h-169q-14 0 -34 5.5t-38 33.5l-64 109q-4 6 -6.5 11.5t-6.5 10.5l-16 -22l-89 -109q-26 -28 -46.5 -33.5t-34.5 -5.5h-162zM76 0zM79 0l180 1481h267l-180 -1481h-267z" />
<glyph unicode="&#xcf;" horiz-adv-x="577" d="M73 0zM73 1705q0 29 11.5 55t31 45.5t44.5 30.5t52 11q29 0 55 -11t46 -30.5t31.5 -45.5t11.5 -55t-11.5 -54t-31.5 -44t-46 -29.5t-55 -10.5q-28 0 -52.5 10.5t-44 29.5t-31 44t-11.5 54zM79 0l180 1481h267l-180 -1481h-267zM482 1705q0 29 11 55t30 45.5t44.5 30.5 t54.5 11q30 0 56 -11t45 -30.5t30 -45.5t11 -55t-11 -54t-30 -44t-45 -29.5t-56 -10.5q-29 0 -54.5 10.5t-44.5 29.5t-30 44t-11 54z" />
<glyph unicode="&#xd0;" horiz-adv-x="1464" d="M8 669l20 151h167l80 661h523q141 0 254 -48.5t192.5 -133.5t121.5 -202.5t42 -256.5q0 -184 -59.5 -339t-165 -266t-251 -173t-316.5 -62h-522l82 669h-168zM388 212h255q112 0 203 43t155.5 123.5t99.5 196t35 259.5q0 99 -25 180t-71.5 137.5t-114 87.5t-153.5 31 h-256l-54 -450h337l-19 -151h-337z" />
<glyph unicode="&#xd1;" horiz-adv-x="1469" d="M79 0l182 1481h139q17 0 29 -1.5t21.5 -6.5t16.5 -13t15 -22l577 -1011q2 30 4.5 58t5.5 53l116 943h234l-182 -1481h-137q-31 0 -51 11t-37 35l-574 1011q-2 -25 -4 -48t-4 -43l-117 -966h-234zM520 1581q6 50 24.5 97.5t48 84t67.5 58.5t85 22q48 0 82.5 -16.5 t60.5 -35t48.5 -35t48.5 -16.5q20 0 36.5 9t28 23t18.5 31t9 33h142q-6 -51 -24 -97.5t-47 -83t-68 -58t-86 -21.5q-48 0 -81 16.5t-60 35.5t-49.5 35t-47.5 16q-22 0 -38 -9t-27 -23.5t-17.5 -32t-8.5 -33.5h-145z" />
<glyph unicode="&#xd2;" horiz-adv-x="1542" d="M83 0zM83 640q0 123 27 234t78 206.5t122 172t159.5 131.5t192 84t218.5 29q141 0 253.5 -50t191.5 -138t121 -208.5t42 -260.5q0 -123 -27 -234t-77.5 -206.5t-122 -172t-160 -131t-192 -83.5t-217.5 -29q-141 0 -253.5 50t-192 138t-121.5 208t-42 260zM355 646 q0 -100 24.5 -182t72 -140t115.5 -89t155 -31q112 0 203 45t155.5 127t99.5 198.5t35 259.5q0 100 -25 182t-72.5 140t-116 90t-154.5 32q-111 0 -201.5 -45t-155 -128t-100 -200t-35.5 -259zM528 1906h244q18 0 32 -1t24 -6t18.5 -13t17.5 -22l173 -278h-168 q-28 0 -42.5 3.5t-31.5 21.5z" />
<glyph unicode="&#xd3;" horiz-adv-x="1542" d="M83 0zM83 640q0 123 27 234t78 206.5t122 172t159.5 131.5t192 84t218.5 29q141 0 253.5 -50t191.5 -138t121 -208.5t42 -260.5q0 -123 -27 -234t-77.5 -206.5t-122 -172t-160 -131t-192 -83.5t-217.5 -29q-141 0 -253.5 50t-192 138t-121.5 208t-42 260zM355 646 q0 -100 24.5 -182t72 -140t115.5 -89t155 -31q112 0 203 45t155.5 127t99.5 198.5t35 259.5q0 100 -25 182t-72.5 140t-116 90t-154.5 32q-111 0 -201.5 -45t-155 -128t-100 -200t-35.5 -259zM741 1586l228 278q11 14 21.5 22.5t22 13t25.5 5.5t32 1h258l-337 -293 q-22 -18 -39 -22.5t-43 -4.5h-168z" />
<glyph unicode="&#xd4;" horiz-adv-x="1542" d="M83 0zM83 640q0 123 27 234t78 206.5t122 172t159.5 131.5t192 84t218.5 29q141 0 253.5 -50t191.5 -138t121 -208.5t42 -260.5q0 -123 -27 -234t-77.5 -206.5t-122 -172t-160 -131t-192 -83.5t-217.5 -29q-141 0 -253.5 50t-192 138t-121.5 208t-42 260zM355 646 q0 -100 24.5 -182t72 -140t115.5 -89t155 -31q112 0 203 45t155.5 127t99.5 198.5t35 259.5q0 100 -25 182t-72.5 140t-116 90t-154.5 32q-111 0 -201.5 -45t-155 -128t-100 -200t-35.5 -259zM557 1586l259 282h211l196 -282h-169q-14 0 -34 5.5t-38 33.5l-64 109 q-4 6 -6.5 11.5t-6.5 10.5l-16 -22l-89 -109q-26 -28 -46.5 -33.5t-34.5 -5.5h-162z" />
<glyph unicode="&#xd5;" horiz-adv-x="1542" d="M83 0zM83 640q0 123 27 234t78 206.5t122 172t159.5 131.5t192 84t218.5 29q141 0 253.5 -50t191.5 -138t121 -208.5t42 -260.5q0 -123 -27 -234t-77.5 -206.5t-122 -172t-160 -131t-192 -83.5t-217.5 -29q-141 0 -253.5 50t-192 138t-121.5 208t-42 260zM355 646 q0 -100 24.5 -182t72 -140t115.5 -89t155 -31q112 0 203 45t155.5 127t99.5 198.5t35 259.5q0 100 -25 182t-72.5 140t-116 90t-154.5 32q-111 0 -201.5 -45t-155 -128t-100 -200t-35.5 -259zM557 1581q6 50 24.5 97.5t48 84t67.5 58.5t86 22t82 -16.5t60.5 -35t48.5 -35 t48 -16.5q20 0 36.5 9t28 23t18.5 31t9 33h142q-6 -51 -24 -97.5t-47 -83t-67.5 -58t-86.5 -21.5t-81 16.5t-60 35.5t-49.5 35t-47.5 16q-22 0 -37.5 -9t-27 -23.5t-18 -32t-8.5 -33.5h-145z" />
<glyph unicode="&#xd6;" horiz-adv-x="1542" d="M83 0zM83 640q0 123 27 234t78 206.5t122 172t159.5 131.5t192 84t218.5 29q141 0 253.5 -50t191.5 -138t121 -208.5t42 -260.5q0 -123 -27 -234t-77.5 -206.5t-122 -172t-160 -131t-192 -83.5t-217.5 -29q-141 0 -253.5 50t-192 138t-121.5 208t-42 260zM355 646 q0 -100 24.5 -182t72 -140t115.5 -89t155 -31q112 0 203 45t155.5 127t99.5 198.5t35 259.5q0 100 -25 182t-72.5 140t-116 90t-154.5 32q-111 0 -201.5 -45t-155 -128t-100 -200t-35.5 -259zM579 1705q0 29 11.5 55t31 45.5t44.5 30.5t52 11q29 0 55 -11t46 -30.5 t31.5 -45.5t11.5 -55t-11.5 -54t-31.5 -44t-46 -29.5t-55 -10.5q-28 0 -52.5 10.5t-44 29.5t-31 44t-11.5 54zM988 1705q0 29 11 55t30 45.5t44.5 30.5t54.5 11q30 0 56 -11t45 -30.5t30 -45.5t11 -55t-11 -54t-30 -44t-45 -29.5t-56 -10.5q-29 0 -54.5 10.5t-44.5 29.5 t-30 44t-11 54z" />
<glyph unicode="&#xd7;" d="M78 336l395 352l-296 337l145 128l294 -337l377 335l114 -128l-377 -336l307 -349l-144 -128l-307 349l-396 -351z" />
<glyph unicode="&#xd8;" horiz-adv-x="1542" d="M30 -114l221 280q-82 89 -125 210t-43 264q0 123 27 234t78 206.5t122 172t159.5 131.5t192 84t218.5 29q101 0 187 -26t157 -74l66 84q15 17 27.5 30t25.5 20.5t28 11t37 3.5h136l-204 -257q72 -88 110 -202t38 -247q0 -123 -27 -234t-77.5 -206.5t-122 -172t-160 -131 t-192 -83.5t-217.5 -29q-93 0 -172 21.5t-146 60.5l-85 -108q-34 -39 -75.5 -55.5t-79.5 -16.5h-104zM355 646q0 -81 16 -148.5t46 -121.5l654 827q-45 36 -101 55.5t-123 19.5q-111 0 -201.5 -45t-155 -128t-100 -200t-35.5 -259zM525 257q83 -53 197 -53q112 0 203 45 t155.5 127t99.5 198.5t35 259.5q0 69 -11.5 128.5t-34.5 109.5z" />
<glyph unicode="&#xd9;" horiz-adv-x="1416" d="M119 0zM135 591l107 890h266l-109 -889q-10 -85 2 -155t45 -120t85.5 -77t125.5 -27q72 0 132 27t105 77t74 119.5t40 154.5l108 890h266l-109 -890q-16 -131 -69.5 -242.5t-137 -192.5t-194.5 -126.5t-243 -45.5t-232 45.5t-163.5 126.5t-89 192.5t-9.5 242.5zM457 1906 h244q18 0 32 -1t24 -6t18.5 -13t17.5 -22l173 -278h-168q-28 0 -42.5 3.5t-31.5 21.5z" />
<glyph unicode="&#xda;" horiz-adv-x="1416" d="M119 0zM135 591l107 890h266l-109 -889q-10 -85 2 -155t45 -120t85.5 -77t125.5 -27q72 0 132 27t105 77t74 119.5t40 154.5l108 890h266l-109 -890q-16 -131 -69.5 -242.5t-137 -192.5t-194.5 -126.5t-243 -45.5t-232 45.5t-163.5 126.5t-89 192.5t-9.5 242.5zM672 1586 l228 278q11 14 21.5 22.5t22 13t25.5 5.5t32 1h258l-337 -293q-22 -18 -39 -22.5t-43 -4.5h-168z" />
<glyph unicode="&#xdb;" horiz-adv-x="1416" d="M119 0zM135 591l107 890h266l-109 -889q-10 -85 2 -155t45 -120t85.5 -77t125.5 -27q72 0 132 27t105 77t74 119.5t40 154.5l108 890h266l-109 -890q-16 -131 -69.5 -242.5t-137 -192.5t-194.5 -126.5t-243 -45.5t-232 45.5t-163.5 126.5t-89 192.5t-9.5 242.5zM491 1586 l259 282h211l196 -282h-169q-14 0 -34 5.5t-38 33.5l-64 109q-4 6 -6.5 11.5t-6.5 10.5l-16 -22l-89 -109q-26 -28 -46.5 -33.5t-34.5 -5.5h-162z" />
<glyph unicode="&#xdc;" horiz-adv-x="1416" d="M119 0zM135 591l107 890h266l-109 -889q-10 -85 2 -155t45 -120t85.5 -77t125.5 -27q72 0 132 27t105 77t74 119.5t40 154.5l108 890h266l-109 -890q-16 -131 -69.5 -242.5t-137 -192.5t-194.5 -126.5t-243 -45.5t-232 45.5t-163.5 126.5t-89 192.5t-9.5 242.5zM502 1705 q0 29 11.5 55t31 45.5t44.5 30.5t52 11q29 0 55 -11t46 -30.5t31.5 -45.5t11.5 -55t-11.5 -54t-31.5 -44t-46 -29.5t-55 -10.5q-28 0 -52.5 10.5t-44 29.5t-31 44t-11.5 54zM911 1705q0 29 11 55t30 45.5t44.5 30.5t54.5 11q30 0 56 -11t45 -30.5t30 -45.5t11 -55t-11 -54 t-30 -44t-45 -29.5t-56 -10.5q-29 0 -54.5 10.5t-44.5 29.5t-30 44t-11 54z" />
<glyph unicode="&#xdd;" horiz-adv-x="1244" d="M97 0zM97 1481h237q35 0 54.5 -16.5t28.5 -44.5l190 -512q13 -38 22.5 -73t16.5 -69q16 34 34.5 68.5t42.5 73.5l318 512q14 24 38 42.5t57 18.5h220l-607 -904l-72 -577h-265l71 575zM580 1586l228 278q11 14 21.5 22.5t22 13t25.5 5.5t32 1h258l-337 -293 q-22 -18 -39 -22.5t-43 -4.5h-168z" />
<glyph unicode="&#xde;" horiz-adv-x="1184" d="M79 0l180 1481h266l-31 -258h186q124 0 214.5 -30.5t149.5 -84t87 -128t28 -162.5q0 -120 -37.5 -220t-112 -173.5t-186.5 -114.5t-261 -41h-186l-33 -269h-264zM401 475h187q79 0 136 23.5t94.5 66t55.5 101.5t18 130q0 50 -14.5 91t-44 69.5t-74 44.5t-106.5 16h-185z " />
<glyph unicode="&#xdf;" horiz-adv-x="1244" d="M72 938l11 100h170q28 92 79.5 176.5t122 149t158.5 103t189 38.5q104 0 175.5 -31t116 -77.5t64 -102.5t19.5 -105q0 -68 -22 -115.5t-54.5 -82.5t-71 -60t-70.5 -48.5t-54 -48.5t-22 -59q0 -31 20.5 -54t51 -44.5t67 -45.5t67 -57.5t51 -80.5t20.5 -112 q0 -97 -34.5 -171t-93 -124.5t-134.5 -76t-158 -25.5q-43 0 -84.5 9.5t-78.5 27t-69.5 41t-57.5 51.5l68 93q11 15 27.5 24.5t39.5 9.5t41 -13.5t39 -30t48.5 -29.5t68.5 -13q30 0 56.5 12t46 34t31 52t11.5 63q0 42 -22.5 71.5t-57 53t-74 45.5t-73.5 51t-56.5 68.5 t-22.5 98.5q0 69 23.5 116.5t59 83t76.5 64t77 59t59.5 66.5t23.5 89q0 29 -9.5 56t-30 47t-53 32t-78.5 12q-61 0 -111.5 -35t-88 -92.5t-62 -132.5t-33.5 -155l-105 -870l-53 -193q-15 -49 -44.5 -76t-85.5 -27h-101l136 1113l-94 18q-28 6 -43.5 19.5t-11.5 40.5z" />
<glyph unicode="&#xe0;" horiz-adv-x="1067" d="M36 0zM36 359q0 94 23.5 183.5t67 167.5t105 144t137.5 113t165 73t187 26q71 0 142 -10t138 -37l-125 -1019h-135q-48 0 -65 24t-17 60l9 135q-70 -109 -157 -171.5t-192 -62.5q-59 0 -110.5 23.5t-90 70t-60.5 116.5t-22 164zM289 404q0 -111 35 -162t95 -51 q42 0 82.5 29.5t76 80t66.5 119t53 147.5l40 317q-28 3 -52 3q-85 0 -157.5 -39t-125.5 -105t-83 -153.5t-30 -185.5zM439 1497h219q37 0 54.5 -14t28.5 -40l105 -249h-132q-27 0 -42.5 7.5t-30.5 28.5z" />
<glyph unicode="&#xe1;" horiz-adv-x="1067" d="M36 0zM36 359q0 94 23.5 183.5t67 167.5t105 144t137.5 113t165 73t187 26q71 0 142 -10t138 -37l-125 -1019h-135q-48 0 -65 24t-17 60l9 135q-70 -109 -157 -171.5t-192 -62.5q-59 0 -110.5 23.5t-90 70t-60.5 116.5t-22 164zM289 404q0 -111 35 -162t95 -51 q42 0 82.5 29.5t76 80t66.5 119t53 147.5l40 317q-28 3 -52 3q-85 0 -157.5 -39t-125.5 -105t-83 -153.5t-30 -185.5zM611 1194l162 249q17 27 37.5 40.5t58.5 13.5h225l-263 -267q-19 -20 -36.5 -28t-44.5 -8h-139z" />
<glyph unicode="&#xe2;" horiz-adv-x="1067" d="M36 0zM36 359q0 94 23.5 183.5t67 167.5t105 144t137.5 113t165 73t187 26q71 0 142 -10t138 -37l-125 -1019h-135q-48 0 -65 24t-17 60l9 135q-70 -109 -157 -171.5t-192 -62.5q-59 0 -110.5 23.5t-90 70t-60.5 116.5t-22 164zM289 404q0 -111 35 -162t95 -51 q42 0 82.5 29.5t76 80t66.5 119t53 147.5l40 317q-28 3 -52 3q-85 0 -157.5 -39t-125.5 -105t-83 -153.5t-30 -185.5zM367 1196l248 285h219l184 -285h-156q-13 0 -26 5.5t-25 20.5l-80 106q-5 5 -8.5 11.5t-9.5 13.5q-5 -7 -11 -13.5t-11 -11.5l-106 -106 q-13 -13 -27.5 -19.5t-28.5 -6.5h-162z" />
<glyph unicode="&#xe3;" horiz-adv-x="1067" d="M36 0zM36 359q0 94 23.5 183.5t67 167.5t105 144t137.5 113t165 73t187 26q71 0 142 -10t138 -37l-125 -1019h-135q-48 0 -65 24t-17 60l9 135q-70 -109 -157 -171.5t-192 -62.5q-59 0 -110.5 23.5t-90 70t-60.5 116.5t-22 164zM289 404q0 -111 35 -162t95 -51 q42 0 82.5 29.5t76 80t66.5 119t53 147.5l40 317q-28 3 -52 3q-85 0 -157.5 -39t-125.5 -105t-83 -153.5t-30 -185.5zM408 1222q6 57 26.5 103.5t50.5 80t67 52t79 18.5q34 0 62 -13.5t52.5 -29t44.5 -28.5t38 -13q28 0 45.5 16.5t22.5 60.5h143q-7 -57 -27 -103.5 t-49.5 -80t-66.5 -51t-79 -17.5q-34 0 -62 13t-52 28.5t-45 28.5t-39 13q-28 0 -45 -17.5t-23 -60.5h-143z" />
<glyph unicode="&#xe4;" horiz-adv-x="1067" d="M36 0zM36 359q0 94 23.5 183.5t67 167.5t105 144t137.5 113t165 73t187 26q71 0 142 -10t138 -37l-125 -1019h-135q-48 0 -65 24t-17 60l9 135q-70 -109 -157 -171.5t-192 -62.5q-59 0 -110.5 23.5t-90 70t-60.5 116.5t-22 164zM289 404q0 -111 35 -162t95 -51 q42 0 82.5 29.5t76 80t66.5 119t53 147.5l40 317q-28 3 -52 3q-85 0 -157.5 -39t-125.5 -105t-83 -153.5t-30 -185.5zM393 1323q0 30 11.5 56t31 45.5t44.5 30.5t53 11q29 0 55 -11t45.5 -30.5t31 -45.5t11.5 -56q0 -29 -11.5 -54t-31 -43.5t-46 -29t-54.5 -10.5t-53 10.5 t-44.5 29t-31 43.5t-11.5 54zM788 1323q0 30 10.5 56t30 45.5t44.5 30.5t55 11q29 0 55 -11t45 -30.5t30 -45.5t11 -56q0 -29 -11 -54t-30 -43.5t-45 -29t-55 -10.5q-30 0 -55 10.5t-44.5 29t-30 43.5t-10.5 54z" />
<glyph unicode="&#xe5;" horiz-adv-x="1067" d="M36 0zM36 359q0 94 23.5 183.5t67 167.5t105 144t137.5 113t165 73t187 26q71 0 142 -10t138 -37l-125 -1019h-135q-48 0 -65 24t-17 60l9 135q-70 -109 -157 -171.5t-192 -62.5q-59 0 -110.5 23.5t-90 70t-60.5 116.5t-22 164zM289 404q0 -111 35 -162t95 -51 q42 0 82.5 29.5t76 80t66.5 119t53 147.5l40 317q-28 3 -52 3q-85 0 -157.5 -39t-125.5 -105t-83 -153.5t-30 -185.5zM537 1357q5 47 27 86t53.5 66.5t71 43t81.5 15.5q43 0 80 -15.5t63 -43t38.5 -66.5t7.5 -86q-5 -46 -26.5 -84t-53.5 -65t-72.5 -42t-83.5 -15 q-42 0 -78 15t-61.5 42t-38.5 65t-8 84zM664 1357q-5 -39 14 -65t61 -26q38 0 63 26t30 65q5 43 -15 68t-57 25q-42 0 -66.5 -25t-29.5 -68z" />
<glyph unicode="&#xe6;" horiz-adv-x="1529" d="M4 237q0 69 29.5 135t101.5 120t191.5 89t299.5 41l5 42q13 109 -20.5 159.5t-109.5 50.5q-55 0 -93.5 -14.5t-69 -32t-55.5 -32.5t-55 -15q-25 0 -40.5 13t-24.5 31l-34 79q93 83 190.5 124.5t208.5 41.5q108 0 172 -42.5t93 -117.5q63 74 148.5 115.5t193.5 41.5 q66 0 122 -21t97.5 -58t65 -86t23.5 -104q0 -38 -11 -76.5t-37 -74t-70 -66.5t-111 -55t-160 -39.5t-216 -18.5v-7q0 -144 55 -212t155 -68q69 0 112.5 18t75.5 39.5t57 39.5t55 18q12 0 23.5 -6t21.5 -17l64 -77q-54 -54 -106 -94.5t-106.5 -66t-115 -37.5t-132.5 -12 q-99 0 -181 50t-129 154q-35 -54 -79.5 -93t-94 -64t-102.5 -36.5t-103 -11.5q-152 0 -228 65t-76 188zM240 267q0 -58 30 -87t85 -29q45 0 86 15.5t73.5 49.5t55 85.5t31.5 123.5l5 47q-108 -5 -178.5 -22t-112.5 -44t-58.5 -62.5t-16.5 -76.5zM849 611q115 9 187.5 26 t114 39.5t57 50.5t15.5 57q0 46 -29.5 76t-90.5 30q-53 0 -95 -20t-74 -56.5t-53 -87.5t-32 -115z" />
<glyph unicode="&#xe7;" horiz-adv-x="928" d="M44 423q0 85 18.5 166t53.5 152.5t84 131t110.5 102.5t133.5 67t153 24q104 0 177.5 -37t129.5 -110l-81 -97q-8 -9 -20 -16.5t-27 -7.5q-17 0 -31 10.5t-33 23t-47 23t-73 10.5q-58 0 -111.5 -31.5t-94.5 -90t-65 -140.5t-24 -181q0 -116 51 -179t139 -63q39 0 69 8.5 t53 20t40.5 25.5t32.5 25.5t29 20t30 8.5q13 0 25 -7t21 -17l64 -78q-46 -51 -88.5 -87t-85.5 -60t-89 -36t-99 -16l-19 -49q78 -20 109.5 -55t31.5 -81q0 -39 -19 -70t-52.5 -52.5t-80.5 -33t-104 -11.5q-39 0 -71.5 6t-64.5 17l33 79q9 23 32 23q14 0 27.5 -7.5t39.5 -7.5 q32 0 47.5 14.5t15.5 34.5q0 27 -31 39t-95 23l60 137q-73 13 -129 49.5t-95 91.5t-59.5 128.5t-20.5 160.5z" />
<glyph unicode="&#xe8;" horiz-adv-x="997" d="M44 0zM44 421q0 83 18 163t51.5 151.5t83 132t111.5 104.5t136 68.5t159 24.5q82 0 144 -23.5t103.5 -61t62 -83.5t20.5 -90q0 -71 -28 -129t-101 -104.5t-197.5 -79.5t-316.5 -53v-13q0 -248 210 -248q45 0 79.5 9t61 21t47.5 27.5t38.5 28t35 21t38.5 8.5q12 0 24 -6 t21 -17l64 -77q-54 -54 -106 -94.5t-106.5 -66t-115 -37.5t-130.5 -12q-92 0 -167 31t-128.5 88t-82.5 137.5t-29 179.5zM309 1497h219q37 0 54.5 -14t28.5 -40l105 -249h-132q-27 0 -42.5 7.5t-30.5 28.5zM310 603q127 17 204.5 38t120 45.5t56.5 52t14 59.5q0 15 -7 31.5 t-20.5 29t-35.5 21.5t-53 9q-51 0 -95 -21t-79.5 -59t-62 -90.5t-42.5 -115.5z" />
<glyph unicode="&#xe9;" horiz-adv-x="997" d="M44 0zM44 421q0 83 18 163t51.5 151.5t83 132t111.5 104.5t136 68.5t159 24.5q82 0 144 -23.5t103.5 -61t62 -83.5t20.5 -90q0 -71 -28 -129t-101 -104.5t-197.5 -79.5t-316.5 -53v-13q0 -248 210 -248q45 0 79.5 9t61 21t47.5 27.5t38.5 28t35 21t38.5 8.5q12 0 24 -6 t21 -17l64 -77q-54 -54 -106 -94.5t-106.5 -66t-115 -37.5t-130.5 -12q-92 0 -167 31t-128.5 88t-82.5 137.5t-29 179.5zM310 603q127 17 204.5 38t120 45.5t56.5 52t14 59.5q0 15 -7 31.5t-20.5 29t-35.5 21.5t-53 9q-51 0 -95 -21t-79.5 -59t-62 -90.5t-42.5 -115.5z M488 1194l162 249q17 27 37.5 40.5t58.5 13.5h225l-263 -267q-19 -20 -36.5 -28t-44.5 -8h-139z" />
<glyph unicode="&#xea;" horiz-adv-x="997" d="M44 0zM44 421q0 83 18 163t51.5 151.5t83 132t111.5 104.5t136 68.5t159 24.5q82 0 144 -23.5t103.5 -61t62 -83.5t20.5 -90q0 -71 -28 -129t-101 -104.5t-197.5 -79.5t-316.5 -53v-13q0 -248 210 -248q45 0 79.5 9t61 21t47.5 27.5t38.5 28t35 21t38.5 8.5q12 0 24 -6 t21 -17l64 -77q-54 -54 -106 -94.5t-106.5 -66t-115 -37.5t-130.5 -12q-92 0 -167 31t-128.5 88t-82.5 137.5t-29 179.5zM276 1196l248 285h219l184 -285h-156q-13 0 -26 5.5t-25 20.5l-80 106q-5 5 -8.5 11.5t-9.5 13.5q-5 -7 -11 -13.5t-11 -11.5l-106 -106 q-13 -13 -27.5 -19.5t-28.5 -6.5h-162zM310 603q127 17 204.5 38t120 45.5t56.5 52t14 59.5q0 15 -7 31.5t-20.5 29t-35.5 21.5t-53 9q-51 0 -95 -21t-79.5 -59t-62 -90.5t-42.5 -115.5z" />
<glyph unicode="&#xeb;" horiz-adv-x="997" d="M44 0zM44 421q0 83 18 163t51.5 151.5t83 132t111.5 104.5t136 68.5t159 24.5q82 0 144 -23.5t103.5 -61t62 -83.5t20.5 -90q0 -71 -28 -129t-101 -104.5t-197.5 -79.5t-316.5 -53v-13q0 -248 210 -248q45 0 79.5 9t61 21t47.5 27.5t38.5 28t35 21t38.5 8.5q12 0 24 -6 t21 -17l64 -77q-54 -54 -106 -94.5t-106.5 -66t-115 -37.5t-130.5 -12q-92 0 -167 31t-128.5 88t-82.5 137.5t-29 179.5zM287 1323q0 30 11.5 56t31 45.5t44.5 30.5t53 11q29 0 55 -11t45.5 -30.5t31 -45.5t11.5 -56q0 -29 -11.5 -54t-31 -43.5t-46 -29t-54.5 -10.5 t-53 10.5t-44.5 29t-31 43.5t-11.5 54zM310 603q127 17 204.5 38t120 45.5t56.5 52t14 59.5q0 15 -7 31.5t-20.5 29t-35.5 21.5t-53 9q-51 0 -95 -21t-79.5 -59t-62 -90.5t-42.5 -115.5zM682 1323q0 30 10.5 56t30 45.5t44.5 30.5t55 11q29 0 55 -11t45 -30.5t30 -45.5 t11 -56q0 -29 -11 -54t-30 -43.5t-45 -29t-55 -10.5q-30 0 -55 10.5t-44.5 29t-30 43.5t-10.5 54z" />
<glyph unicode="&#xec;" horiz-adv-x="501" d="M41 0zM41 1497h219q37 0 54.5 -14t28.5 -40l105 -249h-132q-27 0 -42.5 7.5t-30.5 28.5zM51 0l126 1051h249l-126 -1051h-249z" />
<glyph unicode="&#xed;" horiz-adv-x="501" d="M51 0l126 1051h249l-126 -1051h-249zM51 0zM182 1194l162 249q17 27 37.5 40.5t58.5 13.5h225l-263 -267q-19 -20 -36.5 -28t-44.5 -8h-139z" />
<glyph unicode="&#xee;" horiz-adv-x="501" d="M-4 1196l248 285h219l184 -285h-156q-13 0 -26 5.5t-25 20.5l-80 106q-5 5 -8.5 11.5t-9.5 13.5q-5 -7 -11 -13.5t-11 -11.5l-106 -106q-13 -13 -27.5 -19.5t-28.5 -6.5h-162zM0 0zM51 0l126 1051h249l-126 -1051h-249z" />
<glyph unicode="&#xef;" horiz-adv-x="501" d="M35 0zM35 1323q0 30 11.5 56t30.5 45.5t44 30.5t53 11q30 0 55.5 -11t45.5 -30.5t31.5 -45.5t11.5 -56q0 -29 -11.5 -54t-31.5 -43.5t-46 -29t-55 -10.5q-28 0 -53 10.5t-44 29t-30.5 43.5t-11.5 54zM51 0l126 1051h249l-126 -1051h-249zM363 1323q0 30 11 56t30 45.5 t45 30.5t54 11q29 0 55 -11t45.5 -30.5t31 -45.5t11.5 -56q0 -29 -11.5 -54t-31 -43.5t-45.5 -29t-55 -10.5t-54.5 10.5t-44.5 29t-30 43.5t-11 54z" />
<glyph unicode="&#xf0;" horiz-adv-x="1090" d="M40 415q0 110 37.5 207.5t103.5 171t156 116.5t197 43q96 0 169 -38.5t122 -115.5q-5 112 -37.5 195t-100.5 147l-212 -136l-46 80q-11 18 -5.5 36t19.5 27l119 77q-69 36 -154 61q-41 13 -48.5 38.5t10.5 60.5l37 78q96 -17 183 -51t161 -87l188 117l41 -80 q8 -17 6.5 -36t-24.5 -33l-105 -66q77 -87 120 -207t43 -277q0 -174 -38.5 -314t-111.5 -239t-180 -152t-244 -53q-89 0 -163.5 29.5t-128.5 85.5t-84 135.5t-30 179.5zM283 426q0 -60 14 -108t39.5 -80.5t61.5 -49.5t78 -17q52 0 100 21t87 69t69 126t46 192 q-10 38 -27.5 72.5t-43.5 60t-62.5 41t-84.5 15.5q-65 0 -116.5 -26.5t-87 -72.5t-54.5 -108.5t-19 -134.5z" />
<glyph unicode="&#xf1;" horiz-adv-x="1107" d="M42 0l126 1052h128q40 0 62 -19.5t22 -62.5l-6 -136q80 118 177 175.5t201 57.5q66 0 118 -26.5t85.5 -77.5t47.5 -125t2 -169l-79 -669h-253l79 669q13 102 -10.5 146.5t-86.5 44.5q-42 0 -86.5 -24t-85.5 -68.5t-75 -106.5t-56 -139l-57 -522h-253zM42 0zM319 1222 q6 57 26.5 103.5t50.5 80t67 52t79 18.5q34 0 62 -13.5t52.5 -29t44.5 -28.5t38 -13q28 0 45.5 16.5t22.5 60.5h143q-7 -57 -27 -103.5t-49.5 -80t-66.5 -51t-79 -17.5q-34 0 -62 13t-52 28.5t-45 28.5t-39 13q-28 0 -45 -17.5t-23 -60.5h-143z" />
<glyph unicode="&#xf2;" horiz-adv-x="1072" d="M45 0zM45 425q0 136 44 254t119.5 204t175.5 135t214 49q87 0 161.5 -29t128 -85.5t84 -138.5t30.5 -187q0 -135 -44 -252.5t-119 -204t-175 -136t-214 -49.5q-87 0 -161 29t-128.5 85.5t-85 138t-30.5 187.5zM298 427q0 -128 43 -188t132 -60q63 0 114.5 36.5t87.5 97.5 t55.5 142t19.5 170q0 128 -43 187.5t-132 59.5q-63 0 -114.5 -35.5t-87.5 -96.5t-55.5 -142t-19.5 -171zM342 1497h219q37 0 54.5 -14t28.5 -40l105 -249h-132q-27 0 -42.5 7.5t-30.5 28.5z" />
<glyph unicode="&#xf3;" horiz-adv-x="1072" d="M45 0zM45 425q0 136 44 254t119.5 204t175.5 135t214 49q87 0 161.5 -29t128 -85.5t84 -138.5t30.5 -187q0 -135 -44 -252.5t-119 -204t-175 -136t-214 -49.5q-87 0 -161 29t-128.5 85.5t-85 138t-30.5 187.5zM298 427q0 -128 43 -188t132 -60q63 0 114.5 36.5t87.5 97.5 t55.5 142t19.5 170q0 128 -43 187.5t-132 59.5q-63 0 -114.5 -35.5t-87.5 -96.5t-55.5 -142t-19.5 -171zM486 1194l162 249q17 27 37.5 40.5t58.5 13.5h225l-263 -267q-19 -20 -36.5 -28t-44.5 -8h-139z" />
<glyph unicode="&#xf4;" horiz-adv-x="1072" d="M45 0zM45 425q0 136 44 254t119.5 204t175.5 135t214 49q87 0 161.5 -29t128 -85.5t84 -138.5t30.5 -187q0 -135 -44 -252.5t-119 -204t-175 -136t-214 -49.5q-87 0 -161 29t-128.5 85.5t-85 138t-30.5 187.5zM295 1196l248 285h219l184 -285h-156q-13 0 -26 5.5 t-25 20.5l-80 106q-5 5 -8.5 11.5t-9.5 13.5q-5 -7 -11 -13.5t-11 -11.5l-106 -106q-13 -13 -27.5 -19.5t-28.5 -6.5h-162zM298 427q0 -128 43 -188t132 -60q63 0 114.5 36.5t87.5 97.5t55.5 142t19.5 170q0 128 -43 187.5t-132 59.5q-63 0 -114.5 -35.5t-87.5 -96.5 t-55.5 -142t-19.5 -171z" />
<glyph unicode="&#xf5;" horiz-adv-x="1072" d="M45 0zM45 425q0 136 44 254t119.5 204t175.5 135t214 49q87 0 161.5 -29t128 -85.5t84 -138.5t30.5 -187q0 -135 -44 -252.5t-119 -204t-175 -136t-214 -49.5q-87 0 -161 29t-128.5 85.5t-85 138t-30.5 187.5zM298 427q0 -128 43 -188t132 -60q63 0 114.5 36.5t87.5 97.5 t55.5 142t19.5 170q0 128 -43 187.5t-132 59.5q-63 0 -114.5 -35.5t-87.5 -96.5t-55.5 -142t-19.5 -171zM327 1222q6 57 26.5 103.5t50.5 80t67 52t79 18.5q34 0 62 -13.5t52.5 -29t44.5 -28.5t38 -13q28 0 45.5 16.5t22.5 60.5h143q-7 -57 -27 -103.5t-49.5 -80t-66.5 -51 t-79 -17.5q-34 0 -62 13t-52 28.5t-45 28.5t-39 13q-28 0 -45 -17.5t-23 -60.5h-143z" />
<glyph unicode="&#xf6;" horiz-adv-x="1072" d="M45 0zM45 425q0 136 44 254t119.5 204t175.5 135t214 49q87 0 161.5 -29t128 -85.5t84 -138.5t30.5 -187q0 -135 -44 -252.5t-119 -204t-175 -136t-214 -49.5q-87 0 -161 29t-128.5 85.5t-85 138t-30.5 187.5zM298 427q0 -128 43 -188t132 -60q63 0 114.5 36.5t87.5 97.5 t55.5 142t19.5 170q0 128 -43 187.5t-132 59.5q-63 0 -114.5 -35.5t-87.5 -96.5t-55.5 -142t-19.5 -171zM303 1323q0 30 11.5 56t31 45.5t44.5 30.5t53 11q29 0 55 -11t45.5 -30.5t31 -45.5t11.5 -56q0 -29 -11.5 -54t-31 -43.5t-46 -29t-54.5 -10.5t-53 10.5t-44.5 29 t-31 43.5t-11.5 54zM698 1323q0 30 10.5 56t30 45.5t44.5 30.5t55 11q29 0 55 -11t45 -30.5t30 -45.5t11 -56q0 -29 -11 -54t-30 -43.5t-45 -29t-55 -10.5q-30 0 -55 10.5t-44.5 29t-30 43.5t-10.5 54z" />
<glyph unicode="&#xf7;" d="M91 597l23 181h996l-23 -181h-996zM401 305q0 35 14 65.5t37 53.5t54.5 36.5t65.5 13.5q29 0 54 -10.5t43 -29t28.5 -43t10.5 -53.5q0 -36 -14.5 -66t-38 -52t-55 -35t-64.5 -13q-30 0 -54.5 10.5t-42.5 28t-28 42t-10 52.5zM492 1034q0 35 13.5 65.5t36.5 54t54.5 36.5 t66.5 13q29 0 53.5 -10.5t42.5 -29t28.5 -43t10.5 -53.5q0 -36 -14.5 -66t-38 -52t-55 -35t-64.5 -13q-30 0 -55 10.5t-42.5 28t-27 42t-9.5 52.5z" />
<glyph unicode="&#xf8;" horiz-adv-x="1070" d="M-15 -50l140 190q-39 54 -60 125.5t-21 159.5q0 136 44 254t119.5 204t175.5 135t214 49q119 0 211 -53l13 18q13 18 24.5 31t24 21.5t28 12t38.5 3.5h125l-139 -192q38 -54 58.5 -124t20.5 -157q0 -135 -44 -252.5t-119 -204t-175 -136t-213 -49.5q-59 0 -111.5 13 t-98.5 39l-11 -13q-30 -41 -71 -57.5t-80 -16.5h-93zM282 427q0 -48 8 -92l382 525q-43 29 -98 29q-63 0 -117 -34t-92.5 -95t-60.5 -146t-22 -187zM374 190q41 -27 98 -27q63 0 117 34t93 95.5t61 146t22 186.5q0 25 -2 47t-6 43z" />
<glyph unicode="&#xf9;" horiz-adv-x="1107" d="M67 0zM79 384l79 667h253l-79 -667q-13 -103 10.5 -148t85.5 -45q41 0 83.5 23t82.5 64t73.5 100.5t56.5 132.5l64 540h253l-127 -1051h-128q-90 0 -90 87l6 121q-80 -113 -174.5 -168t-195.5 -55q-66 0 -118 26.5t-86 77t-47.5 125.5t-1.5 170zM335 1497h219 q37 0 54.5 -14t28.5 -40l105 -249h-132q-27 0 -42.5 7.5t-30.5 28.5z" />
<glyph unicode="&#xfa;" horiz-adv-x="1107" d="M67 0zM79 384l79 667h253l-79 -667q-13 -103 10.5 -148t85.5 -45q41 0 83.5 23t82.5 64t73.5 100.5t56.5 132.5l64 540h253l-127 -1051h-128q-90 0 -90 87l6 121q-80 -113 -174.5 -168t-195.5 -55q-66 0 -118 26.5t-86 77t-47.5 125.5t-1.5 170zM523 1194l162 249 q17 27 37.5 40.5t58.5 13.5h225l-263 -267q-19 -20 -36.5 -28t-44.5 -8h-139z" />
<glyph unicode="&#xfb;" horiz-adv-x="1107" d="M67 0zM79 384l79 667h253l-79 -667q-13 -103 10.5 -148t85.5 -45q41 0 83.5 23t82.5 64t73.5 100.5t56.5 132.5l64 540h253l-127 -1051h-128q-90 0 -90 87l6 121q-80 -113 -174.5 -168t-195.5 -55q-66 0 -118 26.5t-86 77t-47.5 125.5t-1.5 170zM304 1196l248 285h219 l184 -285h-156q-13 0 -26 5.5t-25 20.5l-80 106q-5 5 -8.5 11.5t-9.5 13.5q-5 -7 -11 -13.5t-11 -11.5l-106 -106q-13 -13 -27.5 -19.5t-28.5 -6.5h-162z" />
<glyph unicode="&#xfc;" horiz-adv-x="1107" d="M67 0zM79 384l79 667h253l-79 -667q-13 -103 10.5 -148t85.5 -45q41 0 83.5 23t82.5 64t73.5 100.5t56.5 132.5l64 540h253l-127 -1051h-128q-90 0 -90 87l6 121q-80 -113 -174.5 -168t-195.5 -55q-66 0 -118 26.5t-86 77t-47.5 125.5t-1.5 170zM296 1323q0 30 11.5 56 t31 45.5t44.5 30.5t53 11q29 0 55 -11t45.5 -30.5t31 -45.5t11.5 -56q0 -29 -11.5 -54t-31 -43.5t-46 -29t-54.5 -10.5t-53 10.5t-44.5 29t-31 43.5t-11.5 54zM691 1323q0 30 10.5 56t30 45.5t44.5 30.5t55 11q29 0 55 -11t45 -30.5t30 -45.5t11 -56q0 -29 -11 -54 t-30 -43.5t-45 -29t-55 -10.5q-30 0 -55 10.5t-44.5 29t-30 43.5t-10.5 54z" />
<glyph unicode="&#xfd;" horiz-adv-x="1006" d="M61 0zM61 1051h212q28 0 42 -14t19 -33l129 -545q10 -52 15 -105q11 27 23 53t24 53l259 545q10 20 30 33t40 13h203l-695 -1342q-14 -27 -33.5 -39.5t-47.5 -12.5h-188l234 423zM461 1194l162 249q17 27 37.5 40.5t58.5 13.5h225l-263 -267q-19 -20 -36.5 -28t-44.5 -8 h-139z" />
<glyph unicode="&#xfe;" horiz-adv-x="1103" d="M-1 -343l227 1865h249l-84 -678q74 103 164.5 163t193.5 60q66 0 119 -24t90.5 -72t58 -122t20.5 -173q0 -89 -18.5 -175t-52 -163t-80 -141.5t-104 -111.5t-122.5 -73.5t-135 -26.5q-72 0 -128.5 25t-99.5 70l-42 -339q-4 -33 -30 -58.5t-69 -25.5h-157zM317 245 q35 -37 79.5 -52.5t88.5 -15.5q68 0 123.5 42t95 109.5t61 152t21.5 169.5q0 111 -36 164.5t-101 53.5q-42 0 -84.5 -28t-82.5 -77.5t-74 -116.5t-59 -145z" />
<glyph unicode="&#xff;" horiz-adv-x="1006" d="M61 0zM61 1051h212q28 0 42 -14t19 -33l129 -545q10 -52 15 -105q11 27 23 53t24 53l259 545q10 20 30 33t40 13h203l-695 -1342q-14 -27 -33.5 -39.5t-47.5 -12.5h-188l234 423zM259 1323q0 30 11.5 56t31 45.5t44.5 30.5t53 11q29 0 55 -11t45.5 -30.5t31 -45.5 t11.5 -56q0 -29 -11.5 -54t-31 -43.5t-46 -29t-54.5 -10.5t-53 10.5t-44.5 29t-31 43.5t-11.5 54zM654 1323q0 30 10.5 56t30 45.5t44.5 30.5t55 11q29 0 55 -11t45 -30.5t30 -45.5t11 -56q0 -29 -11 -54t-30 -43.5t-45 -29t-55 -10.5q-30 0 -55 10.5t-44.5 29t-30 43.5 t-10.5 54z" />
<glyph unicode="&#x100;" horiz-adv-x="1331" d="M-82 0l716 1481h271l353 -1481h-205q-35 0 -54 17t-27 43l-62 310h-552l-137 -310q-11 -24 -36 -42t-58 -18h-209zM0 0zM441 557h431l-100 507q-7 35 -14.5 81t-16.5 100q-20 -54 -40 -100.5t-34 -81.5zM500 1608l18 145h565l-16 -145h-567z" />
<glyph unicode="&#x101;" horiz-adv-x="1067" d="M36 0zM36 359q0 94 23.5 183.5t67 167.5t105 144t137.5 113t165 73t187 26q71 0 142 -10t138 -37l-125 -1019h-135q-48 0 -65 24t-17 60l9 135q-70 -109 -157 -171.5t-192 -62.5q-59 0 -110.5 23.5t-90 70t-60.5 116.5t-22 164zM289 404q0 -111 35 -162t95 -51 q42 0 82.5 29.5t76 80t66.5 119t53 147.5l40 317q-28 3 -52 3q-85 0 -157.5 -39t-125.5 -105t-83 -153.5t-30 -185.5zM443 1243l17 162h564l-18 -162h-563z" />
<glyph unicode="&#x102;" horiz-adv-x="1331" d="M-82 0l716 1481h271l353 -1481h-205q-35 0 -54 17t-27 43l-62 310h-552l-137 -310q-11 -24 -36 -42t-58 -18h-209zM0 0zM441 557h431l-100 507q-7 35 -14.5 81t-16.5 100q-20 -54 -40 -100.5t-34 -81.5zM505 1863h178q-3 -31 1 -54.5t17.5 -40t38 -25t61.5 -8.5 q75 0 108 33t39 95h178q-7 -66 -35 -117.5t-73 -88t-104 -55.5t-130 -19t-126 17t-92 51.5t-53 87t-8 124.5z" />
<glyph unicode="&#x103;" horiz-adv-x="1067" d="M36 0zM36 359q0 94 23.5 183.5t67 167.5t105 144t137.5 113t165 73t187 26q71 0 142 -10t138 -37l-125 -1019h-135q-48 0 -65 24t-17 60l9 135q-70 -109 -157 -171.5t-192 -62.5q-59 0 -110.5 23.5t-90 70t-60.5 116.5t-22 164zM289 404q0 -111 35 -162t95 -51 q42 0 82.5 29.5t76 80t66.5 119t53 147.5l40 317q-28 3 -52 3q-85 0 -157.5 -39t-125.5 -105t-83 -153.5t-30 -185.5zM480 1481h164q-4 -31 -1.5 -55.5t14 -41.5t34.5 -26t59 -9t60.5 9t40 26t24 41.5t12.5 55.5h162q-6 -59 -26.5 -112.5t-57.5 -93.5t-94.5 -63t-138.5 -23 t-132.5 23t-80.5 63t-37 93t-2 113z" />
<glyph unicode="&#x104;" horiz-adv-x="1331" d="M-82 0l716 1481h271l353 -1481h-26q-22 -11 -42.5 -27t-36 -35t-25.5 -41t-10 -47q0 -26 14 -41t40 -15q16 0 27 2t18.5 5t12 5.5t9.5 2.5q18 0 22 -17l26 -93q-35 -23 -84 -37.5t-102 -14.5q-88 0 -133.5 37.5t-45.5 97.5t39.5 116t118.5 102h-27q-35 0 -54 17t-27 43 l-62 310h-552l-137 -310q-11 -24 -36 -42t-58 -18h-209zM441 557h431l-100 507q-7 35 -14.5 81t-16.5 100q-20 -54 -40 -100.5t-34 -81.5z" />
<glyph unicode="&#x105;" horiz-adv-x="1068" d="M37 359q0 94 23.5 183.5t67 167.5t105 144t137.5 113t165 73t187 26q71 0 142 -10t138 -37l-125 -1019h-30q-22 -11 -42.5 -27t-36 -35t-25.5 -41t-10 -47q0 -26 14 -41t40 -15q16 0 27 2t18.5 5t12 5.5t9.5 2.5q18 0 22 -17l26 -93q-35 -23 -84 -37.5t-102 -14.5 q-88 0 -133.5 37.5t-45.5 97.5q0 61 42.5 118.5t125.5 104.5q-26 8 -35.5 29.5t-9.5 49.5l9 135q-70 -109 -157 -171.5t-191 -62.5q-59 0 -111 23.5t-90.5 70t-60.5 116.5t-22 164zM290 404q0 -111 35 -162t95 -51q42 0 82.5 29.5t76 80t66.5 119t53 147.5l40 317 q-28 3 -52 3q-85 0 -157.5 -39t-125.5 -105t-83 -153.5t-30 -185.5z" />
<glyph unicode="&#x106;" horiz-adv-x="1270" d="M83 0zM83 628q0 128 27.5 242t79 211t122.5 173.5t158.5 131t188.5 83t210 28.5q81 0 147.5 -15t120.5 -41.5t97.5 -64t78.5 -83.5l-92 -110q-10 -12 -24 -21.5t-35 -9.5q-23 0 -43 18.5t-51.5 40.5t-81 40.5t-130.5 18.5q-106 0 -198 -43.5t-159.5 -124.5t-106 -195 t-38.5 -257q0 -103 26.5 -185t73 -139t109.5 -87t138 -30q62 0 108.5 9.5t81.5 25t59 32.5t42.5 32.5t32.5 25t29 9.5q13 0 21 -5t14 -10l93 -116q-96 -111 -226.5 -169.5t-299.5 -58.5q-137 0 -243.5 48.5t-179.5 134.5t-111.5 203.5t-38.5 257.5zM717 1586l228 278 q11 14 21.5 22.5t22 13t25.5 5.5t32 1h258l-337 -293q-22 -18 -39 -22.5t-43 -4.5h-168z" />
<glyph unicode="&#x107;" horiz-adv-x="928" d="M44 0zM44 423q0 85 18.5 166t53.5 152.5t84 131t110.5 102.5t133.5 67t153 24q104 0 177.5 -37t129.5 -110l-81 -97q-8 -9 -20 -16.5t-27 -7.5q-17 0 -31 10.5t-33 23t-47 23t-73 10.5q-58 0 -111.5 -31.5t-94.5 -90t-65 -140.5t-24 -181q0 -116 51 -179t139 -63 q39 0 69 8.5t53 20t40.5 25.5t32.5 25.5t29 20t30 8.5q13 0 25 -7t21 -17l64 -78q-52 -57 -100 -96t-97 -62.5t-102.5 -33t-118.5 -9.5q-91 0 -163 31t-122.5 88.5t-77 138.5t-26.5 180zM483 1194l162 249q17 27 37.5 40.5t58.5 13.5h225l-263 -267q-19 -20 -36.5 -28 t-44.5 -8h-139z" />
<glyph unicode="&#x108;" horiz-adv-x="1270" d="M83 0zM83 628q0 128 27.5 242t79 211t122.5 173.5t158.5 131t188.5 83t210 28.5q81 0 147.5 -15t120.5 -41.5t97.5 -64t78.5 -83.5l-92 -110q-10 -12 -24 -21.5t-35 -9.5q-23 0 -43 18.5t-51.5 40.5t-81 40.5t-130.5 18.5q-106 0 -198 -43.5t-159.5 -124.5t-106 -195 t-38.5 -257q0 -103 26.5 -185t73 -139t109.5 -87t138 -30q62 0 108.5 9.5t81.5 25t59 32.5t42.5 32.5t32.5 25t29 9.5q13 0 21 -5t14 -10l93 -116q-96 -111 -226.5 -169.5t-299.5 -58.5q-137 0 -243.5 48.5t-179.5 134.5t-111.5 203.5t-38.5 257.5zM537 1586l259 282h211 l196 -282h-169q-14 0 -34 5.5t-38 33.5l-64 109q-4 6 -6.5 11.5t-6.5 10.5l-16 -22l-89 -109q-26 -28 -46.5 -33.5t-34.5 -5.5h-162z" />
<glyph unicode="&#x109;" horiz-adv-x="928" d="M44 0zM44 423q0 85 18.5 166t53.5 152.5t84 131t110.5 102.5t133.5 67t153 24q104 0 177.5 -37t129.5 -110l-81 -97q-8 -9 -20 -16.5t-27 -7.5q-17 0 -31 10.5t-33 23t-47 23t-73 10.5q-58 0 -111.5 -31.5t-94.5 -90t-65 -140.5t-24 -181q0 -116 51 -179t139 -63 q39 0 69 8.5t53 20t40.5 25.5t32.5 25.5t29 20t30 8.5q13 0 25 -7t21 -17l64 -78q-52 -57 -100 -96t-97 -62.5t-102.5 -33t-118.5 -9.5q-91 0 -163 31t-122.5 88.5t-77 138.5t-26.5 180zM284 1196l248 285h219l184 -285h-156q-13 0 -26 5.5t-25 20.5l-80 106q-5 5 -8.5 11.5 t-9.5 13.5q-5 -7 -11 -13.5t-11 -11.5l-106 -106q-13 -13 -27.5 -19.5t-28.5 -6.5h-162z" />
<glyph unicode="&#x10a;" horiz-adv-x="1270" d="M83 0zM83 628q0 128 27.5 242t79 211t122.5 173.5t158.5 131t188.5 83t210 28.5q81 0 147.5 -15t120.5 -41.5t97.5 -64t78.5 -83.5l-92 -110q-10 -12 -24 -21.5t-35 -9.5q-23 0 -43 18.5t-51.5 40.5t-81 40.5t-130.5 18.5q-106 0 -198 -43.5t-159.5 -124.5t-106 -195 t-38.5 -257q0 -103 26.5 -185t73 -139t109.5 -87t138 -30q62 0 108.5 9.5t81.5 25t59 32.5t42.5 32.5t32.5 25t29 9.5q13 0 21 -5t14 -10l93 -116q-96 -111 -226.5 -169.5t-299.5 -58.5q-137 0 -243.5 48.5t-179.5 134.5t-111.5 203.5t-38.5 257.5zM766 1734q0 33 13 62 t34.5 51.5t50 35t57.5 12.5q31 0 60 -12.5t51 -34.5t35 -51t13 -63q0 -33 -13.5 -62t-36.5 -50.5t-51.5 -34.5t-59.5 -13q-30 0 -57.5 13t-49 34.5t-34 50.5t-12.5 62z" />
<glyph unicode="&#x10b;" horiz-adv-x="928" d="M44 0zM44 423q0 85 18.5 166t53.5 152.5t84 131t110.5 102.5t133.5 67t153 24q104 0 177.5 -37t129.5 -110l-81 -97q-8 -9 -20 -16.5t-27 -7.5q-17 0 -31 10.5t-33 23t-47 23t-73 10.5q-58 0 -111.5 -31.5t-94.5 -90t-65 -140.5t-24 -181q0 -116 51 -179t139 -63 q39 0 69 8.5t53 20t40.5 25.5t32.5 25.5t29 20t30 8.5q13 0 25 -7t21 -17l64 -78q-52 -57 -100 -96t-97 -62.5t-102.5 -33t-118.5 -9.5q-91 0 -163 31t-122.5 88.5t-77 138.5t-26.5 180zM464 1357q0 33 13 62.5t34.5 51.5t50 35t57.5 13q31 0 60 -13t51 -34.5t35 -51 t13 -63.5q0 -33 -13.5 -61.5t-36 -50t-51 -34.5t-59.5 -13q-30 0 -58 13t-49.5 34.5t-34 50t-12.5 61.5z" />
<glyph unicode="&#x10c;" horiz-adv-x="1270" d="M83 0zM83 628q0 128 27.5 242t79 211t122.5 173.5t158.5 131t188.5 83t210 28.5q81 0 147.5 -15t120.5 -41.5t97.5 -64t78.5 -83.5l-92 -110q-10 -12 -24 -21.5t-35 -9.5q-23 0 -43 18.5t-51.5 40.5t-81 40.5t-130.5 18.5q-106 0 -198 -43.5t-159.5 -124.5t-106 -195 t-38.5 -257q0 -103 26.5 -185t73 -139t109.5 -87t138 -30q62 0 108.5 9.5t81.5 25t59 32.5t42.5 32.5t32.5 25t29 9.5q13 0 21 -5t14 -10l93 -116q-96 -111 -226.5 -169.5t-299.5 -58.5q-137 0 -243.5 48.5t-179.5 134.5t-111.5 203.5t-38.5 257.5zM579 1868h169 q14 0 33.5 -4t32.5 -27l71 -120q3 -6 6 -11t5 -10l17 21l96 119q17 23 38 27.5t36 4.5h169l-259 -282h-219z" />
<glyph unicode="&#x10d;" horiz-adv-x="928" d="M44 0zM44 423q0 85 18.5 166t53.5 152.5t84 131t110.5 102.5t133.5 67t153 24q104 0 177.5 -37t129.5 -110l-81 -97q-8 -9 -20 -16.5t-27 -7.5q-17 0 -31 10.5t-33 23t-47 23t-73 10.5q-58 0 -111.5 -31.5t-94.5 -90t-65 -140.5t-24 -181q0 -116 51 -179t139 -63 q39 0 69 8.5t53 20t40.5 25.5t32.5 25.5t29 20t30 8.5q13 0 25 -7t21 -17l64 -78q-52 -57 -100 -96t-97 -62.5t-102.5 -33t-118.5 -9.5q-91 0 -163 31t-122.5 88.5t-77 138.5t-26.5 180zM297 1481h161q14 0 26.5 -5.5t18.5 -12.5l86 -113l17 -26l12 14t12 12l112 113 q8 6 21.5 12t28.5 6h154l-247 -285h-219z" />
<glyph unicode="&#x10e;" horiz-adv-x="1449" d="M79 0l182 1481h522q141 0 254.5 -48.5t192.5 -133.5t121.5 -202.5t42.5 -256.5q0 -184 -59.5 -339t-165.5 -266t-251.5 -173t-317.5 -62h-521zM79 0zM372 212h255q112 0 203 43t156 123.5t100 196t35 259.5q0 99 -24.5 180t-71 137.5t-114 87.5t-154.5 31h-254zM466 1868 h169q14 0 33.5 -4t32.5 -27l71 -120q3 -6 6 -11t5 -10l17 21l96 119q17 23 38 27.5t36 4.5h169l-259 -282h-219z" />
<glyph unicode="&#x10f;" horiz-adv-x="1104" d="M42 377q0 89 18.5 174.5t52 162.5t80.5 141.5t104 111.5t122 73.5t135 26.5q71 0 128 -25.5t100 -70.5l69 551h248l-189 -1522h-134q-48 0 -65 24t-17 60l8 146q-38 -56 -80.5 -101.5t-89.5 -77.5t-97.5 -49t-103.5 -17q-66 0 -119 24t-91 72t-58.5 121.5t-20.5 174.5z M293 401q0 -111 36 -164.5t101 -53.5q41 0 83.5 28.5t82.5 78t75 117t59 145.5l32 254q-35 38 -80 53t-89 15q-68 0 -123 -41.5t-94.5 -109.5t-61 -152.5t-21.5 -169.5zM1104 1170l102 353h140q24 0 30 -10.5t6 -20.5q0 -9 -3.5 -23t-16 -43t-38 -79.5t-68.5 -131.5 q-17 -30 -37.5 -37.5t-52.5 -7.5h-62z" />
<glyph unicode="&#x110;" horiz-adv-x="1464" d="M8 669l20 151h167l80 661h523q141 0 254 -48.5t192.5 -133.5t121.5 -202.5t42 -256.5q0 -184 -59.5 -339t-165 -266t-251 -173t-316.5 -62h-522l82 669h-168zM388 212h255q112 0 203 43t155.5 123.5t99.5 196t35 259.5q0 99 -25 180t-71.5 137.5t-114 87.5t-153.5 31 h-256l-54 -450h337l-19 -151h-337z" />
<glyph unicode="&#x111;" horiz-adv-x="1104" d="M42 377q0 89 18.5 172.5t52 156.5t80.5 134t104 105t122 68t135 24t126 -25t99 -68l27 216h-126q-50 0 -68 20.5t-11 66.5l10 65h213l27 210h248l-27 -210h129l-17 -152h-130l-144 -1160h-134q-48 0 -65 24t-17 60l8 146q-38 -56 -80.5 -101.5t-89.5 -77.5t-97.5 -49 t-103.5 -17q-66 0 -119 24t-91 72t-58.5 121.5t-20.5 174.5zM293 401q0 -111 36 -164.5t101 -53.5q41 0 83.5 28.5t82.5 78t75 117t59 145.5l29 227q-35 36 -79 50.5t-87 14.5q-68 0 -123 -37.5t-94.5 -99t-61 -141.5t-21.5 -165z" />
<glyph unicode="&#x112;" horiz-adv-x="1098" d="M79 0l182 1481h863l-26 -212h-596l-51 -421h468l-26 -204h-468l-53 -432h598l-27 -212h-864zM79 0zM440 1608l18 145h565l-16 -145h-567z" />
<glyph unicode="&#x113;" horiz-adv-x="997" d="M44 0zM44 421q0 83 18 163t51.5 151.5t83 132t111.5 104.5t136 68.5t159 24.5q82 0 144 -23.5t103.5 -61t62 -83.5t20.5 -90q0 -71 -28 -129t-101 -104.5t-197.5 -79.5t-316.5 -53v-13q0 -248 210 -248q45 0 79.5 9t61 21t47.5 27.5t38.5 28t35 21t38.5 8.5q12 0 24 -6 t21 -17l64 -77q-54 -54 -106 -94.5t-106.5 -66t-115 -37.5t-130.5 -12q-92 0 -167 31t-128.5 88t-82.5 137.5t-29 179.5zM310 603q127 17 204.5 38t120 45.5t56.5 52t14 59.5q0 15 -7 31.5t-20.5 29t-35.5 21.5t-53 9q-51 0 -95 -21t-79.5 -59t-62 -90.5t-42.5 -115.5z M333 1243l17 162h564l-18 -162h-563z" />
<glyph unicode="&#x114;" horiz-adv-x="1098" d="M79 0l182 1481h863l-26 -212h-596l-51 -421h468l-26 -204h-468l-53 -432h598l-27 -212h-864zM79 0zM442 1863h178q-3 -31 1 -54.5t17.5 -40t38 -25t61.5 -8.5q75 0 108 33t39 95h178q-7 -66 -35 -117.5t-73 -88t-104 -55.5t-130 -19t-126 17t-92 51.5t-53 87t-8 124.5z " />
<glyph unicode="&#x115;" horiz-adv-x="997" d="M44 0zM44 421q0 83 18 163t51.5 151.5t83 132t111.5 104.5t136 68.5t159 24.5q82 0 144 -23.5t103.5 -61t62 -83.5t20.5 -90q0 -71 -28 -129t-101 -104.5t-197.5 -79.5t-316.5 -53v-13q0 -248 210 -248q45 0 79.5 9t61 21t47.5 27.5t38.5 28t35 21t38.5 8.5q12 0 24 -6 t21 -17l64 -77q-54 -54 -106 -94.5t-106.5 -66t-115 -37.5t-130.5 -12q-92 0 -167 31t-128.5 88t-82.5 137.5t-29 179.5zM310 603q127 17 204.5 38t120 45.5t56.5 52t14 59.5q0 15 -7 31.5t-20.5 29t-35.5 21.5t-53 9q-51 0 -95 -21t-79.5 -59t-62 -90.5t-42.5 -115.5z M348 1481h164q-4 -31 -1.5 -55.5t14 -41.5t34.5 -26t59 -9t60.5 9t40 26t24 41.5t12.5 55.5h162q-6 -59 -26.5 -112.5t-57.5 -93.5t-94.5 -63t-138.5 -23t-132.5 23t-80.5 63t-37 93t-2 113z" />
<glyph unicode="&#x116;" horiz-adv-x="1098" d="M79 0l182 1481h863l-26 -212h-596l-51 -421h468l-26 -204h-468l-53 -432h598l-27 -212h-864zM79 0zM573 1734q0 33 13 62t34.5 51.5t50 35t57.5 12.5q31 0 60 -12.5t51 -34.5t35 -51t13 -63q0 -33 -13.5 -62t-36.5 -50.5t-51.5 -34.5t-59.5 -13q-30 0 -57.5 13t-49 34.5 t-34 50.5t-12.5 62z" />
<glyph unicode="&#x117;" horiz-adv-x="997" d="M44 0zM44 421q0 83 18 163t51.5 151.5t83 132t111.5 104.5t136 68.5t159 24.5q82 0 144 -23.5t103.5 -61t62 -83.5t20.5 -90q0 -71 -28 -129t-101 -104.5t-197.5 -79.5t-316.5 -53v-13q0 -248 210 -248q45 0 79.5 9t61 21t47.5 27.5t38.5 28t35 21t38.5 8.5q12 0 24 -6 t21 -17l64 -77q-54 -54 -106 -94.5t-106.5 -66t-115 -37.5t-130.5 -12q-92 0 -167 31t-128.5 88t-82.5 137.5t-29 179.5zM310 603q127 17 204.5 38t120 45.5t56.5 52t14 59.5q0 15 -7 31.5t-20.5 29t-35.5 21.5t-53 9q-51 0 -95 -21t-79.5 -59t-62 -90.5t-42.5 -115.5z M470 1357q0 33 13 62.5t34.5 51.5t50 35t57.5 13q31 0 60 -13t51 -34.5t35 -51t13 -63.5q0 -33 -13.5 -61.5t-36 -50t-51 -34.5t-59.5 -13q-30 0 -58 13t-49.5 34.5t-34 50t-12.5 61.5z" />
<glyph unicode="&#x118;" horiz-adv-x="1098" d="M79 0l182 1481h863l-26 -212h-596l-51 -421h468l-26 -204h-468l-53 -432h598l-27 -212h-52q-22 -11 -42.5 -27t-36 -35t-25.5 -41t-10 -47q0 -26 14 -41t40 -15q16 0 27 2t18.5 5t12 5.5t9.5 2.5q18 0 22 -17l26 -93q-35 -23 -84 -37.5t-102 -14.5q-88 0 -133.5 37.5 t-45.5 97.5t39.5 116t118.5 102h-660z" />
<glyph unicode="&#x119;" horiz-adv-x="997" d="M44 421q0 83 18 163t51.5 151.5t83 132t111.5 104.5t136 68.5t159 24.5q82 0 144 -23.5t103.5 -61t62 -83.5t20.5 -90q0 -71 -28 -129t-101 -104.5t-197.5 -79.5t-316.5 -53v-13q0 -248 210 -248q45 0 79.5 9t61 21t47.5 27.5t38.5 28t35 21t38.5 8.5q12 0 24 -6t21 -17 l64 -77q-79 -79 -153 -127.5t-160 -67.5h1q-22 -11 -42 -27t-36 -35t-26 -41t-10 -47q0 -26 14 -41t41 -15q16 0 26.5 2t18 5t12 5.5t9.5 2.5q18 0 22 -17l26 -93q-35 -23 -84 -37.5t-102 -14.5q-88 0 -133.5 37.5t-45.5 97.5q0 55 34 107.5t102 96.5q-86 4 -156 37 t-119.5 89.5t-76.5 135t-27 173.5zM310 603q127 17 204.5 38t120 45.5t56.5 52t14 59.5q0 15 -7 31.5t-20.5 29t-35.5 21.5t-53 9q-51 0 -95 -21t-79.5 -59t-62 -90.5t-42.5 -115.5z" />
<glyph unicode="&#x11a;" horiz-adv-x="1098" d="M79 0l182 1481h863l-26 -212h-596l-51 -421h468l-26 -204h-468l-53 -432h598l-27 -212h-864zM79 0zM408 1868h169q14 0 33.5 -4t32.5 -27l71 -120q3 -6 6 -11t5 -10l17 21l96 119q17 23 38 27.5t36 4.5h169l-259 -282h-219z" />
<glyph unicode="&#x11b;" horiz-adv-x="997" d="M44 0zM44 421q0 83 18 163t51.5 151.5t83 132t111.5 104.5t136 68.5t159 24.5q82 0 144 -23.5t103.5 -61t62 -83.5t20.5 -90q0 -71 -28 -129t-101 -104.5t-197.5 -79.5t-316.5 -53v-13q0 -248 210 -248q45 0 79.5 9t61 21t47.5 27.5t38.5 28t35 21t38.5 8.5q12 0 24 -6 t21 -17l64 -77q-54 -54 -106 -94.5t-106.5 -66t-115 -37.5t-130.5 -12q-92 0 -167 31t-128.5 88t-82.5 137.5t-29 179.5zM298 1481h161q14 0 26.5 -5.5t18.5 -12.5l86 -113l17 -26l12 14t12 12l112 113q8 6 21.5 12t28.5 6h154l-247 -285h-219zM310 603q127 17 204.5 38 t120 45.5t56.5 52t14 59.5q0 15 -7 31.5t-20.5 29t-35.5 21.5t-53 9q-51 0 -95 -21t-79.5 -59t-62 -90.5t-42.5 -115.5z" />
<glyph unicode="&#x11c;" horiz-adv-x="1387" d="M83 640q0 125 27.5 237t78.5 207.5t122.5 171.5t159.5 130t191 82.5t216 28.5q90 0 163 -16t132.5 -43.5t106.5 -64.5t84 -78l-86 -110q-20 -29 -50 -35.5t-61 13.5q-30 19 -59.5 38.5t-64.5 34.5t-80 24.5t-106 9.5q-111 0 -203 -44.5t-158.5 -126t-103.5 -195.5 t-37 -255q0 -106 27.5 -190t76.5 -142.5t118 -89.5t154 -31q83 0 146.5 15.5t121.5 44.5l35 283h-164q-26 0 -38.5 13.5t-10.5 34.5l18 151h460l-73 -595q-113 -82 -243 -120.5t-297 -38.5q-136 0 -247 49t-190.5 136.5t-122.5 208t-43 262.5zM546 1586l259 282h211 l195 -282h-169q-14 0 -34 5.5t-37 33.5l-65 109q-4 6 -6.5 11.5t-5.5 10.5l-16 -22l-90 -109q-26 -28 -46 -33.5t-34 -5.5h-162z" />
<glyph unicode="&#x11d;" horiz-adv-x="1029" d="M-65 -100q0 72 31 125t82 89.5t117.5 58t138.5 30t143.5 6.5t133.5 -12q-9 32 -10 67q0 59 33 131q-40 -27 -89.5 -41t-118.5 -14q-59 0 -113 19.5t-95 59.5t-65 100t-24 139q0 77 29 150.5t85 131t139 92.5t193 35q58 0 111 -14t97 -40h294l-12 -82q-7 -49 -50 -66 l-107 -28q5 -20 7.5 -43t2.5 -48q0 -47 -10.5 -84t-25 -69t-32 -60t-32.5 -57.5t-25 -61.5t-10 -71q0 -42 17 -77.5t37.5 -72t38 -78.5t17.5 -98q-1 -78 -35.5 -148t-99.5 -122.5t-159.5 -83.5t-213.5 -31q-96 0 -174 20t-132 56t-84 84.5t-30 107.5zM0 0zM175 -69 q0 -61 49.5 -93t152.5 -32q57 0 104 14.5t81 40t52.5 60.5t18.5 75q0 14 -1.5 28t-3.5 26q-121 20 -207 17.5t-140.5 -21t-80 -49.5t-25.5 -66zM270 1196l248 285h219l184 -285h-156q-13 0 -26 5.5t-25 20.5l-80 106q-5 5 -8.5 11.5t-9.5 13.5q-5 -7 -11 -13.5t-11 -11.5 l-106 -106q-13 -13 -27.5 -19.5t-28.5 -6.5h-162zM330 657q0 -79 35.5 -121.5t102.5 -42.5q46 0 81 21.5t59 56t36 78t13 88.5q0 77 -36 118t-105 41q-46 0 -81 -20t-58.5 -53t-35 -76.5t-11.5 -89.5z" />
<glyph unicode="&#x11e;" horiz-adv-x="1387" d="M83 640q0 125 27.5 237t78.5 207.5t122.5 171.5t159.5 130t191 82.5t216 28.5q90 0 163 -16t132.5 -43.5t106.5 -64.5t84 -78l-86 -110q-20 -29 -50 -35.5t-61 13.5q-30 19 -59.5 38.5t-64.5 34.5t-80 24.5t-106 9.5q-111 0 -203 -44.5t-158.5 -126t-103.5 -195.5 t-37 -255q0 -106 27.5 -190t76.5 -142.5t118 -89.5t154 -31q83 0 146.5 15.5t121.5 44.5l35 283h-164q-26 0 -38.5 13.5t-10.5 34.5l18 151h460l-73 -595q-113 -82 -243 -120.5t-297 -38.5q-136 0 -247 49t-190.5 136.5t-122.5 208t-43 262.5zM589 1863h177q-3 -31 1 -54.5 t18 -40t38 -25t62 -8.5q75 0 107.5 33t38.5 95h178q-7 -66 -35 -117.5t-72.5 -88t-104 -55.5t-130.5 -19t-126 17t-92 51.5t-52.5 87t-7.5 124.5z" />
<glyph unicode="&#x11f;" horiz-adv-x="1029" d="M-65 -100q0 72 31 125t82 89.5t117.5 58t138.5 30t143.5 6.5t133.5 -12q-9 32 -10 67q0 59 33 131q-40 -27 -89.5 -41t-118.5 -14q-59 0 -113 19.5t-95 59.5t-65 100t-24 139q0 77 29 150.5t85 131t139 92.5t193 35q58 0 111 -14t97 -40h294l-12 -82q-7 -49 -50 -66 l-107 -28q5 -20 7.5 -43t2.5 -48q0 -47 -10.5 -84t-25 -69t-32 -60t-32.5 -57.5t-25 -61.5t-10 -71q0 -42 17 -77.5t37.5 -72t38 -78.5t17.5 -98q-1 -78 -35.5 -148t-99.5 -122.5t-159.5 -83.5t-213.5 -31q-96 0 -174 20t-132 56t-84 84.5t-30 107.5zM0 0zM175 -69 q0 -61 49.5 -93t152.5 -32q57 0 104 14.5t81 40t52.5 60.5t18.5 75q0 14 -1.5 28t-3.5 26q-121 20 -207 17.5t-140.5 -21t-80 -49.5t-25.5 -66zM330 657q0 -79 35.5 -121.5t102.5 -42.5q46 0 81 21.5t59 56t36 78t13 88.5q0 77 -36 118t-105 41q-46 0 -81 -20t-58.5 -53 t-35 -76.5t-11.5 -89.5zM331 1481h164q-4 -31 -1.5 -55.5t14 -41.5t34.5 -26t59 -9t60.5 9t40 26t24 41.5t12.5 55.5h162q-6 -59 -26.5 -112.5t-57.5 -93.5t-94.5 -63t-138.5 -23t-132.5 23t-80.5 63t-37 93t-2 113z" />
<glyph unicode="&#x120;" horiz-adv-x="1387" d="M83 640q0 125 27.5 237t78.5 207.5t122.5 171.5t159.5 130t191 82.5t216 28.5q90 0 163 -16t132.5 -43.5t106.5 -64.5t84 -78l-86 -110q-20 -29 -50 -35.5t-61 13.5q-30 19 -59.5 38.5t-64.5 34.5t-80 24.5t-106 9.5q-111 0 -203 -44.5t-158.5 -126t-103.5 -195.5 t-37 -255q0 -106 27.5 -190t76.5 -142.5t118 -89.5t154 -31q83 0 146.5 15.5t121.5 44.5l35 283h-164q-26 0 -38.5 13.5t-10.5 34.5l18 151h460l-73 -595q-113 -82 -243 -120.5t-297 -38.5q-136 0 -247 49t-190.5 136.5t-122.5 208t-43 262.5zM744 1734q0 33 13.5 62 t35 51.5t49.5 35t58 12.5q31 0 59.5 -12.5t50.5 -34.5t35.5 -51t13.5 -63q0 -33 -14 -62.5t-36.5 -51t-51 -34t-59.5 -12.5q-30 0 -57.5 12.5t-49 34t-34.5 51t-13 62.5z" />
<glyph unicode="&#x121;" horiz-adv-x="1029" d="M-65 -100q0 72 31 125t82 89.5t117.5 58t138.5 30t143.5 6.5t133.5 -12q-9 32 -10 67q0 59 33 131q-40 -27 -89.5 -41t-118.5 -14q-59 0 -113 19.5t-95 59.5t-65 100t-24 139q0 77 29 150.5t85 131t139 92.5t193 35q58 0 111 -14t97 -40h294l-12 -82q-7 -49 -50 -66 l-107 -28q5 -20 7.5 -43t2.5 -48q0 -47 -10.5 -84t-25 -69t-32 -60t-32.5 -57.5t-25 -61.5t-10 -71q0 -42 17 -77.5t37.5 -72t38 -78.5t17.5 -98q-1 -78 -35.5 -148t-99.5 -122.5t-159.5 -83.5t-213.5 -31q-96 0 -174 20t-132 56t-84 84.5t-30 107.5zM0 0zM175 -69 q0 -61 49.5 -93t152.5 -32q57 0 104 14.5t81 40t52.5 60.5t18.5 75q0 14 -1.5 28t-3.5 26q-121 20 -207 17.5t-140.5 -21t-80 -49.5t-25.5 -66zM330 657q0 -79 35.5 -121.5t102.5 -42.5q46 0 81 21.5t59 56t36 78t13 88.5q0 77 -36 118t-105 41q-46 0 -81 -20t-58.5 -53 t-35 -76.5t-11.5 -89.5zM452 1357q0 33 13 62.5t34.5 51.5t50 35t57.5 13q31 0 60 -13t51 -34.5t35 -51t13 -63.5q0 -33 -13.5 -61.5t-36 -50t-51 -34.5t-59.5 -13q-30 0 -58 13t-49.5 34.5t-34 50t-12.5 61.5z" />
<glyph unicode="&#x122;" horiz-adv-x="1387" d="M83 640q0 125 27.5 237t78.5 207.5t122.5 171.5t159.5 130t191 82.5t216 28.5q90 0 163 -16t132.5 -43.5t106.5 -64.5t84 -78l-86 -110q-20 -29 -50 -35.5t-61 13.5q-30 19 -59.5 38.5t-64.5 34.5t-80 24.5t-106 9.5q-111 0 -203 -44.5t-158.5 -126t-103.5 -195.5 t-37 -255q0 -106 27.5 -190t76.5 -142.5t118 -89.5t154 -31q83 0 146.5 15.5t121.5 44.5l35 283h-164q-26 0 -38.5 13.5t-10.5 34.5l18 151h460l-73 -595q-113 -82 -243 -120.5t-297 -38.5q-136 0 -247 49t-190.5 136.5t-122.5 208t-43 262.5zM527 -397l85 305h155 q24 0 30.5 -10.5t6.5 -20.5q0 -11 -4 -28.5t-14.5 -44t-29.5 -65t-47 -91.5q-16 -29 -38 -37t-55 -8h-89z" />
<glyph unicode="&#x123;" horiz-adv-x="1029" d="M-65 -100q0 72 31 125t82 89.5t117.5 58t138.5 30t143.5 6.5t133.5 -12q-9 32 -10 67q0 59 33 131q-40 -27 -89.5 -41t-118.5 -14q-59 0 -113 19.5t-95 59.5t-65 100t-24 139q0 77 29 150.5t85 131t139 92.5t193 35q58 0 111 -14t97 -40h294l-12 -82q-7 -49 -50 -66 l-107 -28q5 -20 7.5 -43t2.5 -48q0 -47 -10.5 -84t-25 -69t-32 -60t-32.5 -57.5t-25 -61.5t-10 -71q0 -42 17 -77.5t37.5 -72t38 -78.5t17.5 -98q-1 -78 -35.5 -148t-99.5 -122.5t-159.5 -83.5t-213.5 -31q-96 0 -174 20t-132 56t-84 84.5t-30 107.5zM0 0zM175 -69 q0 -61 49.5 -93t152.5 -32q57 0 104 14.5t81 40t52.5 60.5t18.5 75q0 14 -1.5 28t-3.5 26q-121 20 -207 17.5t-140.5 -21t-80 -49.5t-25.5 -66zM330 657q0 -79 35.5 -121.5t102.5 -42.5q46 0 81 21.5t59 56t36 78t13 88.5q0 77 -36 118t-105 41q-46 0 -81 -20t-58.5 -53 t-35 -76.5t-11.5 -89.5zM478 1195l135 290h146l-81 -290h-200z" />
<glyph unicode="&#x124;" horiz-adv-x="1469" d="M79 0l182 1481h267l-79 -642h623l80 642h267l-182 -1481h-268l80 650h-623l-80 -650h-267zM79 0zM528 1586l259 282h211l196 -282h-169q-14 0 -34 5.5t-38 33.5l-64 109q-4 6 -6.5 11.5t-6.5 10.5l-16 -22l-89 -109q-26 -28 -46.5 -33.5t-34.5 -5.5h-162z" />
<glyph unicode="&#x125;" horiz-adv-x="1107" d="M10 1586l255 223h244l201 -223h-186q-14 0 -30 5t-27 12l-81 71q-4 2 -7 5l-7 7l-17 -12l-99 -71q-12 -8 -29.5 -12.5t-32.5 -4.5h-184zM41 0l184 1522h253l-79 -651q77 99 166.5 147.5t183.5 48.5q67 0 119.5 -26.5t86 -77.5t47.5 -125t2 -169l-80 -669h-252l79 669 q13 102 -11 147t-88 45q-39 0 -81 -22t-80.5 -62.5t-72.5 -97.5t-58 -128l-66 -551h-253z" />
<glyph unicode="&#x126;" horiz-adv-x="1489" d="M84 1061l18 156h139l32 264h268l-33 -264h624l32 264h268l-33 -264h142l-18 -156h-144l-130 -1061h-268l80 650h-623l-80 -650h-267l130 1061h-137zM461 839h623l28 222h-624z" />
<glyph unicode="&#x127;" horiz-adv-x="1107" d="M35 1158l21 157h144l25 207h253l-25 -207h257l-14 -90q-5 -32 -26 -49.5t-56 -17.5h-180l-39 -319q77 99 166.5 147.5t183.5 48.5q67 0 120 -26.5t86.5 -77t47 -125t0.5 -169.5l-75 -637h-252l76 637q12 102 -11.5 147.5t-87.5 45.5q-40 0 -82 -22.5t-81 -63.5t-73 -99 t-57 -129l-62 -516h-253l140 1158h-146z" />
<glyph unicode="&#x128;" horiz-adv-x="577" d="M79 0l180 1481h267l-180 -1481h-267zM79 0zM79 1581q6 50 24.5 97.5t48 84t67.5 58.5t86 22t82 -16.5t60.5 -35t48.5 -35t48 -16.5q20 0 36.5 9t28 23t18.5 31t9 33h142q-6 -51 -24 -97.5t-47 -83t-67.5 -58t-86.5 -21.5t-81 16.5t-60 35.5t-49.5 35t-47.5 16 q-22 0 -37.5 -9t-27 -23.5t-18 -32t-8.5 -33.5h-145z" />
<glyph unicode="&#x129;" horiz-adv-x="501" d="M25 0zM25 1222q6 57 26.5 103.5t50.5 80t67 52t79 18.5q34 0 62 -13.5t52.5 -29t44.5 -28.5t38 -13q28 0 45.5 16.5t22.5 60.5h143q-7 -57 -27 -103.5t-49.5 -80t-66.5 -51t-79 -17.5q-34 0 -62 13t-52 28.5t-45 28.5t-39 13q-28 0 -45 -17.5t-23 -60.5h-143zM51 0 l126 1051h249l-126 -1051h-249z" />
<glyph unicode="&#x12a;" horiz-adv-x="577" d="M79 0l180 1481h267l-180 -1481h-267zM79 0zM123 1608l18 145h565l-16 -145h-567z" />
<glyph unicode="&#x12b;" horiz-adv-x="501" d="M50 0zM51 0l126 1051h249l-126 -1051h-249zM51 1243l17 162h564l-18 -162h-563z" />
<glyph unicode="&#x12e;" horiz-adv-x="577" d="M-8 -218q0 60 40 116t119 102h-72l180 1481h267l-180 -1481h-44q-22 -11 -42 -27t-36 -35t-26 -41t-10 -47q0 -26 14 -41t41 -15q16 0 27 2t18 5t11.5 5.5t9.5 2.5q18 0 22 -17l26 -93q-35 -23 -84 -37.5t-102 -14.5q-88 0 -133.5 37.5t-45.5 97.5z" />
<glyph unicode="&#x12f;" horiz-adv-x="501" d="M-48 -218q0 65 45.5 123.5t135.5 106.5l129 -12q-22 -11 -42 -27t-36 -35t-25.5 -41t-9.5 -47q0 -26 13.5 -41t40.5 -15q16 0 27 2t18 5t11.5 5.5t9.5 2.5q18 0 22 -17l27 -93q-35 -23 -84.5 -37.5t-102.5 -14.5q-88 0 -133.5 37.5t-45.5 97.5zM0 0zM51 0l126 1051h249 l-126 -1051h-249zM176 1357q0 33 13.5 62.5t35 51.5t49.5 35t58 13q31 0 59.5 -13t50.5 -34.5t35 -51t13 -63.5q0 -33 -13.5 -61.5t-36 -50t-51.5 -34.5t-59 -13t-57.5 13t-49 34.5t-34.5 50t-13 61.5z" />
<glyph unicode="&#x130;" horiz-adv-x="577" d="M79 0l180 1481h267l-180 -1481h-267zM267 1734q0 33 13.5 62t35 51.5t49.5 35t58 12.5q31 0 59.5 -12.5t50.5 -34.5t35.5 -51t13.5 -63q0 -33 -14 -62.5t-36.5 -51t-51 -34t-59.5 -12.5q-30 0 -57.5 12.5t-49 34t-34.5 51t-13 62.5z" />
<glyph unicode="&#x131;" horiz-adv-x="501" d="M51 0l126 1051h249l-126 -1051h-249z" />
<glyph unicode="&#x132;" horiz-adv-x="1414" d="M79 0l180 1481h267l-180 -1481h-267zM79 0zM540 11l20 156q3 22 15 36t39 14q24 0 55 -7t78 -7t87.5 16.5t72 52.5t54 94t31.5 141l119 974h265l-118 -968q-15 -123 -55 -221t-104 -166.5t-152 -105t-200 -36.5q-55 0 -105 6.5t-102 20.5z" />
<glyph unicode="&#x133;" horiz-adv-x="1000" d="M50 0l126 1051h249l-126 -1051h-249zM50 0zM175 1357q0 33 13.5 62.5t35 51.5t49.5 35t58 13q31 0 59.5 -13t50.5 -34.5t35 -51t13 -63.5q0 -33 -13.5 -61.5t-36 -50t-51.5 -34.5t-59 -13t-57.5 13t-49 34.5t-34.5 50t-13 61.5zM315 -349l24 136q5 20 19 26t49 6 q34 0 58 7.5t40 24.5t26 44.5t15 68.5l132 1087h248l-132 -1087q-8 -69 -34.5 -129t-70.5 -105.5t-106 -72t-141 -26.5q-41 0 -70 5t-57 15zM668 1357q0 33 13.5 62.5t35 51.5t49.5 35t58 13q31 0 59.5 -13t50.5 -34.5t35 -51t13 -63.5q0 -33 -13.5 -61.5t-36 -50 t-51.5 -34.5t-59 -13t-57.5 13t-49 34.5t-34.5 50t-13 61.5z" />
<glyph unicode="&#x134;" horiz-adv-x="837" d="M-37 11l20 156q3 22 15 36t39 14q24 0 55 -7t78 -7t87.5 16.5t72 52.5t54 94t31.5 141l119 974h265l-118 -968q-15 -123 -55 -221t-104 -166.5t-152 -105t-200 -36.5q-55 0 -105 6.5t-102 20.5zM0 0zM364 1586l259 282h211l196 -282h-169q-14 0 -34 5.5t-38 33.5l-64 109 q-4 6 -6.5 11.5t-6.5 10.5l-16 -22l-89 -109q-26 -28 -46.5 -33.5t-34.5 -5.5h-162z" />
<glyph unicode="&#x135;" horiz-adv-x="499" d="M-186 -349l24 136q5 20 19 26t49 6q34 0 58 7.5t40 24.5t26 44.5t15 68.5l132 1087h248l-132 -1087q-8 -69 -34.5 -129t-70.5 -105.5t-106 -72t-141 -26.5q-41 0 -70 5t-57 15zM0 0zM5 1196l248 285h219l184 -285h-156q-13 0 -26 5.5t-25 20.5l-80 106q-5 5 -8.5 11.5 t-9.5 13.5q-5 -7 -11 -13.5t-11 -11.5l-106 -106q-13 -13 -27.5 -19.5t-28.5 -6.5h-162z" />
<glyph unicode="&#x136;" horiz-adv-x="1313" d="M79 0l180 1482h266l-78 -627h58q36 0 61 11t45 35l428 522q26 34 56 46t70 12h229l-525 -620q-23 -29 -45 -47.5t-47 -30.5q30 -12 53 -33t40 -57l377 -693h-234q-24 0 -40.5 3.5t-28 10t-19 16.5t-14.5 22l-305 552q-13 28 -36 39t-67 11h-80l-80 -654h-264zM79 0z M407 -397l85 305h155q24 0 30 -10.5t6 -20.5q0 -11 -4 -28.5t-14 -44t-29 -65t-48 -91.5q-16 -29 -37.5 -37t-54.5 -8h-89z" />
<glyph unicode="&#x137;" horiz-adv-x="1025" d="M39 0l187 1522h249l-106 -872h25q24 0 38.5 7.5t31.5 26.5l279 323q17 22 37 33t49 11h226l-346 -391q-37 -45 -80 -70q19 -14 33 -34.5t25 -45.5l259 -510h-219q-28 0 -46 9.5t-30 35.5l-204 398q-11 24 -23.5 31t-41.5 7h-35l-58 -481h-250zM39 0zM266 -397l85 305h155 q24 0 30 -10.5t6 -20.5q0 -11 -4 -28.5t-14 -44t-29 -65t-48 -91.5q-16 -29 -37.5 -37t-54.5 -8h-89z" />
<glyph unicode="&#x138;" horiz-adv-x="1024" d="M40 0l130 1051h249l-50 -401h26q22 0 37 7t33 27l278 323q17 22 37.5 33t48.5 11h225l-341 -391q-18 -23 -38 -40.5t-42 -30.5q17 -14 30 -34.5t24 -44.5l260 -510h-218q-28 0 -46.5 9.5t-29.5 35.5l-204 398q-11 24 -24.5 31t-42.5 7h-34l-59 -481h-249z" />
<glyph unicode="&#x139;" horiz-adv-x="989" d="M79 0l182 1481h265l-155 -1261h538l-25 -220h-805zM79 0zM280 1586l228 278q11 14 21.5 22.5t22 13t25.5 5.5t32 1h258l-337 -293q-22 -18 -39 -22.5t-43 -4.5h-168z" />
<glyph unicode="&#x13a;" horiz-adv-x="488" d="M44 0l184 1522h250l-185 -1522h-249zM44 0zM226 1586l228 278q11 14 21.5 22.5t22 13t25.5 5.5t32 1h258l-337 -293q-22 -18 -39 -22.5t-43 -4.5h-168z" />
<glyph unicode="&#x13b;" horiz-adv-x="989" d="M79 0l182 1481h265l-155 -1261h538l-25 -220h-805zM79 0zM314 -397l85 305h155q24 0 30 -10.5t6 -20.5q0 -11 -4 -28.5t-14 -44t-29 -65t-48 -91.5q-16 -29 -37.5 -37t-54.5 -8h-89z" />
<glyph unicode="&#x13c;" horiz-adv-x="488" d="M-22 -397l85 305h155q24 0 30 -10.5t6 -20.5q0 -11 -4 -28.5t-14 -44t-29 -65t-48 -91.5q-16 -29 -37.5 -37t-54.5 -8h-89zM0 0zM44 0l184 1522h250l-185 -1522h-249z" />
<glyph unicode="&#x13d;" horiz-adv-x="989" d="M79 0l182 1481h265l-155 -1261h538l-25 -220h-805zM657 1170l103 353h164q24 0 29.5 -10.5t5.5 -20.5q0 -9 -3.5 -23t-16 -43t-37.5 -79.5t-68 -131.5q-16 -30 -37.5 -37.5t-53.5 -7.5h-86z" />
<glyph unicode="&#x13e;" horiz-adv-x="488" d="M44 0l184 1522h250l-185 -1522h-249zM494 1170l102 353h139q24 0 30 -10.5t6 -20.5q0 -9 -3.5 -23t-16.5 -43t-38 -79.5t-68 -131.5q-16 -30 -36.5 -37.5t-53.5 -7.5h-61z" />
<glyph unicode="&#x13f;" horiz-adv-x="1013" d="M79 0l182 1481h265l-155 -1261h538l-25 -220h-805zM79 0zM581 807q0 32 11.5 60.5t32.5 49t50 33t61 12.5t60.5 -12.5t49.5 -33t33.5 -49t12.5 -60.5q0 -33 -12.5 -61t-33.5 -48.5t-49.5 -32t-60.5 -11.5q-33 0 -61.5 11.5t-49.5 32t-32.5 48.5t-11.5 61z" />
<glyph unicode="&#x140;" horiz-adv-x="790" d="M44 0l184 1522h250l-185 -1522h-249zM44 0zM503 780q0 32 11.5 60.5t32.5 49t50 33t61 12.5t60.5 -12.5t49.5 -33t33.5 -49t12.5 -60.5q0 -33 -12.5 -61t-33.5 -48.5t-49.5 -32t-60.5 -11.5q-33 0 -61.5 11.5t-49.5 32t-32.5 48.5t-11.5 61z" />
<glyph unicode="&#x141;" horiz-adv-x="1027" d="M-7 452l22 181q3 36 35 49l160 81l89 718h265l-72 -589l344 176l-23 -178q-5 -39 -38 -53l-311 -165l-55 -452h538l-25 -220h-805l66 545z" />
<glyph unicode="&#x142;" horiz-adv-x="624" d="M45 605v150q0 35 31 49l147 62l80 656h250l-69 -564l148 61v-146q0 -42 -35 -55l-137 -58l-92 -760h-249l81 668z" />
<glyph unicode="&#x143;" horiz-adv-x="1469" d="M79 0l182 1481h139q17 0 29 -1.5t21.5 -6.5t16.5 -13t15 -22l577 -1011q2 30 4.5 58t5.5 53l116 943h234l-182 -1481h-137q-31 0 -51 11t-37 35l-574 1011q-2 -25 -4 -48t-4 -43l-117 -966h-234zM697 1586l229 278q11 14 21 22.5t22 13t26 5.5t32 1h258l-338 -293 q-22 -18 -38.5 -22.5t-43.5 -4.5h-168z" />
<glyph unicode="&#x144;" horiz-adv-x="1107" d="M42 0l126 1052h128q40 0 62 -19.5t22 -62.5l-6 -136q80 118 177 175.5t201 57.5q66 0 118 -26.5t85.5 -77.5t47.5 -125t2 -169l-79 -669h-253l79 669q13 102 -10.5 146.5t-86.5 44.5q-42 0 -86.5 -24t-85.5 -68.5t-75 -106.5t-56 -139l-57 -522h-253zM42 0zM484 1194 l162 249q17 27 37.5 40.5t58.5 13.5h225l-263 -267q-19 -20 -36.5 -28t-44.5 -8h-139z" />
<glyph unicode="&#x145;" horiz-adv-x="1469" d="M79 0l182 1481h139q17 0 29 -1.5t21.5 -6.5t16.5 -13t15 -22l577 -1011q2 30 4.5 58t5.5 53l116 943h234l-182 -1481h-137q-31 0 -51 11t-37 35l-574 1011q-2 -25 -4 -48t-4 -43l-117 -966h-234zM487 -397l85 305h155q24 0 30.5 -10.5t6.5 -20.5q0 -11 -4 -28.5 t-14.5 -44t-29.5 -65t-47 -91.5q-16 -29 -38 -37t-54 -8h-90z" />
<glyph unicode="&#x146;" horiz-adv-x="1107" d="M42 0l126 1052h128q40 0 62 -19.5t22 -62.5l-6 -136q80 118 177 175.5t201 57.5q66 0 118 -26.5t85.5 -77.5t47.5 -125t2 -169l-79 -669h-253l79 669q13 102 -10.5 146.5t-86.5 44.5q-42 0 -86.5 -24t-85.5 -68.5t-75 -106.5t-56 -139l-57 -522h-253zM42 0zM295 -397 l85 305h155q24 0 30 -10.5t6 -20.5q0 -11 -4 -28.5t-14 -44t-29 -65t-48 -91.5q-16 -29 -37.5 -37t-54.5 -8h-89z" />
<glyph unicode="&#x147;" horiz-adv-x="1469" d="M79 0l182 1481h139q17 0 29 -1.5t21.5 -6.5t16.5 -13t15 -22l577 -1011q2 30 4.5 58t5.5 53l116 943h234l-182 -1481h-137q-31 0 -51 11t-37 35l-574 1011q-2 -25 -4 -48t-4 -43l-117 -966h-234zM552 1868h169q14 0 33.5 -4t32.5 -27l71 -120q3 -6 6 -11t5 -10l17 21 l96 119q17 23 38 27.5t36 4.5h169l-259 -282h-218z" />
<glyph unicode="&#x148;" horiz-adv-x="1107" d="M42 0l126 1052h128q40 0 62 -19.5t22 -62.5l-6 -136q80 118 177 175.5t201 57.5q66 0 118 -26.5t85.5 -77.5t47.5 -125t2 -169l-79 -669h-253l79 669q13 102 -10.5 146.5t-86.5 44.5q-42 0 -86.5 -24t-85.5 -68.5t-75 -106.5t-56 -139l-57 -522h-253zM42 0zM315 1481h161 q14 0 26.5 -5.5t18.5 -12.5l86 -113l17 -26l12 14t12 12l112 113q8 6 21.5 12t28.5 6h154l-247 -285h-219z" />
<glyph unicode="&#x149;" horiz-adv-x="1234" d="M34 0zM34 1048q0 11 5.5 20t18.5 24q18 20 40.5 54.5t37 79.5t13.5 99t-29 114q-9 20 2 38.5t37 27.5l154 58q37 -79 40.5 -158.5t-22.5 -155t-80 -145.5t-133 -130l-69 45q-15 10 -15 29zM168 0l126 1052h128q40 0 62 -19.5t22 -62.5l-6 -136q80 118 177 175.5t201 57.5 q66 0 118 -26.5t85.5 -77.5t47.5 -125t2 -169l-79 -669h-253l79 669q13 102 -10.5 146.5t-86.5 44.5q-42 0 -86.5 -24t-85.5 -68.5t-75 -106.5t-56 -139l-57 -522h-253z" />
<glyph unicode="&#x14c;" horiz-adv-x="1542" d="M83 0zM83 640q0 123 27 234t78 206.5t122 172t159.5 131.5t192 84t218.5 29q141 0 253.5 -50t191.5 -138t121 -208.5t42 -260.5q0 -123 -27 -234t-77.5 -206.5t-122 -172t-160 -131t-192 -83.5t-217.5 -29q-141 0 -253.5 50t-192 138t-121.5 208t-42 260zM355 646 q0 -100 24.5 -182t72 -140t115.5 -89t155 -31q112 0 203 45t155.5 127t99.5 198.5t35 259.5q0 100 -25 182t-72.5 140t-116 90t-154.5 32q-111 0 -201.5 -45t-155 -128t-100 -200t-35.5 -259zM621 1608l18 145h565l-16 -145h-567z" />
<glyph unicode="&#x14d;" horiz-adv-x="1072" d="M45 0zM45 425q0 136 44 254t119.5 204t175.5 135t214 49q87 0 161.5 -29t128 -85.5t84 -138.5t30.5 -187q0 -135 -44 -252.5t-119 -204t-175 -136t-214 -49.5q-87 0 -161 29t-128.5 85.5t-85 138t-30.5 187.5zM298 427q0 -128 43 -188t132 -60q63 0 114.5 36.5t87.5 97.5 t55.5 142t19.5 170q0 128 -43 187.5t-132 59.5q-63 0 -114.5 -35.5t-87.5 -96.5t-55.5 -142t-19.5 -171zM353 1243l17 162h564l-18 -162h-563z" />
<glyph unicode="&#x14e;" horiz-adv-x="1542" d="M83 0zM83 640q0 123 27 234t78 206.5t122 172t159.5 131.5t192 84t218.5 29q141 0 253.5 -50t191.5 -138t121 -208.5t42 -260.5q0 -123 -27 -234t-77.5 -206.5t-122 -172t-160 -131t-192 -83.5t-217.5 -29q-141 0 -253.5 50t-192 138t-121.5 208t-42 260zM355 646 q0 -100 24.5 -182t72 -140t115.5 -89t155 -31q112 0 203 45t155.5 127t99.5 198.5t35 259.5q0 100 -25 182t-72.5 140t-116 90t-154.5 32q-111 0 -201.5 -45t-155 -128t-100 -200t-35.5 -259zM625 1863h178q-3 -31 1 -54.5t17.5 -40t38 -25t61.5 -8.5q75 0 108 33t39 95h178 q-7 -66 -35 -117.5t-73 -88t-104 -55.5t-130 -19t-126 17t-92 51.5t-53 87t-8 124.5z" />
<glyph unicode="&#x14f;" horiz-adv-x="1072" d="M45 0zM45 425q0 136 44 254t119.5 204t175.5 135t214 49q87 0 161.5 -29t128 -85.5t84 -138.5t30.5 -187q0 -135 -44 -252.5t-119 -204t-175 -136t-214 -49.5q-87 0 -161 29t-128.5 85.5t-85 138t-30.5 187.5zM298 427q0 -128 43 -188t132 -60q63 0 114.5 36.5t87.5 97.5 t55.5 142t19.5 170q0 128 -43 187.5t-132 59.5q-63 0 -114.5 -35.5t-87.5 -96.5t-55.5 -142t-19.5 -171zM376 1481h164q-4 -31 -1.5 -55.5t14 -41.5t34.5 -26t59 -9t60.5 9t40 26t24 41.5t12.5 55.5h162q-6 -59 -26.5 -112.5t-57.5 -93.5t-94.5 -63t-138.5 -23t-132.5 23 t-80.5 63t-37 93t-2 113z" />
<glyph unicode="&#x150;" horiz-adv-x="1542" d="M83 0zM83 640q0 123 27 234t78 206.5t122 172t159.5 131.5t192 84t218.5 29q141 0 253.5 -50t191.5 -138t121 -208.5t42 -260.5q0 -123 -27 -234t-77.5 -206.5t-122 -172t-160 -131t-192 -83.5t-217.5 -29q-141 0 -253.5 50t-192 138t-121.5 208t-42 260zM355 646 q0 -100 24.5 -182t72 -140t115.5 -89t155 -31q112 0 203 45t155.5 127t99.5 198.5t35 259.5q0 100 -25 182t-72.5 140t-116 90t-154.5 32q-111 0 -201.5 -45t-155 -128t-100 -200t-35.5 -259zM614 1586l157 228q17 26 42 40t63 14h151l-222 -245q-20 -17 -37 -27t-43 -10 h-111zM917 1586l199 228q22 25 48 39.5t64 14.5h174l-272 -245q-22 -18 -41.5 -27.5t-46.5 -9.5h-125z" />
<glyph unicode="&#x151;" horiz-adv-x="1072" d="M45 0zM45 425q0 136 44 254t119.5 204t175.5 135t214 49q87 0 161.5 -29t128 -85.5t84 -138.5t30.5 -187q0 -135 -44 -252.5t-119 -204t-175 -136t-214 -49.5q-87 0 -161 29t-128.5 85.5t-85 138t-30.5 187.5zM298 427q0 -128 43 -188t132 -60q63 0 114.5 36.5t87.5 97.5 t55.5 142t19.5 170q0 128 -43 187.5t-132 59.5q-63 0 -114.5 -35.5t-87.5 -96.5t-55.5 -142t-19.5 -171zM359 1194l148 249q16 27 37 40.5t59 13.5h151l-217 -267q-17 -20 -36.5 -28t-45.5 -8h-96zM624 1194l196 249q19 27 38.5 40.5t56.5 13.5h167l-267 -267 q-20 -20 -37 -28t-44 -8h-110z" />
<glyph unicode="&#x152;" horiz-adv-x="2052" d="M85 630q0 124 25 236.5t70.5 208.5t111 174t146 133.5t175 85t197.5 29.5q138 0 241 -59t170 -161l25 204h832l-26 -212h-596l-52 -422h467l-25 -204h-467l-52 -431h595l-27 -212h-831l21 177q-90 -92 -206 -142t-253 -50q-126 0 -226.5 49t-170 135t-107 204.5 t-37.5 256.5zM357 636q0 -98 21 -179t61.5 -139.5t100.5 -90t138 -31.5q102 0 185.5 47t143 132.5t91.5 205t32 263.5q0 98 -20.5 179.5t-61 140t-100 90.5t-136.5 32q-103 0 -186.5 -47.5t-143.5 -133t-92.5 -205.5t-32.5 -264z" />
<glyph unicode="&#x153;" horiz-adv-x="1642" d="M43 368q0 171 46.5 301.5t125 219t181 133.5t212.5 45q101 0 173.5 -43t114.5 -120q67 77 158 120t208 43q70 0 126.5 -19.5t96.5 -54.5t62 -83.5t22 -106.5q0 -68 -28.5 -125.5t-99 -104t-192 -79.5t-307.5 -52q3 -135 58.5 -198.5t151.5 -63.5q69 0 113 18t75 39.5 t56 39.5t55 18q13 0 25 -6t21 -17l64 -77q-54 -54 -106 -94.5t-107 -66t-115.5 -37.5t-130.5 -12q-97 0 -178.5 49t-127.5 150q-75 -96 -178 -147.5t-227 -51.5q-85 0 -150 31t-109 83.5t-66.5 122t-22.5 146.5zM289 381q0 -41 8 -79t27.5 -66.5t51 -46t76.5 -17.5 q69 0 120.5 32.5t87 90.5t56 140t27.5 182q8 122 -30 192.5t-127 70.5q-70 0 -124.5 -36t-93 -101.5t-59 -157.5t-20.5 -204zM952 596q124 16 203 38.5t124 48.5t62 54t17 57q0 39 -32.5 68.5t-103.5 29.5q-100 0 -172.5 -76.5t-97.5 -219.5z" />
<glyph unicode="&#x154;" horiz-adv-x="1227" d="M79 0l180 1481h421q128 0 219.5 -27.5t150 -76t86 -116t27.5 -148.5q0 -86 -24 -161t-69.5 -136.5t-110.5 -107.5t-148 -72q47 -30 76 -84l264 -552h-239q-69 0 -91 53l-217 481q-12 27 -30 38.5t-56 11.5h-103l-72 -584h-264zM79 0zM438 773h153q80 0 137.5 23 t95.5 63.5t56.5 95t18.5 116.5q0 96 -60 150.5t-184 54.5h-155zM559 1586l228 278q11 14 21.5 22.5t22 13t25.5 5.5t32 1h258l-337 -293q-22 -18 -39 -22.5t-43 -4.5h-168z" />
<glyph unicode="&#x155;" horiz-adv-x="723" d="M41 0l127 1052h129q40 0 62 -19.5t22 -62.5l-7 -171q40 78 85.5 133.5t94.5 87t101 37t105 -17.5l-46 -241q-126 52 -220 -26.5t-150 -307.5l-55 -464h-248zM41 0zM353 1194l162 249q17 27 37.5 40.5t58.5 13.5h225l-263 -267q-19 -20 -36.5 -28t-44.5 -8h-139z" />
<glyph unicode="&#x156;" horiz-adv-x="1227" d="M79 0l180 1481h421q128 0 219.5 -27.5t150 -76t86 -116t27.5 -148.5q0 -86 -24 -161t-69.5 -136.5t-110.5 -107.5t-148 -72q47 -30 76 -84l264 -552h-239q-69 0 -91 53l-217 481q-12 27 -30 38.5t-56 11.5h-103l-72 -584h-264zM79 0zM402 -397l85 305h155q24 0 30 -10.5 t6 -20.5q0 -11 -4 -28.5t-14 -44t-29 -65t-48 -91.5q-16 -29 -37.5 -37t-54.5 -8h-89zM438 773h153q80 0 137.5 23t95.5 63.5t56.5 95t18.5 116.5q0 96 -60 150.5t-184 54.5h-155z" />
<glyph unicode="&#x157;" horiz-adv-x="723" d="M-29 -397l85 305h155q24 0 30 -10.5t6 -20.5q0 -11 -4 -28.5t-14 -44t-29 -65t-48 -91.5q-16 -29 -37.5 -37t-54.5 -8h-89zM0 0zM41 0l127 1052h129q40 0 62 -19.5t22 -62.5l-7 -171q40 78 85.5 133.5t94.5 87t101 37t105 -17.5l-46 -241q-126 52 -220 -26.5t-150 -307.5 l-55 -464h-248z" />
<glyph unicode="&#x158;" horiz-adv-x="1227" d="M79 0l180 1481h421q128 0 219.5 -27.5t150 -76t86 -116t27.5 -148.5q0 -86 -24 -161t-69.5 -136.5t-110.5 -107.5t-148 -72q47 -30 76 -84l264 -552h-239q-69 0 -91 53l-217 481q-12 27 -30 38.5t-56 11.5h-103l-72 -584h-264zM79 0zM408 1868h169q14 0 33.5 -4t32.5 -27 l71 -120q3 -6 6 -11t5 -10l17 21l96 119q17 23 38 27.5t36 4.5h169l-259 -282h-219zM438 773h153q80 0 137.5 23t95.5 63.5t56.5 95t18.5 116.5q0 96 -60 150.5t-184 54.5h-155z" />
<glyph unicode="&#x159;" horiz-adv-x="723" d="M41 0l127 1052h129q40 0 62 -19.5t22 -62.5l-7 -171q40 78 85.5 133.5t94.5 87t101 37t105 -17.5l-46 -241q-126 52 -220 -26.5t-150 -307.5l-55 -464h-248zM41 0zM178 1481h161q14 0 26.5 -5.5t18.5 -12.5l86 -113l17 -26l12 14t12 12l112 113q8 6 21.5 12t28.5 6h154 l-247 -285h-219z" />
<glyph unicode="&#x15a;" horiz-adv-x="1055" d="M-3 178l94 127q11 14 28.5 23.5t35.5 9.5q16 0 32 -10.5t35 -25t41 -32.5t50 -33t64.5 -25t82.5 -10q117 0 182.5 65.5t65.5 181.5q0 51 -24 83.5t-62.5 55t-88.5 39.5t-101 36t-100.5 44t-88.5 64.5t-62.5 97t-23.5 141.5q0 95 35 183t101 155t160 107.5t212 40.5 q60 0 116 -12.5t104 -35t88.5 -53.5t69.5 -69l-79 -112q-14 -20 -28 -29.5t-35 -9.5q-20 0 -41.5 16t-51.5 36t-71 36.5t-98 16.5q-55 0 -98 -16.5t-72.5 -45t-44 -67.5t-14.5 -84q0 -47 24 -78.5t63 -55t89 -42t101.5 -38.5t102 -47t89.5 -66t63 -93.5t24 -132.5 q0 -109 -38 -205t-107.5 -168t-170 -114.5t-224.5 -42.5q-65 0 -127 13.5t-117.5 39t-102.5 61.5t-82 80zM0 0zM524 1586l228 278q11 14 21.5 22.5t22 13t25.5 5.5t32 1h258l-337 -293q-22 -18 -39 -22.5t-43 -4.5h-168z" />
<glyph unicode="&#x15b;" horiz-adv-x="830" d="M-18 113l62 96q11 17 26.5 26.5t38.5 9.5q22 0 39 -13.5t40 -29.5t56.5 -29t85.5 -13q42 0 74 11t54.5 30.5t34 45t11.5 54.5q0 35 -17.5 58t-46.5 40t-66 29.5t-75.5 27t-75 33t-65.5 46.5t-46.5 68.5t-17.5 98.5q0 70 26.5 136t78 117t126.5 81.5t173 30.5 q100 0 178 -34.5t130 -87.5l-65 -92q-11 -16 -21 -23t-27 -7q-18 0 -36.5 10.5t-42.5 23t-55.5 23t-74.5 10.5q-81 0 -124 -36.5t-43 -90.5q0 -42 30.5 -67.5t76.5 -45t98.5 -39.5t99 -50.5t76.5 -78t30 -122.5q0 -76 -30 -144.5t-86.5 -120t-136 -81.5t-178.5 -30 q-49 0 -96 9.5t-87.5 27t-74.5 41t-57 51.5zM0 0zM396 1194l162 249q17 27 37.5 40.5t58.5 13.5h225l-263 -267q-19 -20 -36.5 -28t-44.5 -8h-139z" />
<glyph unicode="&#x15c;" horiz-adv-x="1055" d="M-3 178l94 127q11 14 28.5 23.5t35.5 9.5q16 0 32 -10.5t35 -25t41 -32.5t50 -33t64.5 -25t82.5 -10q117 0 182.5 65.5t65.5 181.5q0 51 -24 83.5t-62.5 55t-88.5 39.5t-101 36t-100.5 44t-88.5 64.5t-62.5 97t-23.5 141.5q0 95 35 183t101 155t160 107.5t212 40.5 q60 0 116 -12.5t104 -35t88.5 -53.5t69.5 -69l-79 -112q-14 -20 -28 -29.5t-35 -9.5q-20 0 -41.5 16t-51.5 36t-71 36.5t-98 16.5q-55 0 -98 -16.5t-72.5 -45t-44 -67.5t-14.5 -84q0 -47 24 -78.5t63 -55t89 -42t101.5 -38.5t102 -47t89.5 -66t63 -93.5t24 -132.5 q0 -109 -38 -205t-107.5 -168t-170 -114.5t-224.5 -42.5q-65 0 -127 13.5t-117.5 39t-102.5 61.5t-82 80zM0 0zM356 1586l259 282h211l196 -282h-169q-14 0 -34 5.5t-38 33.5l-64 109q-4 6 -6.5 11.5t-6.5 10.5l-16 -22l-89 -109q-26 -28 -46.5 -33.5t-34.5 -5.5h-162z" />
<glyph unicode="&#x15d;" horiz-adv-x="830" d="M-18 113l62 96q11 17 26.5 26.5t38.5 9.5q22 0 39 -13.5t40 -29.5t56.5 -29t85.5 -13q42 0 74 11t54.5 30.5t34 45t11.5 54.5q0 35 -17.5 58t-46.5 40t-66 29.5t-75.5 27t-75 33t-65.5 46.5t-46.5 68.5t-17.5 98.5q0 70 26.5 136t78 117t126.5 81.5t173 30.5 q100 0 178 -34.5t130 -87.5l-65 -92q-11 -16 -21 -23t-27 -7q-18 0 -36.5 10.5t-42.5 23t-55.5 23t-74.5 10.5q-81 0 -124 -36.5t-43 -90.5q0 -42 30.5 -67.5t76.5 -45t98.5 -39.5t99 -50.5t76.5 -78t30 -122.5q0 -76 -30 -144.5t-86.5 -120t-136 -81.5t-178.5 -30 q-49 0 -96 9.5t-87.5 27t-74.5 41t-57 51.5zM0 0zM202 1196l248 285h219l184 -285h-156q-13 0 -26 5.5t-25 20.5l-80 106q-5 5 -8.5 11.5t-9.5 13.5q-5 -7 -11 -13.5t-11 -11.5l-106 -106q-13 -13 -27.5 -19.5t-28.5 -6.5h-162z" />
<glyph unicode="&#x15e;" horiz-adv-x="1055" d="M-3 178l94 127q11 14 28.5 23.5t35.5 9.5q16 0 32 -10.5t35 -25t41 -32.5t50 -33t64.5 -25t82.5 -10q117 0 182.5 65.5t65.5 181.5q0 51 -24 83.5t-62.5 55t-88.5 39.5t-101 36t-100.5 44t-88.5 64.5t-62.5 97t-23.5 141.5q0 95 35 183t101 155t160 107.5t212 40.5 q60 0 116 -12.5t104 -35t88.5 -53.5t69.5 -69l-79 -112q-14 -20 -28 -29.5t-35 -9.5q-20 0 -41.5 16t-51.5 36t-71 36.5t-98 16.5q-55 0 -98 -16.5t-72.5 -45t-44 -67.5t-14.5 -84q0 -47 24 -78.5t63 -55t89 -42t101.5 -38.5t102 -47t89.5 -66t63 -93.5t24 -132.5 q0 -101 -33 -192t-94.5 -161.5t-149 -116t-196.5 -56.5l-20 -50q78 -20 109.5 -55t31.5 -81q0 -39 -18.5 -70t-52.5 -52.5t-81 -33t-104 -11.5q-39 0 -71.5 6t-64.5 17l33 79q9 23 32 23q14 0 27.5 -7.5t39.5 -7.5q32 0 47.5 14.5t15.5 34.5q0 27 -31 39t-95 23l58 133 q-54 7 -104.5 23.5t-96 41t-84 56t-67.5 68.5z" />
<glyph unicode="&#x15f;" horiz-adv-x="830" d="M-18 113l62 96q11 17 26.5 26.5t38.5 9.5q22 0 39 -13.5t40 -29.5t56.5 -29t85.5 -13q42 0 74 11t54.5 30.5t34 45t11.5 54.5q0 35 -17.5 58t-46.5 40t-66 29.5t-75.5 27t-75 33t-65.5 46.5t-46.5 68.5t-17.5 98.5q0 70 26.5 136t78 117t126.5 81.5t173 30.5 q100 0 178 -34.5t130 -87.5l-65 -92q-11 -16 -21 -23t-27 -7q-18 0 -36.5 10.5t-42.5 23t-55.5 23t-74.5 10.5q-81 0 -124 -36.5t-43 -90.5q0 -42 30.5 -67.5t76.5 -45t98.5 -39.5t99 -50.5t76.5 -78t30 -122.5q0 -69 -24.5 -131t-70.5 -111.5t-111.5 -83.5t-148.5 -45 l-21 -51q78 -20 110 -55t32 -81q0 -39 -19 -70t-53 -52.5t-81 -33t-103 -11.5q-39 0 -72 6t-65 17l33 79q9 23 32 23q14 0 27.5 -7.5t39.5 -7.5q32 0 47.5 14.5t15.5 34.5q0 27 -31 39t-95 23l58 133q-79 11 -143.5 44.5t-102.5 79.5z" />
<glyph unicode="&#x160;" horiz-adv-x="1055" d="M-3 178l94 127q11 14 28.5 23.5t35.5 9.5q16 0 32 -10.5t35 -25t41 -32.5t50 -33t64.5 -25t82.5 -10q117 0 182.5 65.5t65.5 181.5q0 51 -24 83.5t-62.5 55t-88.5 39.5t-101 36t-100.5 44t-88.5 64.5t-62.5 97t-23.5 141.5q0 95 35 183t101 155t160 107.5t212 40.5 q60 0 116 -12.5t104 -35t88.5 -53.5t69.5 -69l-79 -112q-14 -20 -28 -29.5t-35 -9.5q-20 0 -41.5 16t-51.5 36t-71 36.5t-98 16.5q-55 0 -98 -16.5t-72.5 -45t-44 -67.5t-14.5 -84q0 -47 24 -78.5t63 -55t89 -42t101.5 -38.5t102 -47t89.5 -66t63 -93.5t24 -132.5 q0 -109 -38 -205t-107.5 -168t-170 -114.5t-224.5 -42.5q-65 0 -127 13.5t-117.5 39t-102.5 61.5t-82 80zM0 0zM371 1868h169q14 0 33.5 -4t32.5 -27l71 -120q3 -6 6 -11t5 -10l17 21l96 119q17 23 38 27.5t36 4.5h169l-259 -282h-219z" />
<glyph unicode="&#x161;" horiz-adv-x="830" d="M-18 113l62 96q11 17 26.5 26.5t38.5 9.5q22 0 39 -13.5t40 -29.5t56.5 -29t85.5 -13q42 0 74 11t54.5 30.5t34 45t11.5 54.5q0 35 -17.5 58t-46.5 40t-66 29.5t-75.5 27t-75 33t-65.5 46.5t-46.5 68.5t-17.5 98.5q0 70 26.5 136t78 117t126.5 81.5t173 30.5 q100 0 178 -34.5t130 -87.5l-65 -92q-11 -16 -21 -23t-27 -7q-18 0 -36.5 10.5t-42.5 23t-55.5 23t-74.5 10.5q-81 0 -124 -36.5t-43 -90.5q0 -42 30.5 -67.5t76.5 -45t98.5 -39.5t99 -50.5t76.5 -78t30 -122.5q0 -76 -30 -144.5t-86.5 -120t-136 -81.5t-178.5 -30 q-49 0 -96 9.5t-87.5 27t-74.5 41t-57 51.5zM0 0zM225 1481h161q14 0 26.5 -5.5t18.5 -12.5l86 -113l17 -26l12 14t12 12l112 113q8 6 21.5 12t28.5 6h154l-247 -285h-219z" />
<glyph unicode="&#x162;" horiz-adv-x="1140" d="M109 1263l26 218h1078l-27 -218h-405l-155 -1263h-68l-24 -62q78 -20 109.5 -55t31.5 -81q0 -39 -19 -70t-53 -52.5t-81 -33t-103 -11.5q-39 0 -72 6t-64 17l32 79q9 23 32 23q14 0 27.5 -7.5t40.5 -7.5q32 0 47 14.5t15 34.5q0 27 -30.5 39t-95.5 23l64 144h-54 l154 1263h-406z" />
<glyph unicode="&#x163;" horiz-adv-x="749" d="M69 914l11 101l160 27l84 287q7 20 21 31.5t36 11.5h135l-41 -331h254l-21 -180h-255l-57 -458q-5 -42 -8 -66.5t-4.5 -38t-1.5 -19.5v-8q0 -39 19 -61.5t54 -22.5q22 0 37 6t26 12t20.5 11.5t17.5 5.5q11 0 17.5 -5.5t11.5 -16.5l54 -123q-49 -39 -106 -62t-117 -29 l-19 -48q78 -20 110 -55t32 -81q0 -39 -19 -70t-53 -52.5t-81 -33t-103 -11.5q-39 0 -72 6t-65 17l33 79q9 23 32 23q14 0 27.5 -7.5t40.5 -7.5q32 0 47 14.5t15 34.5q0 27 -30.5 39t-95.5 23l63 142q-68 23 -106.5 78t-40.5 138v17t1.5 29t5 50t9.5 80l59 471h-100 q-18 0 -29.5 13.5t-7.5 39.5z" />
<glyph unicode="&#x164;" horiz-adv-x="1140" d="M109 0zM109 1263l26 218h1078l-27 -218h-405l-155 -1263h-265l154 1263h-406zM375 1868h169q14 0 33.5 -4t32.5 -27l71 -120q3 -6 6 -11t5 -10l17 21l96 119q17 23 38 27.5t36 4.5h169l-259 -282h-219z" />
<glyph unicode="&#x165;" horiz-adv-x="748" d="M68 914l11 101l160 27l84 287q7 20 21 31.5t36 11.5h135l-41 -331h254l-21 -180h-255l-57 -458q-5 -42 -8 -66.5t-4.5 -38t-1.5 -19.5v-8q0 -39 19 -61.5t54 -22.5q22 0 37 6t26 12t20.5 11.5t17.5 5.5q11 0 17.5 -5.5t11.5 -16.5l54 -123q-56 -46 -124.5 -69.5 t-138.5 -23.5q-112 0 -177 60t-68 170v17t1.5 29t5 50t9.5 80l59 471h-100q-18 0 -30 13.5t-7 39.5zM585 1170l101 353h140q24 0 30 -10.5t6 -20.5q0 -9 -3.5 -23t-16.5 -43t-38 -79.5t-68 -131.5q-16 -30 -37 -37.5t-53 -7.5h-61z" />
<glyph unicode="&#x166;" horiz-adv-x="1170" d="M124 1263l27 218h1078l-28 -218h-404l-48 -390h290l-18 -151h-291l-89 -722h-264l88 722h-294l17 151h295l47 390h-406z" />
<glyph unicode="&#x167;" horiz-adv-x="757" d="M29 609l13 102h152l18 150h-99q-18 0 -30 13.5t-8 39.5l11 101l160 27l84 287q7 20 21.5 31.5t35.5 11.5h135l-41 -331h254l-21 -180h-255l-19 -150h251l-20 -156h-250l-19 -152q-5 -42 -8 -66.5t-4.5 -38t-1.5 -19.5v-8q0 -39 19 -61.5t54 -22.5q22 0 37 6t26.5 12 t20.5 11.5t17 5.5q11 0 17.5 -5.5t11.5 -16.5l54 -123q-56 -46 -124 -69.5t-139 -23.5q-112 0 -177 60t-68 170v17t1.5 29t5 50t10.5 80l20 165h-101q-19 0 -33 14.5t-11 39.5z" />
<glyph unicode="&#x168;" horiz-adv-x="1416" d="M119 0zM135 591l107 890h266l-109 -889q-10 -85 2 -155t45 -120t85.5 -77t125.5 -27q72 0 132 27t105 77t74 119.5t40 154.5l108 890h266l-109 -890q-16 -131 -69.5 -242.5t-137 -192.5t-194.5 -126.5t-243 -45.5t-232 45.5t-163.5 126.5t-89 192.5t-9.5 242.5zM499 1581 q6 50 24.5 97.5t48 84t67.5 58.5t86 22t82 -16.5t60.5 -35t48.5 -35t48 -16.5q20 0 36.5 9t28 23t18.5 31t9 33h142q-6 -51 -24 -97.5t-47 -83t-67.5 -58t-86.5 -21.5t-81 16.5t-60 35.5t-49.5 35t-47.5 16q-22 0 -37.5 -9t-27 -23.5t-18 -32t-8.5 -33.5h-145z" />
<glyph unicode="&#x169;" horiz-adv-x="1107" d="M67 0zM79 384l79 667h253l-79 -667q-13 -103 10.5 -148t85.5 -45q41 0 83.5 23t82.5 64t73.5 100.5t56.5 132.5l64 540h253l-127 -1051h-128q-90 0 -90 87l6 121q-80 -113 -174.5 -168t-195.5 -55q-66 0 -118 26.5t-86 77t-47.5 125.5t-1.5 170zM325 1224 q6 57 26.5 103.5t50.5 80t67 52t79 18.5q34 0 62 -13.5t52.5 -29t44.5 -28.5t38 -13q28 0 45.5 16.5t22.5 60.5h143q-7 -57 -27 -103.5t-49.5 -80t-66.5 -51t-79 -17.5q-34 0 -62 13t-52 28.5t-45 28.5t-39 13q-28 0 -45 -17.5t-23 -60.5h-143z" />
<glyph unicode="&#x16a;" horiz-adv-x="1416" d="M119 0zM135 591l107 890h266l-109 -889q-10 -85 2 -155t45 -120t85.5 -77t125.5 -27q72 0 132 27t105 77t74 119.5t40 154.5l108 890h266l-109 -890q-16 -131 -69.5 -242.5t-137 -192.5t-194.5 -126.5t-243 -45.5t-232 45.5t-163.5 126.5t-89 192.5t-9.5 242.5zM547 1608 l18 145h565l-16 -145h-567z" />
<glyph unicode="&#x16b;" horiz-adv-x="1107" d="M67 0zM79 384l79 667h253l-79 -667q-13 -103 10.5 -148t85.5 -45q41 0 83.5 23t82.5 64t73.5 100.5t56.5 132.5l64 540h253l-127 -1051h-128q-90 0 -90 87l6 121q-80 -113 -174.5 -168t-195.5 -55q-66 0 -118 26.5t-86 77t-47.5 125.5t-1.5 170zM349 1243l17 162h564 l-18 -162h-563z" />
<glyph unicode="&#x16c;" horiz-adv-x="1416" d="M119 0zM135 591l107 890h266l-109 -889q-10 -85 2 -155t45 -120t85.5 -77t125.5 -27q72 0 132 27t105 77t74 119.5t40 154.5l108 890h266l-109 -890q-16 -131 -69.5 -242.5t-137 -192.5t-194.5 -126.5t-243 -45.5t-232 45.5t-163.5 126.5t-89 192.5t-9.5 242.5zM549 1863 h178q-3 -31 1 -54.5t17.5 -40t38 -25t61.5 -8.5q75 0 108 33t39 95h178q-7 -66 -35 -117.5t-73 -88t-104 -55.5t-130 -19t-126 17t-92 51.5t-53 87t-8 124.5z" />
<glyph unicode="&#x16d;" horiz-adv-x="1107" d="M67 0zM79 384l79 667h253l-79 -667q-13 -103 10.5 -148t85.5 -45q41 0 83.5 23t82.5 64t73.5 100.5t56.5 132.5l64 540h253l-127 -1051h-128q-90 0 -90 87l6 121q-80 -113 -174.5 -168t-195.5 -55q-66 0 -118 26.5t-86 77t-47.5 125.5t-1.5 170zM372 1481h164 q-4 -31 -1.5 -55.5t14 -41.5t34.5 -26t59 -9t60.5 9t40 26t24 41.5t12.5 55.5h162q-6 -59 -26.5 -112.5t-57.5 -93.5t-94.5 -63t-138.5 -23t-132.5 23t-80.5 63t-37 93t-2 113z" />
<glyph unicode="&#x16e;" horiz-adv-x="1416" d="M119 0zM135 591l107 890h266l-109 -889q-10 -85 2 -155t45 -120t85.5 -77t125.5 -27q72 0 132 27t105 77t74 119.5t40 154.5l108 890h266l-109 -890q-16 -131 -69.5 -242.5t-137 -192.5t-194.5 -126.5t-243 -45.5t-232 45.5t-163.5 126.5t-89 192.5t-9.5 242.5zM646 1747 q5 44 25 80.5t49.5 62t66 40t74.5 14.5q40 0 74.5 -14.5t59 -40t36 -62t6.5 -80.5q-5 -43 -24.5 -78t-49 -60.5t-67.5 -39.5t-78 -14q-38 0 -72 14t-57.5 39.5t-35.5 60.5t-7 78zM757 1747q-4 -40 15 -65.5t61 -25.5q37 0 62.5 25.5t30.5 65.5q4 43 -15.5 68t-57.5 25 q-41 0 -66 -25t-30 -68z" />
<glyph unicode="&#x16f;" horiz-adv-x="1107" d="M67 0zM79 384l79 667h253l-79 -667q-13 -103 10.5 -148t85.5 -45q41 0 83.5 23t82.5 64t73.5 100.5t56.5 132.5l64 540h253l-127 -1051h-128q-90 0 -90 87l6 121q-80 -113 -174.5 -168t-195.5 -55q-66 0 -118 26.5t-86 77t-47.5 125.5t-1.5 170zM432 1357q5 47 27 86 t53.5 66.5t71 43t81.5 15.5q43 0 80 -15.5t63 -43t38.5 -66.5t7.5 -86q-5 -46 -26.5 -84t-53.5 -65t-72.5 -42t-83.5 -15q-42 0 -78 15t-61.5 42t-38.5 65t-8 84zM559 1357q-5 -39 14 -65t61 -26q38 0 63 26t30 65q5 43 -15 68t-57 25q-42 0 -66.5 -25t-29.5 -68z" />
<glyph unicode="&#x170;" horiz-adv-x="1416" d="M119 0zM135 591l107 890h266l-109 -889q-10 -85 2 -155t45 -120t85.5 -77t125.5 -27q72 0 132 27t105 77t74 119.5t40 154.5l108 890h266l-109 -890q-16 -131 -69.5 -242.5t-137 -192.5t-194.5 -126.5t-243 -45.5t-232 45.5t-163.5 126.5t-89 192.5t-9.5 242.5zM562 1586 l157 228q17 26 42 40t63 14h151l-222 -245q-20 -17 -37 -27t-43 -10h-111zM865 1586l199 228q22 25 48 39.5t64 14.5h174l-272 -245q-22 -18 -41.5 -27.5t-46.5 -9.5h-125z" />
<glyph unicode="&#x171;" horiz-adv-x="1107" d="M67 0zM79 384l79 667h253l-79 -667q-13 -103 10.5 -148t85.5 -45q41 0 83.5 23t82.5 64t73.5 100.5t56.5 132.5l64 540h253l-127 -1051h-128q-90 0 -90 87l6 121q-80 -113 -174.5 -168t-195.5 -55q-66 0 -118 26.5t-86 77t-47.5 125.5t-1.5 170zM385 1194l148 249 q16 27 37 40.5t59 13.5h151l-217 -267q-17 -20 -36.5 -28t-45.5 -8h-96zM650 1194l196 249q19 27 38.5 40.5t56.5 13.5h167l-267 -267q-20 -20 -37 -28t-44 -8h-110z" />
<glyph unicode="&#x172;" horiz-adv-x="1416" d="M135 591l107 890h266l-109 -889q-10 -85 2 -155t45 -120t86 -77t125 -27t132 27t105 77t74 119.5t40 154.5l108 890h266l-109 -890q-14 -114 -56 -212.5t-108 -176.5t-153 -130.5t-191 -73.5l5 -1q-22 -11 -42 -27t-36 -35t-26 -41t-10 -47q0 -26 14 -41t41 -15 q16 0 27 2t18 5t11.5 5t9.5 2q18 0 22 -16l26 -93q-35 -23 -84 -37.5t-102 -14.5q-88 0 -133.5 37.5t-45.5 97.5q0 56 34.5 108.5t103.5 97.5q-125 5 -218.5 52.5t-153.5 128t-83.5 189t-7.5 236.5z" />
<glyph unicode="&#x173;" horiz-adv-x="1107" d="M79 384l79 667h253l-79 -667q-13 -103 10.5 -148t85.5 -45q41 0 83.5 23t82.5 64t73.5 100.5t56.5 132.5l64 540h253l-127 -1051h-34q-22 -11 -42.5 -27t-36.5 -35t-25.5 -41t-9.5 -47q0 -26 14 -41t40 -15q16 0 27 2t18 5t12 5.5t10 2.5q18 0 21 -17l27 -93 q-35 -23 -84 -37.5t-102 -14.5q-88 0 -134 37.5t-46 97.5q0 62 43.5 120t128.5 105q-45 18 -45 80l6 121q-80 -113 -174.5 -168t-195.5 -55q-66 0 -118 26.5t-86 77t-47.5 125.5t-1.5 170z" />
<glyph unicode="&#x174;" horiz-adv-x="1983" d="M115 0zM115 1481h208q35 0 55.5 -17t24.5 -44l131 -908q3 -33 5.5 -71t4.5 -80q27 84 54 151l369 908q11 23 36 42t58 19h62q35 0 54.5 -17t27.5 -44l148 -908q5 -32 9.5 -68.5t7.5 -76.5q11 40 22.5 76t22.5 69l351 908q4 12 13.5 23t22.5 19t28.5 13.5t32.5 5.5h210 l-606 -1481h-240l-167 1026q-3 19 -6.5 42.5t-5.5 48.5q-8 -26 -17 -48.5l-17 -42.5l-419 -1026h-239zM782 1586l259 282h211l196 -282h-169q-14 0 -34 5.5t-38 33.5l-64 109q-4 6 -6.5 11.5t-6.5 10.5l-16 -22l-89 -109q-26 -28 -46.5 -33.5t-34.5 -5.5h-162z" />
<glyph unicode="&#x175;" horiz-adv-x="1510" d="M65 0zM65 1051h192q26 0 42 -13.5t21 -33.5l61 -562q3 -46 5 -88t4 -85q15 43 31.5 85t35.5 88l228 564q8 20 26.5 33.5t42.5 13.5h107q27 0 43.5 -13.5t18.5 -33.5l87 -564q6 -46 11 -89l10 -86q11 43 25 86t29 89l204 562q7 20 25.5 33.5t42.5 13.5h185l-434 -1051 h-196q-32 0 -39 45l-100 607q-6 41 -9 79q-7 -20 -14.5 -40t-15.5 -41l-249 -605q-18 -45 -55 -45h-187zM500 1196l248 285h219l184 -285h-156q-13 0 -26 5.5t-25 20.5l-80 106q-5 5 -8.5 11.5t-9.5 13.5q-5 -7 -11 -13.5t-11 -11.5l-106 -106q-13 -13 -27.5 -19.5 t-28.5 -6.5h-162z" />
<glyph unicode="&#x176;" horiz-adv-x="1244" d="M97 0zM97 1481h237q35 0 54.5 -16.5t28.5 -44.5l190 -512q13 -38 22.5 -73t16.5 -69q16 34 34.5 68.5t42.5 73.5l318 512q14 24 38 42.5t57 18.5h220l-607 -904l-72 -577h-265l71 575zM405 1586l259 282h211l196 -282h-169q-14 0 -34 5.5t-38 33.5l-64 109 q-4 6 -6.5 11.5t-6.5 10.5l-16 -22l-89 -109q-26 -28 -46.5 -33.5t-34.5 -5.5h-162z" />
<glyph unicode="&#x177;" horiz-adv-x="1006" d="M61 0zM61 1051h212q28 0 42 -14t19 -33l129 -545q10 -52 15 -105q11 27 23 53t24 53l259 545q10 20 30 33t40 13h203l-695 -1342q-14 -27 -33.5 -39.5t-47.5 -12.5h-188l234 423zM252 1196l248 285h219l184 -285h-156q-13 0 -26 5.5t-25 20.5l-80 106q-5 5 -8.5 11.5 t-9.5 13.5q-5 -7 -11 -13.5t-11 -11.5l-106 -106q-13 -13 -27.5 -19.5t-28.5 -6.5h-162z" />
<glyph unicode="&#x178;" horiz-adv-x="1244" d="M97 0zM97 1481h237q35 0 54.5 -16.5t28.5 -44.5l190 -512q13 -38 22.5 -73t16.5 -69q16 34 34.5 68.5t42.5 73.5l318 512q14 24 38 42.5t57 18.5h220l-607 -904l-72 -577h-265l71 575zM399 1705q0 29 11.5 55t31 45.5t44.5 30.5t52 11q29 0 55 -11t46 -30.5t31.5 -45.5 t11.5 -55t-11.5 -54t-31.5 -44t-46 -29.5t-55 -10.5q-28 0 -52.5 10.5t-44 29.5t-31 44t-11.5 54zM808 1705q0 29 11 55t30 45.5t44.5 30.5t54.5 11q30 0 56 -11t45 -30.5t30 -45.5t11 -55t-11 -54t-30 -44t-45 -29.5t-56 -10.5q-29 0 -54.5 10.5t-44.5 29.5t-30 44t-11 54z " />
<glyph unicode="&#x179;" horiz-adv-x="1149" d="M-38 0l10 81q2 17 10.5 32.5t18.5 30.5l820 1125h-657l25 212h1013l-11 -83q-3 -17 -11 -32.5t-19 -31.5l-818 -1122h686l-27 -212h-1040zM0 0zM538 1586l228 278q11 14 21.5 22.5t22 13t25.5 5.5t32 1h258l-337 -293q-22 -18 -39 -22.5t-43 -4.5h-168z" />
<glyph unicode="&#x17a;" horiz-adv-x="886" d="M-26 0l14 105q1 17 12 42t29 46l529 664h-452l24 194h749l-14 -105q-2 -27 -14 -52t-27 -42l-525 -657h463l-24 -195h-764zM0 0zM405 1194l162 249q17 27 37.5 40.5t58.5 13.5h225l-263 -267q-19 -20 -36.5 -28t-44.5 -8h-139z" />
<glyph unicode="&#x17b;" horiz-adv-x="1148" d="M-38 0l10 81q2 17 10.5 32.5t18.5 30.5l820 1125h-657l25 212h1013l-11 -83q-3 -17 -11 -32.5t-19 -31.5l-818 -1122h686l-27 -212h-1040zM0 0zM573 1734q0 33 13 62t34.5 51.5t50 35t57.5 12.5q31 0 60 -12.5t51 -34.5t35 -51t13 -63q0 -33 -13.5 -62t-36.5 -50.5 t-51.5 -34.5t-59.5 -13q-30 0 -57.5 13t-49 34.5t-34 50.5t-12.5 62z" />
<glyph unicode="&#x17c;" horiz-adv-x="886" d="M-26 0l14 105q1 17 12 42t29 46l529 664h-452l24 194h749l-14 -105q-2 -27 -14 -52t-27 -42l-525 -657h463l-24 -195h-764zM0 0zM393 1357q0 33 13 62.5t34.5 51.5t50 35t57.5 13q31 0 60 -13t51 -34.5t35 -51t13 -63.5q0 -33 -13.5 -61.5t-36 -50t-51 -34.5t-59.5 -13 q-30 0 -58 13t-49.5 34.5t-34 50t-12.5 61.5z" />
<glyph unicode="&#x17d;" horiz-adv-x="1148" d="M-38 0l10 81q2 17 10.5 32.5t18.5 30.5l820 1125h-657l25 212h1013l-11 -83q-3 -17 -11 -32.5t-19 -31.5l-818 -1122h686l-27 -212h-1040zM0 0zM399 1868h169q14 0 33.5 -4t32.5 -27l71 -120q3 -6 6 -11t5 -10l17 21l96 119q17 23 38 27.5t36 4.5h169l-259 -282h-219z " />
<glyph unicode="&#x17e;" horiz-adv-x="886" d="M-26 0l14 105q1 17 12 42t29 46l529 664h-452l24 194h749l-14 -105q-2 -27 -14 -52t-27 -42l-525 -657h463l-24 -195h-764zM0 0zM236 1481h161q14 0 26.5 -5.5t18.5 -12.5l86 -113l17 -26l12 14t12 12l112 113q8 6 21.5 12t28.5 6h154l-247 -285h-219z" />
<glyph unicode="&#x17f;" horiz-adv-x="593" d="M72 938l11 100h158l10 81q11 90 45.5 161.5t88 121.5t125 76.5t156.5 26.5q36 0 65 -5.5t59 -15.5l-24 -125q-5 -24 -27.5 -27.5t-52.5 -3.5q-41 0 -72.5 -11t-54.5 -37.5t-38.5 -68t-22.5 -100.5l-129 -1068l-53 -193q-15 -49 -44.5 -76t-85.5 -27h-101l134 1114l-92 17 q-28 6 -43.5 19.5t-11.5 40.5z" />
<glyph unicode="&#x192;" horiz-adv-x="652" d="M-248 -365l40 106q11 30 26 38.5t32 8.5q14 0 30 -6t45 -6q70 0 110 47t52 146l13 111l97 784l-79 15q-27 5 -43 19t-12 42l13 98h142l10 81q10 90 44.5 161.5t88.5 121.5t125 76.5t156 26.5q34 0 63.5 -5t59.5 -14l-21 -122q-3 -14 -10.5 -23t-19 -13.5t-25 -5.5 t-27.5 -1q-41 0 -74.5 -10.5t-58.5 -35t-41.5 -64.5t-23.5 -99l-10 -74h246l-20 -173h-240l-97 -796l-8 -72q-11 -88 -41 -162t-80 -127t-122 -82.5t-166 -29.5q-51 0 -90.5 9.5t-83.5 29.5z" />
<glyph unicode="&#x218;" horiz-adv-x="1055" d="M-3 178l94 127q11 14 28.5 23.5t35.5 9.5q16 0 32 -10.5t35 -25t41 -32.5t50 -33t64.5 -25t82.5 -10q117 0 182.5 65.5t65.5 181.5q0 51 -24 83.5t-62.5 55t-88.5 39.5t-101 36t-100.5 44t-88.5 64.5t-62.5 97t-23.5 141.5q0 95 35 183t101 155t160 107.5t212 40.5 q60 0 116 -12.5t104 -35t88.5 -53.5t69.5 -69l-79 -112q-14 -20 -28 -29.5t-35 -9.5q-20 0 -41.5 16t-51.5 36t-71 36.5t-98 16.5q-55 0 -98 -16.5t-72.5 -45t-44 -67.5t-14.5 -84q0 -47 24 -78.5t63 -55t89 -42t101.5 -38.5t102 -47t89.5 -66t63 -93.5t24 -132.5 q0 -109 -38 -205t-107.5 -168t-170 -114.5t-224.5 -42.5q-65 0 -127 13.5t-117.5 39t-102.5 61.5t-82 80zM0 0zM275 -397l85 305h155q24 0 30 -10.5t6 -20.5q0 -11 -4 -28.5t-14 -44t-29 -65t-48 -91.5q-16 -29 -37.5 -37t-54.5 -8h-89z" />
<glyph unicode="&#x219;" horiz-adv-x="830" d="M-18 113l62 96q11 17 26.5 26.5t38.5 9.5q22 0 39 -13.5t40 -29.5t56.5 -29t85.5 -13q42 0 74 11t54.5 30.5t34 45t11.5 54.5q0 35 -17.5 58t-46.5 40t-66 29.5t-75.5 27t-75 33t-65.5 46.5t-46.5 68.5t-17.5 98.5q0 70 26.5 136t78 117t126.5 81.5t173 30.5 q100 0 178 -34.5t130 -87.5l-65 -92q-11 -16 -21 -23t-27 -7q-18 0 -36.5 10.5t-42.5 23t-55.5 23t-74.5 10.5q-81 0 -124 -36.5t-43 -90.5q0 -42 30.5 -67.5t76.5 -45t98.5 -39.5t99 -50.5t76.5 -78t30 -122.5q0 -76 -30 -144.5t-86.5 -120t-136 -81.5t-178.5 -30 q-49 0 -96 9.5t-87.5 27t-74.5 41t-57 51.5zM0 0zM141 -397l85 305h155q24 0 30 -10.5t6 -20.5q0 -11 -4 -28.5t-14 -44t-29 -65t-48 -91.5q-16 -29 -37.5 -37t-54.5 -8h-89z" />
<glyph unicode="&#x21a;" horiz-adv-x="1140" d="M109 0zM109 1263l26 218h1078l-27 -218h-405l-155 -1263h-265l154 1263h-406zM299 -397l85 305h155q24 0 30 -10.5t6 -20.5q0 -11 -4 -28.5t-14 -44t-29 -65t-48 -91.5q-16 -29 -37.5 -37t-54.5 -8h-89z" />
<glyph unicode="&#x21b;" horiz-adv-x="749" d="M63 0zM68 914l11 101l160 27l84 287q7 20 21 31.5t36 11.5h135l-41 -331h254l-21 -180h-255l-57 -458q-5 -42 -8 -66.5t-4.5 -38t-1.5 -19.5v-8q0 -39 19 -61.5t54 -22.5q22 0 37 6t26 12t20.5 11.5t17.5 5.5q11 0 17.5 -5.5t11.5 -16.5l54 -123q-56 -46 -124.5 -69.5 t-138.5 -23.5q-112 0 -177 60t-68 170v17t1.5 29t5 50t9.5 80l59 471h-100q-18 0 -30 13.5t-7 39.5zM165 -397l85 305h155q24 0 30 -10.5t6 -20.5q0 -11 -4 -28.5t-14 -44t-29 -65t-48 -91.5q-16 -29 -37.5 -37t-54.5 -8h-89z" />
<glyph unicode="&#x237;" horiz-adv-x="499" d="M-186 -349l24 136q5 20 19 26t49 6q34 0 58 7.5t40 24.5t26 44.5t15 68.5l132 1087h248l-132 -1087q-8 -69 -34.5 -129t-70.5 -105.5t-106 -72t-141 -26.5q-41 0 -70 5t-57 15z" />
<glyph unicode="&#x2c6;" horiz-adv-x="753" d="M186 1196l248 285h219l184 -285h-156q-13 0 -26 5.5t-25 20.5l-80 106q-5 5 -8.5 11.5t-9.5 13.5q-5 -7 -11 -13.5t-11 -11.5l-106 -106q-13 -13 -27.5 -19.5t-28.5 -6.5h-162z" />
<glyph unicode="&#x2c7;" horiz-adv-x="753" d="M219 1481h161q14 0 26.5 -5.5t18.5 -12.5l86 -113l17 -26l12 14t12 12l112 113q8 6 21.5 12t28.5 6h154l-247 -285h-219z" />
<glyph unicode="&#x2d8;" horiz-adv-x="753" d="M259 1481h164q-4 -31 -1.5 -55.5t14 -41.5t34.5 -26t59 -9t60.5 9t40 26t24 41.5t12.5 55.5h162q-6 -59 -26.5 -112.5t-57.5 -93.5t-94.5 -63t-138.5 -23t-132.5 23t-80.5 63t-37 93t-2 113z" />
<glyph unicode="&#x2d9;" horiz-adv-x="753" d="M376 1357q0 33 13 62.5t34.5 51.5t50 35t57.5 13q31 0 60 -13t51 -34.5t35 -51t13 -63.5q0 -33 -13.5 -61.5t-36 -50t-51 -34.5t-59.5 -13q-30 0 -58 13t-49.5 34.5t-34 50t-12.5 61.5z" />
<glyph unicode="&#x2da;" horiz-adv-x="753" d="M319 1357q5 47 27 86t53.5 66.5t71 43t81.5 15.5q43 0 80 -15.5t63 -43t38.5 -66.5t7.5 -86q-5 -46 -26.5 -84t-53.5 -65t-72.5 -42t-83.5 -15q-42 0 -78 15t-61.5 42t-38.5 65t-8 84zM446 1357q-5 -39 14 -65t61 -26q38 0 63 26t30 65q5 43 -15 68t-57 25 q-42 0 -66.5 -25t-29.5 -68z" />
<glyph unicode="&#x2db;" horiz-adv-x="753" d="M169 -218q0 65 45.5 123.5t135.5 106.5l129 -12q-22 -11 -42 -27t-36 -35t-25.5 -41t-9.5 -47q0 -26 13.5 -41t40.5 -15q16 0 27 2t18 5t11.5 5.5t9.5 2.5q18 0 22 -17l27 -93q-35 -23 -84.5 -37.5t-102.5 -14.5q-88 0 -133.5 37.5t-45.5 97.5z" />
<glyph unicode="&#x2dc;" horiz-adv-x="753" d="M215 1222q6 57 26.5 103.5t50.5 80t67 52t79 18.5q34 0 62 -13.5t52.5 -29t44.5 -28.5t38 -13q28 0 45.5 16.5t22.5 60.5h143q-7 -57 -27 -103.5t-49.5 -80t-66.5 -51t-79 -17.5q-34 0 -62 13t-52 28.5t-45 28.5t-39 13q-28 0 -45 -17.5t-23 -60.5h-143z" />
<glyph unicode="&#x2dd;" horiz-adv-x="753" d="M275 1194l148 249q16 27 37 40.5t59 13.5h151l-217 -267q-17 -20 -36.5 -28t-45.5 -8h-96zM540 1194l196 249q19 27 38.5 40.5t56.5 13.5h167l-267 -267q-20 -20 -37 -28t-44 -8h-110z" />
<glyph unicode="&#x394;" horiz-adv-x="1355" d="M-85 0l748 1480h240l383 -1480h-1371zM287 210h680l-189 854q-8 28 -15 64t-14 79q-16 -43 -32.5 -79.5t-30.5 -64.5z" />
<glyph unicode="&#x3a9;" horiz-adv-x="1446" d="M28 83l16 136h362l18 149q-75 24 -131 67t-94.5 102.5t-58 132t-19.5 153.5q0 142 53 265t148 214t225 142.5t283 51.5q131 0 235.5 -41.5t178 -113t112.5 -168.5t39 -207q0 -108 -30 -205t-85.5 -175.5t-136 -135.5t-182.5 -84l-18 -147h363l-17 -136 q-5 -36 -31.5 -59.5t-67.5 -23.5h-478l62 501q72 13 135.5 46t110.5 87t74 133.5t27 186.5q0 78 -21.5 139.5t-62.5 104t-99.5 64.5t-133.5 22q-95 0 -171.5 -30.5t-130 -90t-82.5 -145t-29 -194.5q0 -73 19 -128t53 -95t80 -64.5t101 -35.5l-60 -501h-479q-42 0 -62 23.5 t-15 59.5z" />
<glyph unicode="&#x3bc;" horiz-adv-x="1154" d="M11 -238l158 1289h253l-77 -621h1q-11 -95 19.5 -152.5t106.5 -57.5q72 0 126 42.5t93 119.5l83 669h253l-91 -741q-8 -70 16 -102.5t73 -32.5h73l-13 -100q-2 -16 -14.5 -31.5t-34 -27.5t-51.5 -19t-65 -7q-40 0 -76 11.5t-63.5 36t-46.5 62t-26 88.5 q-60 -83 -128.5 -128t-148.5 -45q-101 0 -161 55q4 -42 2 -85.5t-7 -81.5l-29 -246h-126q-53 0 -79 27t-20 78z" />
<glyph unicode="&#x3c0;" horiz-adv-x="1205" d="M4 39l21 169h20q31 0 62.5 34t62.5 110.5t60 199t56 298.5h-193l13 106q2 14 10.5 30t22.5 29.5t32 22.5t41 9h992l-14 -119q-4 -33 -27 -55.5t-61 -22.5h-126q-6 -34 -12.5 -74t-11 -92.5t-7 -120t-2.5 -155.5q0 -75 5.5 -120.5t16 -70t26 -33t33.5 -8.5h45l-12 -100 q-3 -20 -17.5 -35.5t-36.5 -26.5t-50.5 -16.5t-59.5 -5.5q-111 0 -163 71.5t-52 199.5q0 61 9.5 119.5t25 125.5t35 149.5t37.5 192.5h-280q-26 -176 -52.5 -308.5t-56 -228t-62.5 -158t-69.5 -99.5t-78 -51t-87.5 -14q-15 0 -32.5 2.5t-32 8.5t-23.5 15.5t-7 21.5z" />
<glyph unicode="&#x1e80;" horiz-adv-x="1983" d="M115 0zM115 1481h208q35 0 55.5 -17t24.5 -44l131 -908q3 -33 5.5 -71t4.5 -80q27 84 54 151l369 908q11 23 36 42t58 19h62q35 0 54.5 -17t27.5 -44l148 -908q5 -32 9.5 -68.5t7.5 -76.5q11 40 22.5 76t22.5 69l351 908q4 12 13.5 23t22.5 19t28.5 13.5t32.5 5.5h210 l-606 -1481h-240l-167 1026q-3 19 -6.5 42.5t-5.5 48.5q-8 -26 -17 -48.5l-17 -42.5l-419 -1026h-239zM723 1906h244q18 0 32 -1t24 -6t18.5 -13t17.5 -22l173 -278h-168q-28 0 -42.5 3.5t-31.5 21.5z" />
<glyph unicode="&#x1e81;" horiz-adv-x="1510" d="M65 0zM65 1051h192q26 0 42 -13.5t21 -33.5l61 -562q3 -46 5 -88t4 -85q15 43 31.5 85t35.5 88l228 564q8 20 26.5 33.5t42.5 13.5h107q27 0 43.5 -13.5t18.5 -33.5l87 -564q6 -46 11 -89l10 -86q11 43 25 86t29 89l204 562q7 20 25.5 33.5t42.5 13.5h185l-434 -1051 h-196q-32 0 -39 45l-100 607q-6 41 -9 79q-7 -20 -14.5 -40t-15.5 -41l-249 -605q-18 -45 -55 -45h-187zM512 1497h219q37 0 54.5 -14t28.5 -40l105 -249h-132q-27 0 -42.5 7.5t-30.5 28.5z" />
<glyph unicode="&#x1e82;" horiz-adv-x="1983" d="M115 0zM115 1481h208q35 0 55.5 -17t24.5 -44l131 -908q3 -33 5.5 -71t4.5 -80q27 84 54 151l369 908q11 23 36 42t58 19h62q35 0 54.5 -17t27.5 -44l148 -908q5 -32 9.5 -68.5t7.5 -76.5q11 40 22.5 76t22.5 69l351 908q4 12 13.5 23t22.5 19t28.5 13.5t32.5 5.5h210 l-606 -1481h-240l-167 1026q-3 19 -6.5 42.5t-5.5 48.5q-8 -26 -17 -48.5l-17 -42.5l-419 -1026h-239zM959 1586l228 278q11 14 21.5 22.5t22 13t25.5 5.5t32 1h258l-337 -293q-22 -18 -39 -22.5t-43 -4.5h-168z" />
<glyph unicode="&#x1e83;" horiz-adv-x="1510" d="M65 0zM65 1051h192q26 0 42 -13.5t21 -33.5l61 -562q3 -46 5 -88t4 -85q15 43 31.5 85t35.5 88l228 564q8 20 26.5 33.5t42.5 13.5h107q27 0 43.5 -13.5t18.5 -33.5l87 -564q6 -46 11 -89l10 -86q11 43 25 86t29 89l204 562q7 20 25.5 33.5t42.5 13.5h185l-434 -1051 h-196q-32 0 -39 45l-100 607q-6 41 -9 79q-7 -20 -14.5 -40t-15.5 -41l-249 -605q-18 -45 -55 -45h-187zM711 1194l162 249q17 27 37.5 40.5t58.5 13.5h225l-263 -267q-19 -20 -36.5 -28t-44.5 -8h-139z" />
<glyph unicode="&#x1e84;" horiz-adv-x="1983" d="M115 0zM115 1481h208q35 0 55.5 -17t24.5 -44l131 -908q3 -33 5.5 -71t4.5 -80q27 84 54 151l369 908q11 23 36 42t58 19h62q35 0 54.5 -17t27.5 -44l148 -908q5 -32 9.5 -68.5t7.5 -76.5q11 40 22.5 76t22.5 69l351 908q4 12 13.5 23t22.5 19t28.5 13.5t32.5 5.5h210 l-606 -1481h-240l-167 1026q-3 19 -6.5 42.5t-5.5 48.5q-8 -26 -17 -48.5l-17 -42.5l-419 -1026h-239zM776 1705q0 29 11.5 55t31 45.5t44.5 30.5t52 11q29 0 55 -11t46 -30.5t31.5 -45.5t11.5 -55t-11.5 -54t-31.5 -44t-46 -29.5t-55 -10.5q-28 0 -52.5 10.5t-44 29.5 t-31 44t-11.5 54zM1185 1705q0 29 11 55t30 45.5t44.5 30.5t54.5 11q30 0 56 -11t45 -30.5t30 -45.5t11 -55t-11 -54t-30 -44t-45 -29.5t-56 -10.5q-29 0 -54.5 10.5t-44.5 29.5t-30 44t-11 54z" />
<glyph unicode="&#x1e85;" horiz-adv-x="1510" d="M65 0zM65 1051h192q26 0 42 -13.5t21 -33.5l61 -562q3 -46 5 -88t4 -85q15 43 31.5 85t35.5 88l228 564q8 20 26.5 33.5t42.5 13.5h107q27 0 43.5 -13.5t18.5 -33.5l87 -564q6 -46 11 -89l10 -86q11 43 25 86t29 89l204 562q7 20 25.5 33.5t42.5 13.5h185l-434 -1051 h-196q-32 0 -39 45l-100 607q-6 41 -9 79q-7 -20 -14.5 -40t-15.5 -41l-249 -605q-18 -45 -55 -45h-187zM500 1323q0 30 11.5 56t31 45.5t44.5 30.5t53 11q29 0 55 -11t45.5 -30.5t31 -45.5t11.5 -56q0 -29 -11.5 -54t-31 -43.5t-46 -29t-54.5 -10.5t-53 10.5t-44.5 29 t-31 43.5t-11.5 54zM895 1323q0 30 10.5 56t30 45.5t44.5 30.5t55 11q29 0 55 -11t45 -30.5t30 -45.5t11 -56q0 -29 -11 -54t-30 -43.5t-45 -29t-55 -10.5q-30 0 -55 10.5t-44.5 29t-30 43.5t-10.5 54z" />
<glyph unicode="&#x2000;" horiz-adv-x="972" />
<glyph unicode="&#x2001;" horiz-adv-x="1944" />
<glyph unicode="&#x2002;" horiz-adv-x="972" />
<glyph unicode="&#x2003;" horiz-adv-x="1944" />
<glyph unicode="&#x2004;" horiz-adv-x="648" />
<glyph unicode="&#x2005;" horiz-adv-x="486" />
<glyph unicode="&#x2006;" horiz-adv-x="324" />
<glyph unicode="&#x2007;" horiz-adv-x="324" />
<glyph unicode="&#x2008;" horiz-adv-x="243" />
<glyph unicode="&#x2009;" horiz-adv-x="388" />
<glyph unicode="&#x200a;" horiz-adv-x="108" />
<glyph unicode="&#x2010;" horiz-adv-x="710" d="M95 516l25 204h492l-26 -204h-491z" />
<glyph unicode="&#x2011;" horiz-adv-x="710" d="M95 516l25 204h492l-26 -204h-491z" />
<glyph unicode="&#x2012;" horiz-adv-x="710" d="M95 516l25 204h492l-26 -204h-491z" />
<glyph unicode="&#x2013;" d="M199 525l20 174h765l-21 -174h-764z" />
<glyph unicode="&#x2014;" horiz-adv-x="1506" d="M98 525l22 174h1282l-22 -174h-1282z" />
<glyph unicode="&#x2018;" horiz-adv-x="433" d="M149.5 1164q-3.5 79 23 154.5t80.5 145.5t133 130l69 -45q16 -10 16 -28q0 -11 -6 -21t-20 -24q-17 -20 -39.5 -54t-36.5 -79.5t-13 -99.5t29 -115q8 -20 -3 -38t-37 -27l-155 -57q-37 79 -40.5 158z" />
<glyph unicode="&#x2019;" horiz-adv-x="434" d="M129 1048q0 11 5.5 20t19.5 24q18 20 40 54.5t36.5 79.5t13.5 98.5t-29 114.5q-9 20 2 38.5t37 27.5l155 58q37 -79 40.5 -158.5t-23 -155t-80.5 -145.5t-133 -130l-69 45q-15 10 -15 29z" />
<glyph unicode="&#x201a;" horiz-adv-x="427" d="M-47 -223q0 11 5.5 20t18.5 24q18 20 40.5 54.5t37 79.5t13.5 99t-29 114q-9 20 2 38.5t37 27.5l154 58q37 -79 40.5 -158.5t-22.5 -155t-80 -145.5t-133 -130l-69 45q-15 10 -15 29z" />
<glyph unicode="&#x201c;" horiz-adv-x="746" d="M146 1006zM149.5 1164q-3.5 79 23 154.5t80.5 145.5t133 130l69 -45q16 -10 16 -28q0 -11 -6 -21t-20 -24q-17 -20 -39.5 -54t-36.5 -79.5t-13 -99.5t29 -115q8 -20 -3 -38t-37 -27l-155 -57q-37 79 -40.5 158zM461.5 1164q-3.5 79 23 154.5t80.5 145.5t133 130l69 -45 q16 -10 16 -28q0 -11 -6 -21t-20 -24q-17 -20 -39.5 -54t-36.5 -79.5t-13 -99.5t29 -115q8 -20 -3 -38t-37 -27l-155 -57q-37 79 -40.5 158z" />
<glyph unicode="&#x201d;" horiz-adv-x="746" d="M129 974zM129 1048q0 11 5.5 20t18.5 24q18 20 40.5 54.5t37 79.5t13.5 99t-29 114q-9 20 2 38.5t37 27.5l154 58q37 -79 40.5 -158.5t-22.5 -155t-80 -145.5t-133 -130l-69 45q-15 10 -15 29zM441 1048q0 11 5.5 20t18.5 24q18 20 40.5 54.5t37 79.5t13.5 99t-29 114 q-9 20 2 38.5t37 27.5l154 58q37 -79 40.5 -158.5t-22.5 -155t-80 -145.5t-133 -130l-69 45q-15 10 -15 29z" />
<glyph unicode="&#x201e;" horiz-adv-x="739" d="M-47 -223q0 11 5.5 20t18.5 24q18 20 40.5 54.5t37 79.5t13.5 99t-29 114q-9 20 2 38.5t37 27.5l154 58q37 -79 40.5 -158.5t-22.5 -155t-80 -145.5t-133 -130l-69 45q-15 10 -15 29zM0 0zM265 -223q0 11 5.5 20t18.5 24q18 20 40.5 54.5t37 79.5t13.5 99t-29 114 q-9 20 2 38.5t37 27.5l154 58q37 -79 40.5 -158.5t-22.5 -155t-80 -145.5t-133 -130l-69 45q-15 10 -15 29z" />
<glyph unicode="&#x2020;" d="M151 886l10 81q2 19 11 38t25 34t38.5 23.5t52.5 8.5q58 -1 125 -16.5t136 -26.5l26 471q28 14 61.5 22.5t69.5 8.5q73 0 120 -31l-88 -471q35 5 71.5 12.5t71 14t67.5 11.5t63 5t50 -8.5t32 -23.5t16.5 -34t1.5 -38l-9 -81h-381l-49 -403l-69 -816q-28 -15 -61.5 -23 t-69.5 -8t-66.5 8t-54.5 23l131 816l49 403h-380z" />
<glyph unicode="&#x2021;" d="M69 200l10 81h381l35 280l39 325h-380l9 81q3 19 11.5 38t24.5 34t38.5 23.5t52.5 8.5q58 -1 125.5 -16.5t135.5 -26.5l28 471q27 14 60 22.5t69 8.5t67 -8.5t54 -22.5l-89 -471q35 5 71.5 12.5t71.5 14t67.5 11.5t62.5 5t50 -8.5t32 -23.5t16.5 -34t1.5 -38l-9 -81h-382 l-39 -325l-36 -280h382l-10 -81q-2 -20 -11.5 -40t-25 -34.5t-38 -23.5t-51.5 -9q-58 1 -126.5 16.5t-136.5 26.5l-24 -469q-29 -15 -62 -23t-69 -8q-75 0 -122 31l88 469q-35 -5 -70.5 -12l-71 -14t-68.5 -12t-62 -5q-30 0 -50 9t-32 23.5t-16 34t-2 40.5z" />
<glyph unicode="&#x2022;" d="M144 607q0 92 35.5 173t96 142t141.5 96t173 35t174 -35t142.5 -96t95.5 -142t35 -173q0 -91 -35 -171.5t-95.5 -141t-142.5 -95t-174 -34.5t-173 34.5t-141.5 95t-96 141t-35.5 171.5z" />
<glyph unicode="&#x2026;" horiz-adv-x="1581" d="M32 139q0 32 11.5 60.5t32.5 49t50 33t61 12.5t60.5 -12.5t49.5 -33t33.5 -49t12.5 -60.5q0 -33 -12.5 -61t-33.5 -48.5t-49.5 -32t-60.5 -11.5q-33 0 -61.5 11.5t-49.5 32t-32.5 48.5t-11.5 61zM579 139q0 32 11.5 60.5t32.5 49t49.5 33t61.5 12.5q32 0 60.5 -12.5 t49.5 -33t33.5 -49t12.5 -60.5q0 -33 -12.5 -61t-33.5 -48.5t-49.5 -32t-60.5 -11.5q-33 0 -61.5 11.5t-49.5 32t-32.5 48.5t-11.5 61zM1125 139q0 32 12 60.5t33 49t49.5 33t61.5 12.5q32 0 60.5 -12.5t49.5 -33t33.5 -49t12.5 -60.5q0 -33 -12.5 -61t-33.5 -48.5 t-49.5 -32t-60.5 -11.5q-33 0 -61.5 11.5t-49.5 32t-33 48.5t-12 61z" />
<glyph unicode="&#x202f;" horiz-adv-x="388" />
<glyph unicode="&#x2030;" horiz-adv-x="2250" d="M68 0l1192 1441q14 14 33 26.5t50 12.5h178l-1194 -1443q-14 -15 -33.5 -26t-45.5 -11h-180zM133 1068q0 97 28.5 176t78.5 134.5t117 85.5t143 30q61 0 112.5 -22t87.5 -63.5t56 -99.5t20 -131q0 -98 -31.5 -176.5t-83.5 -133.5t-118.5 -84t-134.5 -29q-61 0 -112 22 t-87 63t-56 98.5t-20 129.5zM322 1068q0 -42 7.5 -71.5t22 -48t33.5 -27t43 -8.5q33 0 62 14t50.5 45.5t34 81.5t12.5 123q0 86 -30.5 122.5t-77.5 36.5q-34 0 -62.5 -14.5t-50 -47t-33 -83t-11.5 -123.5zM811 294q0 98 28.5 177.5t78.5 135t117 85.5t143 30q61 0 112 -22.5 t87.5 -64t56.5 -100t20 -131.5q0 -98 -31.5 -176t-83 -133t-118 -84t-135.5 -29q-61 0 -112 22.5t-87 63t-56 98t-20 128.5zM999 294q0 -83 30 -119t77 -36q34 0 62.5 14t50 45t34 81.5t12.5 123.5q0 86 -30.5 122.5t-76.5 36.5q-34 0 -63 -15t-50.5 -47t-33.5 -82.5 t-12 -123.5zM1510 294q0 98 29 177.5t78.5 135t116.5 85.5t143 30q61 0 112 -22.5t88 -64t56.5 -100t19.5 -131.5q0 -98 -31.5 -176t-82.5 -133t-118 -84t-135 -29q-61 0 -112.5 22.5t-87.5 63t-56 98t-20 128.5zM1700 294q0 -83 29 -119t76 -36q33 0 61.5 14t50 45 t34.5 81.5t13 123.5q0 86 -30 122.5t-76 36.5q-34 0 -63.5 -15t-50.5 -47t-32.5 -82.5t-11.5 -123.5z" />
<glyph unicode="&#x2039;" horiz-adv-x="545" d="M71 535l4 30l293 405l74 -38q30 -13 31.5 -39.5t-18.5 -55.5l-157 -245q-19 -29 -37 -42q14 -16 27 -42l96 -245q13 -31 5 -57t-41 -40l-85 -37z" />
<glyph unicode="&#x203a;" horiz-adv-x="543" d="M52 206q-2 26 18 57l158 245q8 12 17.5 23t18.5 18q-17 16 -25 43l-100 245q-11 30 -2.5 56t41.5 39l84 38l192 -405l-3 -30l-292 -406l-75 37q-30 14 -32 40z" />
<glyph unicode="&#x2044;" horiz-adv-x="286" d="M-444 0l960 1396q30 40 63 62t78 22h101l-970 -1407q-31 -43 -62 -58t-71 -15h-99z" />
<glyph unicode="&#x205f;" horiz-adv-x="486" />
<glyph unicode="&#x20a3;" d="M24 293l16 135h184l130 1052h873l-26 -212h-606l-47 -388h488l-26 -212h-489l-29 -240h302l-17 -135h-302l-36 -293h-267l36 293h-184z" />
<glyph unicode="&#x20a4;" d="M-9 0l19 154q71 16 111 58.5t51 127.5l18 155h-157l16 136h158l15 121h-156l9 74q3 24 24 43t51 19h89l16 134q12 96 54.5 182.5t111.5 151t164 102.5t213 38q88 0 153.5 -20t113 -55.5t79.5 -84t52 -105.5l-106 -64q-35 -17 -66 -15t-54 32q-18 26 -35 45t-39 33t-51 21 t-72 7q-54 0 -99.5 -18.5t-80.5 -52.5t-58 -83.5t-30 -111.5l-17 -136h460l-17 -136h-459l-14 -121h460l-11 -75q-3 -24 -24 -42.5t-52 -18.5h-390l-10 -89q-8 -70 -32 -122.5t-67 -96.5q40 9 80 14.5t80 5.5h612l-13 -102q-2 -18 -12 -37t-25.5 -34t-36 -24.5t-43.5 -9.5 h-983z" />
<glyph unicode="&#x20a7;" d="M81 0l113 921h-105l16 136h105l52 423h353q126 0 217.5 -27.5t150 -78.5t86.5 -125t28 -169q0 -6 -0.5 -12t-0.5 -11h133l-17 -136h-130q-19 -99 -64.5 -178t-119 -134.5t-174 -84.5t-230.5 -29h-103l-60 -495h-250zM415 687h103q135 0 217.5 55.5t111.5 178.5h-404z M460 1057h401v5q0 57 -15 99.5t-47.5 71t-83.5 42t-124 13.5h-103z" />
<glyph unicode="&#x20ac;" d="M16 554l17 135h120q2 32 5 62t8 60h-118l17 136h132q37 127 99.5 228.5t146 172t184 108.5t213.5 38q71 0 129 -14.5t105.5 -40.5t85 -63t66.5 -83l-98 -93q-11 -11 -22 -19.5t-32 -8.5q-20 0 -36 17.5t-41 38.5t-65.5 38.5t-109.5 17.5q-130 0 -228 -86t-149 -251h529 l-8 -77q-4 -22 -24 -40.5t-53 -18.5h-474q-9 -58 -13 -122h445l-9 -74q-3 -24 -24 -42.5t-52 -18.5h-361q11 -176 83.5 -267t193.5 -91q50 0 88 9.5t66 24t49 31.5t37.5 31t31 24t28.5 10q11 0 18.5 -2.5t15.5 -14.5l94 -97q-85 -109 -203 -167.5t-263 -58.5 q-117 0 -206.5 41.5t-150.5 116.5t-94 179.5t-38 230.5h-135z" />
<glyph unicode="&#x2113;" horiz-adv-x="1120" d="M41 649q43 8 84.5 17t81.5 20q13 104 42.5 205t72.5 192t98.5 167t122.5 131.5t143.5 86.5t161.5 31q69 0 120.5 -23t85 -63t50.5 -94t17 -116q0 -101 -49 -191t-139 -167.5t-216 -143t-280 -118.5v-19q0 -110 9 -181t25.5 -113t41.5 -58.5t56 -16.5q35 0 68.5 17.5 t63.5 47.5t55.5 70t44.5 84l209 -50q-29 -82 -77.5 -151.5t-112 -119.5t-141 -78.5t-163.5 -28.5q-72 0 -130 27.5t-100 90t-65 163t-24 245.5q-31 -8 -62.5 -15.5t-62.5 -14.5zM455 768q100 41 183 89t143 102.5t93 112.5t33 119q0 55 -25.5 86.5t-69.5 31.5 q-53 0 -108.5 -42t-104 -115.5t-87 -171.5t-57.5 -212z" />
<glyph unicode="&#x2122;" horiz-adv-x="1433" d="M162 1340l18 140h471l-17 -140h-153l-59 -477h-167l57 477h-150zM640 863l75 617h145q22 0 31 -5.5t20 -21.5l84 -268q11 -36 18 -69q7 17 15.5 34t20.5 35l152 268q14 17 25.5 22t33.5 5h143l-75 -617h-148l40 318l22 95l-177 -311q-25 -36 -64 -36h-22q-40 0 -53 36 l-99 305l-2 -89l-39 -318h-146z" />
<glyph unicode="&#x2126;" horiz-adv-x="1460" d="M34 83l16 136h362l18 149q-75 24 -131 67t-94.5 102.5t-58 132t-19.5 153.5q0 142 53 265t148 214t225 142.5t284 51.5q131 0 235.5 -41.5t177.5 -113t112 -168.5t39 -207q0 -108 -30 -205t-85.5 -175.5t-136 -135.5t-182.5 -84l-18 -147h363l-17 -136q-4 -36 -31 -59.5 t-67 -23.5h-479l62 501q72 13 135.5 46t110.5 87t74 133.5t27 186.5q0 78 -21.5 139.5t-62.5 104t-99 64.5t-133 22q-95 0 -171.5 -30.5t-130 -90t-83 -145t-29.5 -194.5q0 -73 19 -128t53 -95t80.5 -64.5t101.5 -35.5l-61 -501h-478q-41 0 -62 23.5t-16 59.5z" />
<glyph unicode="&#x212e;" horiz-adv-x="1671" d="M106 731q0 106 26 204.5t73 183t114.5 153.5t151.5 119t183.5 76.5t210.5 26.5q122 0 224 -28.5t183.5 -79.5t143 -121.5t103.5 -154.5t64.5 -178t25.5 -194h-1135v-153q0 -89 32 -168.5t91.5 -139.5t145 -95t194.5 -35q141 0 257 56t204 181l136 -97 q-48 -73 -110.5 -130.5t-142.5 -97t-179.5 -60.5t-220.5 -21q-178 0 -321 56.5t-244 156.5t-155.5 238t-54.5 302zM474 895h796v40q0 90 -27.5 163.5t-78 126.5t-123 82t-164.5 29q-89 0 -163.5 -30t-127 -84.5t-82.5 -130t-30 -165.5v-31z" />
<glyph unicode="&#x2202;" horiz-adv-x="1115" d="M39 422q14 120 65 223t126.5 178.5t171 118.5t199.5 43q90 0 150.5 -32t96.5 -93l4 34t4 33q23 185 -25.5 276.5t-144.5 91.5q-34 0 -66 -10t-61 -22.5t-52 -22.5t-38 -10q-14 0 -27 8t-24 33l-43 96q42 31 83.5 54.5t86 40t93.5 25t107 8.5q89 0 159 -39t115.5 -112 t63 -178t0.5 -238q-27 -212 -83.5 -386t-143.5 -298t-204 -191.5t-264 -67.5q-87 0 -157 30.5t-116.5 87.5t-67 138t-8.5 181zM300 425q-14 -117 23.5 -180.5t117.5 -63.5q47 0 95 22t92 71t83 126t69 188q-4 40 -14.5 76t-31 64.5t-52.5 45t-78 16.5q-66 0 -118 -27.5 t-90 -76t-62 -115t-34 -146.5z" />
<glyph unicode="&#x2206;" horiz-adv-x="1484" d="M-15 0l747 1480h241l383 -1480h-1371zM356 210h680l-188 854q-8 28 -15.5 64.5t-13.5 79.5q-17 -43 -33 -79.5t-30 -65.5z" />
<glyph unicode="&#x220f;" horiz-adv-x="1435" d="M123 -345l199 1620h-175l25 205h1297l-23 -205h-175l-199 -1620h-251l197 1620h-446l-198 -1620h-251z" />
<glyph unicode="&#x2211;" horiz-adv-x="1294" d="M-51 -343l11 88q2 18 11.5 38t24.5 37l645 752l-462 744q-12 17 -15.5 37.5t-0.5 39.5l10 88h1141l-26 -212h-758l393 -664l-10 -73l-555 -663h758l-26 -212h-1141z" />
<glyph unicode="&#x2212;" d="M137 597l22 181h904l-23 -181h-903z" />
<glyph unicode="&#x2215;" horiz-adv-x="973" d="M-101 0l960 1396q30 40 63 62t78 22h101l-970 -1407q-31 -43 -62 -58t-71 -15h-99zM0 0z" />
<glyph unicode="&#x221a;" horiz-adv-x="1271" d="M47 759l9 78h360q27 0 43.5 -14t20.5 -32l71 -333q8 -42 11 -84.5t3 -85.5q10 34 22.5 68.5t26.5 71.5l556 1273q9 20 29.5 33.5t45.5 13.5h160l-778 -1748h-205l-164 660h-130q-37 0 -62 22.5t-19 76.5z" />
<glyph unicode="&#x221e;" horiz-adv-x="1386" d="M82 606q10 81 44 148.5t83 116.5t109.5 76t123.5 27q51 0 92 -15t74 -40t58.5 -58.5t46.5 -70.5q30 38 63.5 71t72 58t83 40t95.5 15q65 0 118.5 -27t91 -76t55 -116.5t6.5 -148.5q-10 -82 -43.5 -149.5t-83 -116t-110 -75.5t-125.5 -27q-51 0 -92 14t-73.5 39t-58 59 t-45.5 72q-30 -38 -64 -72t-72.5 -59t-83.5 -39t-96 -14q-63 0 -117 27t-91 75.5t-54 116t-7 149.5zM280 606q-5 -44 1.5 -75t21.5 -51t37 -29.5t48 -9.5q28 0 53 13t49 35t47 52t47 64q-15 35 -31 64.5t-34.5 52t-40.5 35.5t-50 13q-26 0 -50.5 -9t-44.5 -29t-34 -51.5 t-19 -74.5zM796 606q15 -35 31 -65t34.5 -52t40.5 -35t50 -13q26 0 50.5 9.5t44.5 29.5t34 51t19 75q5 43 -1.5 74.5t-22 51.5t-37.5 29t-47 9q-28 0 -53.5 -13t-49 -35t-47 -52t-46.5 -64z" />
<glyph unicode="&#x222b;" horiz-adv-x="829" d="M-95 -315l14 105q2 13 6 23t13.5 16t24.5 9t41 3q59 0 99.5 12t67.5 37t41 64.5t20 95.5l133 1216q13 105 47.5 182.5t87.5 127t122.5 73.5t151.5 24q38 0 80 -7.5t79 -26.5l-14 -106q-2 -13 -6.5 -23t-13.5 -16t-24.5 -8.5t-40.5 -2.5q-59 0 -100 -12t-67.5 -37.5 t-41 -65t-20.5 -95.5l-131 -1215q-13 -106 -48.5 -183.5t-88 -127t-122.5 -73.5t-152 -24q-37 0 -79 7.5t-79 27.5z" />
<glyph unicode="&#x2248;" d="M151 545q46 56 113 82t138 26q54 0 106.5 -16t101.5 -35t96.5 -35.5t91.5 -16.5q32 0 62.5 7t56.5 18t45.5 22.5t27.5 20.5l11 -154q-46 -51 -110.5 -74t-131.5 -23q-54 0 -106 15.5t-101 34.5t-96 35t-92 16q-33 0 -64.5 -7t-58 -18t-46 -23.5t-27.5 -23.5zM194 907 q47 55 114 81.5t139 26.5q53 0 105 -16t101.5 -35.5t97 -35.5t92.5 -16q32 0 62 7.5t56 18t45.5 22.5t28.5 21l11 -154q-45 -52 -110.5 -75.5t-131.5 -23.5q-54 0 -106 16.5t-101.5 35.5t-96.5 35t-91 16q-33 0 -65 -7.5t-58 -18t-45.5 -24t-27.5 -23.5z" />
<glyph unicode="&#x2260;" d="M198 176l626 1011h175l-626 -1011h-175z" />
<glyph unicode="&#x2264;" d="M114 82l23 187h812l-24 -187h-811zM197 758l3 25l10 76l858 388l-20 -172q-3 -20 -16 -38.5t-49 -31.5l-381 -162q-28 -10 -57.5 -18.5t-62.5 -15.5q65 -14 112 -35l341 -165q32 -13 40.5 -31.5t6.5 -38.5l-21 -172z" />
<glyph unicode="&#x2265;" d="M132 82l24 187h812l-24 -187h-812zM168 367l20 172q3 20 16.5 38.5t49.5 31.5l380 165q28 11 57.5 19.5t62.5 15.5q-60 13 -112 34l-341 162q-33 13 -41 31.5t-5 38.5l20 172l765 -388l-10 -76l-3 -25z" />
<glyph unicode="&#x25ca;" d="M130 737l390 831h176l390 -831l-390 -830h-176zM338 737l235 -513q11 -28 19.5 -51t15.5 -47q7 24 16 47.5t20 50.5l240 513l-240 513q-23 53 -36 98q-14 -46 -35 -98z" />
<glyph unicode="&#x25fc;" horiz-adv-x="1049" d="M0 0v1050h1050v-1050h-1050z" />
<glyph unicode="&#xf8ff;" horiz-adv-x="1615" d="M82 432q0 158 36 316t106.5 303t176.5 269t246 212l4 -12q-87 -58 -154 -152t-116 -206.5t-82.5 -237.5t-53 -247.5t-28 -235t-8.5 -199.5t11 -148t31 -107t47 -81t58 -70l-12 -12q-60 56 -108.5 115.5t-82.5 130.5t-52.5 159t-18.5 203zM438 823v224l123 12l103 250h264 v-258h178v-252h-178v-350q0 -39 26 -61.5t80 -22.5q9 0 25.5 0.5t34.5 3.5l20 -219q-51 -20 -109.5 -32t-121.5 -12q-98 0 -164 24t-106 70t-56 113.5t-16 155.5v307zM965 -164q87 59 154 152t116 205t82 237t53.5 247t28.5 233.5t8 199.5t-11.5 150t-31 108t-46.5 81.5 t-58 70.5l12 12q60 -57 109 -116.5t82.5 -131.5t52 -160t18.5 -200q0 -158 -36 -316t-106.5 -303t-176.5 -269t-246 -212z" />
<glyph horiz-adv-x="753" d="M209 1906h244q18 0 32 -1t24 -6t18.5 -13t17.5 -22l173 -278h-168q-28 0 -42.5 3.5t-31.5 21.5z" />
<glyph horiz-adv-x="753" d="M414 1586l228 278q11 14 21.5 22.5t22 13t25.5 5.5t32 1h258l-337 -293q-22 -18 -39 -22.5t-43 -4.5h-168z" />
<glyph horiz-adv-x="753" d="M226 1586l259 282h211l196 -282h-169q-14 0 -34 5.5t-38 33.5l-64 109q-4 6 -6.5 11.5t-6.5 10.5l-16 -22l-89 -109q-26 -28 -46.5 -33.5t-34.5 -5.5h-162z" />
<glyph horiz-adv-x="753" d="M251 1868h169q14 0 33.5 -4t32.5 -27l71 -120q3 -6 6 -11t5 -10l17 21l96 119q17 23 38 27.5t36 4.5h169l-259 -282h-219z" />
<glyph horiz-adv-x="753" d="M226 1581q6 50 24.5 97.5t48 84t67.5 58.5t86 22t82 -16.5t60.5 -35t48.5 -35t48 -16.5q20 0 36.5 9t28 23t18.5 31t9 33h142q-6 -51 -24 -97.5t-47 -83t-67.5 -58t-86.5 -21.5t-81 16.5t-60 35.5t-49.5 35t-47.5 16q-22 0 -37.5 -9t-27 -23.5t-18 -32t-8.5 -33.5h-145z " />
<glyph horiz-adv-x="753" d="M220 1705q0 29 11.5 55t31 45.5t44.5 30.5t52 11q29 0 55 -11t46 -30.5t31.5 -45.5t11.5 -55t-11.5 -54t-31.5 -44t-46 -29.5t-55 -10.5q-28 0 -52.5 10.5t-44 29.5t-31 44t-11.5 54zM629 1705q0 29 11 55t30 45.5t44.5 30.5t54.5 11q30 0 56 -11t45 -30.5t30 -45.5 t11 -55t-11 -54t-30 -44t-45 -29.5t-56 -10.5q-29 0 -54.5 10.5t-44.5 29.5t-30 44t-11 54z" />
<glyph horiz-adv-x="753" d="M274 1608l18 145h565l-16 -145h-567z" />
<glyph horiz-adv-x="753" d="M276 1863h178q-3 -31 1 -54.5t17.5 -40t38 -25t61.5 -8.5q75 0 108 33t39 95h178q-7 -66 -35 -117.5t-73 -88t-104 -55.5t-130 -19t-126 17t-92 51.5t-53 87t-8 124.5z" />
<glyph horiz-adv-x="753" d="M378 1747q5 44 25 80.5t49.5 62t66 40t74.5 14.5q40 0 74.5 -14.5t59 -40t36 -62t6.5 -80.5q-5 -43 -24.5 -78t-49 -60.5t-67.5 -39.5t-78 -14q-38 0 -72 14t-57.5 39.5t-35.5 60.5t-7 78zM489 1747q-4 -40 15 -65.5t61 -25.5q37 0 62.5 25.5t30.5 65.5q4 43 -15.5 68 t-57.5 25q-41 0 -66 -25t-30 -68z" />
<glyph horiz-adv-x="753" d="M304 1586l157 228q17 26 42 40t63 14h151l-222 -245q-20 -17 -37 -27t-43 -10h-111zM607 1586l199 228q22 25 48 39.5t64 14.5h174l-272 -245q-22 -18 -41.5 -27.5t-46.5 -9.5h-125z" />
<glyph horiz-adv-x="753" d="M418 1736q0 33 13 62t34.5 51.5t50 35t57.5 12.5q31 0 60 -12.5t51 -34.5t35 -51t13 -63q0 -33 -13.5 -62t-36.5 -50.5t-51.5 -34.5t-59.5 -13q-30 0 -57.5 13t-49 34.5t-34 50.5t-12.5 62z" />
<glyph horiz-adv-x="753" d="M209 -397l85 305h155q24 0 30 -10.5t6 -20.5q0 -11 -4 -28.5t-14 -44t-29 -65t-48 -91.5q-16 -29 -37.5 -37t-54.5 -8h-89z" />
<glyph horiz-adv-x="753" d="M410 1195l135 290h146l-81 -290h-200z" />
<glyph horiz-adv-x="684" d="M80 0l16 127h143l44 366l11 50l-90 -66q-12 -9 -24.5 -11t-23 0t-18 7t-11.5 11l-44 76l261 198h148l-78 -631h104l-14 -127h-424z" />
<glyph horiz-adv-x="684" d="M-13 0l8 57q2 16 10.5 35.5t26.5 33.5l241 213q29 25 53.5 51.5t43 53.5t29.5 54t11 53q0 33 -18.5 53.5t-51.5 20.5q-36 0 -59.5 -18t-40.5 -51q-16 -23 -34 -31.5t-53 -3.5l-95 16q15 58 44.5 100.5t69.5 71t89.5 42.5t105.5 14q54 0 95.5 -15t69.5 -41t42.5 -62 t14.5 -78q0 -47 -15.5 -86t-41.5 -73t-60 -66t-71 -64l-154 -141q30 8 58.5 13.5t51.5 5.5h142q28 0 41.5 -14.5t9.5 -40.5l-11 -103h-552z" />
<glyph horiz-adv-x="684" d="M5 196l80 32q31 11 56 5.5t33 -25.5q4 -11 10 -24t17 -23.5t27.5 -17.5t39.5 -7q52 0 83 32t31 78q0 44 -32 62t-109 18l14 121q87 1 122.5 25.5t35.5 78.5q0 33 -18.5 52t-55.5 19q-39 0 -62.5 -17t-37.5 -47q-16 -27 -33.5 -34.5t-49.5 -2.5l-89 16q15 58 44 100.5 t68.5 71t87 42.5t99.5 14q53 0 94 -15t69 -39.5t42.5 -57t14.5 -68.5q0 -70 -30.5 -115.5t-98.5 -70.5q51 -18 76 -51.5t25 -86.5q0 -69 -26.5 -119.5t-69 -83.5t-96 -49.5t-106.5 -16.5q-55 0 -97.5 10.5t-74 34.5t-52 63t-31.5 96z" />
<glyph horiz-adv-x="684" d="M-17 291l403 466h169l-56 -455h97l-11 -102q-2 -12 -12 -22.5t-26 -10.5h-65l-20 -167h-148l21 167h-297q-24 0 -36 10.5t-13 26.5zM158 302h194l21 167q3 25 8 53.5t13 60.5z" />
</font>
</defs>
</svg>
